<?xml version="1.0" standalone="no"?>
<!DOCTYPE svg PUBLIC "-//W3C//DTD SVG 1.1//EN" "http://www.w3.org/Graphics/SVG/1.1/DTD/svg11.dtd" >
<svg>
<metadata>
Created by FontForge 20120731 at Mon Jul  1 16:47:45 2019
 By www
Copyright (c) 2011 by James Puckett. All rights reserved.
</metadata>
<defs>
<font id="SybariteLarge" horiz-adv-x="500" >
  <font-face 
    font-family="Sybarite Large"
    font-weight="900"
    font-stretch="normal"
    units-per-em="1000"
    panose-1="2 0 0 0 0 0 0 0 0 0"
    ascent="715"
    descent="-285"
    x-height="430"
    cap-height="690"
    bbox="-204 -284 1182 979"
    underline-thickness="50"
    underline-position="-100"
    unicode-range="U+0020-FB04"
  />
<missing-glyph horiz-adv-x="400" 
d="M23 0v700h356v-700h-356zM51 71l134 279l-134 279v-558zM61 28h279l-140 289zM200 383l140 289h-279zM351 71v558l-135 -279z" />
    <glyph glyph-name="ff" unicode="ff" horiz-adv-x="813" 
d="M18 0v17h51v396h-51v17h51v61q0 59 22 102t59 65.5t78 33t86 10.5q114 0 155 -60q67 60 185 60q87 0 130 -33.5t43 -85.5q0 -38 -22.5 -61t-60.5 -23q-35 0 -59.5 20.5t-24.5 58.5q0 35 20 55t48 22v1q-16 29 -60 29q-38 0 -55 -22t-17 -74v-159h89v-17h-89v-396h89v-17
h-326v17h50v396h-153v-396h58v-17h-296zM409 430v69h-5q-36 0 -60 20.5t-24 58.5q0 35 20 55t47 22q-14 30 -59 30q-38 0 -55 -22t-17 -74v-159h153z" />
    <glyph glyph-name="fi" unicode="fi" horiz-adv-x="668" 
d="M18 0v17h51v396h-51v17h51v61q0 57 26 99t72 66t102 35t123 11q90 0 142 -17q71 -23 71 -92q0 -43 -28 -69t-72 -26q-45 0 -73.5 26t-28.5 69q0 54 42 77q-25 15 -72 15q-63 0 -90 -24t-27 -77v-154h343v-413h51v-17h-292v17h50v396h-152v-396h50v-17h-288z" />
    <glyph glyph-name="fl" unicode="fl" horiz-adv-x="670" 
d="M18 0v17h51v396h-51v17h51v61q0 59 22 102t59 65.5t78 33t86 10.5q17 0 76 -6t126 -6h83v-673h51v-17h-292v17h50v482h-4q-36 0 -60 20.5t-24 58.5q0 35 20 55t48 22q-16 30 -60 30q-38 0 -55 -22t-17 -74v-159h89v-17h-89v-396h73v-17h-311z" />
    <glyph glyph-name="ffi" unicode="ffi" horiz-adv-x="1049" 
d="M18 0v17h51v396h-51v17h51v61q0 59 22 102t59 65.5t78 33t86 10.5q77 0 119.5 -27t51.5 -71q76 98 288 98q90 0 142 -17q71 -24 71 -92q0 -43 -28.5 -69t-71.5 -26q-46 0 -74.5 26t-28.5 69q0 55 43 77q-26 15 -72 15q-63 0 -90.5 -24t-27.5 -77v-154h344v-413h50v-17
h-291v17h50v396h-153v-396h51v-17h-288v17h50v396h-193v-396h74v-17h-312zM449 430v61q0 13 1 19q-20 -11 -46 -11q-36 0 -60 20.5t-24 58.5q0 35 20 55t47 22q-15 30 -59 30q-38 0 -55 -22t-17 -74v-159h193z" />
    <glyph glyph-name="ffl" unicode="ffl" horiz-adv-x="1011" 
d="M18 0v17h51v396h-51v17h51v61q0 59 22 102t59 65.5t78 33t86 10.5q114 0 155 -60q68 60 186 60q17 0 76.5 -6t125.5 -6h83v-673h50v-17h-291v17h50v482h-5q-35 0 -59.5 20.5t-24.5 58.5q0 35 20 55t49 22q-15 30 -61 30q-38 0 -55 -22t-17 -74v-159h88v-17h-88v-396h74
v-17h-311v17h50v396h-153v-396h74v-17h-312zM409 430v69h-5q-36 0 -60 20.5t-24 58.5q0 35 20 55t47 22q-13 30 -59 30q-38 0 -55 -22t-17 -74v-159h153z" />
    <glyph glyph-name="f_b" unicode="fb" horiz-adv-x="929" 
d="M18 0v17h51v396h-51v17h51v61q0 59 22 102t59 65.5t78 33t86 10.5q17 0 76 -6t126 -6h79v-306q21 58 110 58q91 0 143.5 -64.5t52.5 -164.5q0 -109 -61.5 -167t-151.5 -58q-48 0 -75.5 18.5t-40.5 61.5l-43 -68h-121v499h-4q-36 0 -60 20.5t-24 58.5q0 36 20 56t48 22
q-17 29 -60 29q-38 0 -55 -22t-17 -74v-159h81v-17h-81v-396h81v-17h-319zM594 95q0 -88 71 -88q43 0 46 50q2 36 2 158q0 134 -2 154q-4 47 -45 47q-29 0 -50.5 -22.5t-21.5 -78.5v-220z" />
    <glyph glyph-name="f_h" unicode="fh" horiz-adv-x="952" 
d="M18 0v17h51v396h-51v17h51v61q0 59 22 102t59 65.5t78 33t86 10.5q17 0 76 -6t126 -6h79v-331q29 81 138 81q76 0 117.5 -36.5t41.5 -95.5v-291h51v-17h-278v17h41v357q0 24 -4.5 32t-18.5 8q-36 0 -62 -34t-26 -91v-272h41v-17h-278v17h50v482h-4q-36 0 -60 20.5
t-24 58.5q0 36 19.5 55.5t47.5 22.5q-15 29 -59 29q-38 0 -55 -22t-17 -74v-159h81v-17h-81v-396h67v-17h-305z" />
    <glyph glyph-name="f_j" unicode="fj" horiz-adv-x="664" 
d="M18 0v17h51v396h-51v17h51v61q0 57 26 99t72 66t102 35t123 11q90 0 142 -17q71 -23 71 -92q0 -43 -28 -69t-72 -26q-45 0 -73.5 26t-28.5 69q0 55 43 77q-27 15 -73 15q-63 0 -90 -24t-27 -77v-154h343q0 -3 0.5 -47.5t0.5 -145v-239.5q0 -77 -21 -131.5t-58.5 -82.5
t-78.5 -39.5t-90 -11.5q-88 0 -131.5 33t-43.5 84q0 38 24 61.5t62 23.5q37 0 59 -23t22 -61q0 -35 -18.5 -56.5t-51.5 -23.5q23 -21 62 -21q38 0 55 21.5t17 73.5v568h-152v-396h50v-17h-288z" />
    <glyph glyph-name="f_k" unicode="fk" horiz-adv-x="954" 
d="M670 0v17h53l-95 187l-33 -30v-157h40v-17h-277v17h50v482h-4q-36 0 -60 20.5t-24 58.5q0 36 20 56t48 22q-16 29 -60 29q-38 0 -55 -22t-17 -74v-159h89v-17h-89v-396h73v-17h-311v17h51v396h-51v17h51v61q0 59 22 102t59 65.5t78 33t86 10.5q17 0 76 -6t126 -6h79v-493
l123 113q31 28 41 42.5t10 29.5q0 17 -13.5 24t-46.5 8v16h224v-16q-56 -7 -86.5 -23t-82.5 -63l166 -311h42v-17h-302z" />
    <glyph glyph-name=".notdef" horiz-adv-x="400" 
d="M23 0v700h356v-700h-356zM51 71l134 279l-134 279v-558zM61 28h279l-140 289zM200 383l140 289h-279zM351 71v558l-135 -279z" />
    <glyph glyph-name=".null" horiz-adv-x="0" 
 />
    <glyph glyph-name="nonmarkingreturn" horiz-adv-x="333" 
 />
    <glyph glyph-name="space" unicode=" " horiz-adv-x="236" 
 />
    <glyph glyph-name="exclam" unicode="!" horiz-adv-x="394" 
d="M187 223q0 80 -25.5 151t-50.5 126.5t-25 99.5q0 52 29.5 82t81.5 30t81 -30t29 -82q0 -36 -16 -79.5t-34.5 -80t-34.5 -95.5t-16 -122h-19zM100 74q0 42 28.5 69t68.5 27t68 -27t28 -69t-28 -69t-68 -27t-68.5 27t-28.5 69z" />
    <glyph glyph-name="quotedbl" unicode="&#x22;" horiz-adv-x="591" 
d="M176 333q-14 0 -24 25q-66 178 -66 246q0 55 25 82.5t65 27.5q41 0 66 -27.5t25 -82.5q0 -68 -66 -246q-10 -25 -25 -25zM414 333q-14 0 -24 25q-66 178 -66 246q0 55 25 82.5t65 27.5q41 0 66 -27.5t25 -82.5q0 -68 -66 -246q-10 -25 -25 -25z" />
    <glyph glyph-name="numbersign" unicode="#" horiz-adv-x="685" 
d="M75 466l6 25h163l56 225l27 -6l-55 -219h207l56 225l26 -6l-55 -219h163l-6 -25h-163l-54 -218h163l-7 -24h-162l-61 -248l-27 6l60 242h-206l-62 -248l-26 6l60 242h-163l6 24h163l54 218h-163zM266 466l-54 -218h206l55 218h-207z" />
    <glyph glyph-name="dollar" unicode="$" horiz-adv-x="630" 
d="M301 -82v88q-107 4 -178 47t-71 103q0 35 23 56.5t57 21.5q31 0 51.5 -21t20.5 -51q0 -66 -71 -72q59 -65 168 -69v204q-40 12 -62.5 19.5t-56 22t-52.5 30.5t-39 39.5t-28.5 55t-8.5 71.5q0 111 71 165t182 55v100l20 6v-107q96 -4 160.5 -46t64.5 -97
q0 -31 -18.5 -50.5t-50.5 -19.5q-29 0 -49 19.5t-20 47.5q0 27 17.5 46t48.5 21q-49 60 -153 64v-189q48 -13 76.5 -23t66 -29.5t58 -42t35.5 -59t15 -82.5q0 -111 -66 -173.5t-191 -62.5v-82zM152 580q0 -31 28 -48.5t127 -47.5v184q-74 -1 -114.5 -24.5t-40.5 -63.5z
M476 115q0 36 -27.5 55t-127.5 49v-198q82 0 118.5 26t36.5 68z" />
    <glyph glyph-name="percent" unicode="%" horiz-adv-x="964" 
d="M242 320q28 0 38.5 11.5t10.5 40.5q1 62 1 137l-1 136q0 30 -10.5 41.5t-38.5 11.5t-38.5 -11.5t-10.5 -41.5q-1 -61 -1 -136l1 -137q0 -29 10.5 -40.5t38.5 -11.5zM722 -8q28 0 38.5 11.5t10.5 40.5q1 62 1 137l-1 136q0 30 -10.5 41.5t-38.5 11.5t-38.5 -11.5
t-10.5 -41.5q-1 -61 -1 -136l1 -137q0 -29 10.5 -40.5t38.5 -11.5zM242 306q-78 0 -139.5 54t-61.5 149t61.5 149t139.5 54t139.5 -54t61.5 -149t-61.5 -149t-139.5 -54zM722 -22q-78 0 -139.5 54t-61.5 149t61.5 149t139.5 54t139.5 -54t61.5 -149t-61.5 -149t-139.5 -54z
M750 718l-515 -762l-22 16l515 762z" />
    <glyph glyph-name="ampersand" unicode="&#x26;" horiz-adv-x="866" 
d="M11 178q0 67 43.5 119t148.5 92q-47 79 -47 150q0 74 46.5 123.5t149.5 49.5q145 0 145 -114q0 -73 -76 -120l181 -217q72 80 72 166q0 35 -16.5 52.5t-65.5 17.5v16h238v-16q-44 -3 -72 -27t-41.5 -55t-41 -80t-63.5 -86q71 -84 98.5 -107.5t54.5 -23.5q37 0 52 27.5
t15 93.5h17q0 -122 -42.5 -190t-151.5 -68q-64 0 -113 25.5t-96 79.5q-91 -107 -216 -107q-92 0 -155.5 54.5t-63.5 144.5zM281 284q-37 42 -70 92q-36 -24 -36 -69q0 -66 66.5 -143.5t144.5 -77.5q29 0 48 15zM343 622q0 -51 68 -132q68 39 68 108q0 41 -20.5 63.5
t-53.5 22.5q-30 0 -46 -18t-16 -44z" />
    <glyph glyph-name="quotesingle" unicode="'" horiz-adv-x="353" 
d="M176 333q-14 0 -24 25q-66 178 -66 246q0 55 25 82.5t65 27.5q41 0 66 -27.5t25 -82.5q0 -68 -66 -246q-10 -25 -25 -25z" />
    <glyph glyph-name="parenleft" unicode="(" horiz-adv-x="418" 
d="M78 210q0 117 22 206t55.5 139.5t80.5 82.5t89 42t89 10v-17q-75 -5 -101 -39.5t-30 -149.5q-4 -132 -4 -274t4 -274q3 -80 16.5 -119t38.5 -52.5t76 -17.5v-17q-47 0 -89 10t-89 42t-80.5 82.5t-55.5 139.5t-22 206z" />
    <glyph glyph-name="parenright" unicode=")" horiz-adv-x="418" 
d="M340 210q0 -117 -22 -206t-55.5 -139.5t-80.5 -82.5t-89 -42t-89 -10v17q51 4 76 17.5t38.5 52.5t16.5 119q4 132 4 274t-4 274q-4 115 -30 149.5t-101 39.5v17q47 0 89 -10t89 -42t80.5 -82.5t55.5 -139.5t22 -206z" />
    <glyph glyph-name="asterisk" unicode="*" horiz-adv-x="530" 
d="M265 479q-18 -41 -25.5 -89.5t-19.5 -64.5q-18 -25 -47 -25q-25 0 -44.5 17.5t-19.5 42.5q0 30 22 47.5t61.5 37.5t62.5 42q-20 2 -36 2q-24 0 -56 -5t-42 -5q-29 0 -49 15.5t-20 43.5q0 26 16.5 44.5t42.5 18.5q24 0 43 -15t47 -42t58 -45q-9 44 -31.5 88t-22.5 65
q0 26 17 43t43 17t43 -17t17 -43q0 -21 -22.5 -65t-31.5 -88q30 18 58 45t47 42t43 15q26 0 42.5 -18.5t16.5 -44.5q0 -28 -20 -43.5t-49 -15.5q-10 0 -42 5t-56 5q-16 0 -36 -2q23 -22 62.5 -42t61.5 -37.5t22 -47.5q0 -25 -19.5 -42.5t-44.5 -17.5q-29 0 -47 25
q-12 16 -19.5 64.5t-25.5 89.5z" />
    <glyph glyph-name="plus" unicode="+" horiz-adv-x="690" 
d="M70 327v36h256v257h38v-257h256v-36h-256v-257h-38v257h-256z" />
    <glyph glyph-name="comma" unicode="," horiz-adv-x="382" 
d="M84 74q0 47 29.5 74t76.5 27q51 0 81.5 -35t30.5 -112q0 -97 -50.5 -172.5t-147.5 -115.5l-8 17q46 25 76.5 52.5t55 79.5t28.5 123l-2 1q-22 -36 -71 -36q-40 0 -69.5 25t-29.5 72z" />
    <glyph glyph-name="hyphen" unicode="-" horiz-adv-x="379" 
d="M60 148v155h259v-155h-259z" />
    <glyph glyph-name="period" unicode="." horiz-adv-x="382" 
d="M84 75q0 47 33.5 73.5t73.5 26.5t73 -26.5t33 -73.5t-33 -73.5t-73 -26.5t-73.5 26.5t-33.5 73.5z" />
    <glyph glyph-name="slash" unicode="/" horiz-adv-x="449" 
d="M-1 -30l422 742h24l-423 -742h-23z" />
    <glyph glyph-name="zero" unicode="0" horiz-adv-x="718" 
d="M282 71q1 -39 19 -57.5t58 -18.5t58 18.5t19 57.5q2 118 2 274t-2 274q-1 39 -19 57.5t-58 18.5t-58 -18.5t-19 -57.5q-2 -118 -2 -274t2 -274zM33 345q0 163 98 265t228 102t228 -102t98 -265t-98 -265t-228 -102t-228 102t-98 265z" />
    <glyph glyph-name="one" unicode="1" horiz-adv-x="461" 
d="M20 0v17h85v616h-85v18q210 1 317 48h21v-682h84v-17h-422z" />
    <glyph glyph-name="two" unicode="2" horiz-adv-x="668" 
d="M-5 30q0 47 37.5 94.5t90.5 89t106.5 86.5t91 105t37.5 126q0 73 -41 112.5t-106 39.5q-58 0 -102 -29.5t-53 -91.5l2 -1q24 46 86 46q45 0 72.5 -29t27.5 -73q0 -49 -29.5 -78.5t-77.5 -29.5q-53 0 -88 33.5t-35 96.5q0 185 294 185q305 0 305 -228q0 -71 -30.5 -108
t-84 -50t-112 -20.5t-129 -32.5t-120.5 -73l3 -3q82 63 175 63q40 0 71.5 -12t47.5 -27t39 -27t49 -12q83 0 83 113h17q0 -156 -48 -232.5t-163 -76.5q-52 0 -92.5 16t-65.5 38.5t-46 45t-46 38.5t-55 16q-35 0 -52.5 -19t-17.5 -44q0 -19 19 -37t19 -36q0 -33 -34 -33
q-20 0 -32.5 15t-12.5 44z" />
    <glyph glyph-name="three" unicode="3" horiz-adv-x="678" 
d="M215 351v18q88 0 122.5 34.5t34.5 120.5q0 85 -31.5 123t-100.5 38q-57 0 -97 -25.5t-51 -78.5h2q24 43 77 43q41 0 66 -27.5t25 -72.5q0 -46 -27 -72.5t-75 -26.5q-53 0 -87 31.5t-34 88.5q0 110 132 149q59 18 146 18q43 0 84 -5t83 -18.5t73 -34t50.5 -54t19.5 -75.5
q0 -67 -47 -112t-139 -51v-4q96 -4 147 -49t51 -123q0 -56 -28 -98t-75.5 -65t-102.5 -34t-117 -11q-92 0 -147 17q-144 44 -144 170q0 66 38 102t96 36q52 0 83.5 -28t31.5 -81q0 -50 -28.5 -79.5t-75.5 -29.5q-54 0 -80 42h-2q6 -56 42 -89.5t104 -33.5q143 0 143 181
q0 97 -38 131.5t-124 34.5z" />
    <glyph glyph-name="four" unicode="4" horiz-adv-x="636" 
d="M165 0v17h89v151q-68 -9 -103 -9q-94 0 -146 29v17q84 92 157.5 222t107.5 258q142 2 263 16l2 -3q-71 -147 -206 -278.5t-291 -216.5v-2q35 -14 103 -14q55 0 113 14v77q59 37 127 95.5t113 118.5h12v-225q18 2 28 2q56 0 85 -19l-33 -84q-31 18 -80 22v-171h85v-17
h-426z" />
    <glyph glyph-name="five" unicode="5" horiz-adv-x="648" 
d="M63 134q11 -65 53.5 -96t104.5 -31q150 0 150 192q0 83 -32 127.5t-113 44.5q-85 0 -131 -46l-26 8l66 362l1 1q69 -23 195 -23q177 0 259 36l1 -1q-3 -71 -21.5 -116t-57 -70t-86.5 -34.5t-123 -11.5q-39 -1 -58.5 -2t-44 -3.5t-35.5 -8t-24.5 -14t-21 -23t-15 -32.5
t-14.5 -46l2 -1q63 72 228 72q137 0 218.5 -52t81.5 -161q0 -111 -87 -169t-233 -58q-135 0 -210.5 49.5t-75.5 141.5q0 64 37 96.5t90 32.5q49 0 77 -30t28 -73q0 -44 -28.5 -73t-75.5 -29q-52 0 -77 42z" />
    <glyph glyph-name="six" unicode="6" horiz-adv-x="672" 
d="M33 320q0 174 100.5 283t262.5 109q91 0 158.5 -37.5t67.5 -117.5q0 -51 -30.5 -83t-82.5 -32q-50 0 -82.5 30.5t-32.5 81.5q0 49 30.5 78.5t81.5 29.5l1 2q-35 31 -96 31q-131 0 -131 -175v-166q21 31 60 47t85 16q91 0 157.5 -57t66.5 -145q0 -96 -80 -166.5
t-206 -70.5q-60 0 -115 18t-105 55.5t-80 107t-30 161.5zM297 14q15 -18 46 -18q27 0 41 18q11 15 14 45t3 112q0 135 -6 166q-7 42 -43 42q-35 0 -54 -33q-13 -21 -16.5 -57t-3.5 -113q0 -86 3.5 -116.5t15.5 -45.5z" />
    <glyph glyph-name="seven" unicode="7" horiz-adv-x="635" 
d="M167 121q0 94 51 145.5t139 82.5q52 18 78.5 30t59 36.5t57.5 59.5q33 47 49 95l-1 1q-43 -63 -114.5 -100t-157.5 -37q-51 0 -89 16.5t-64.5 33t-50.5 16.5q-70 0 -79 -117h-17l24 315h18l-11 -153h1q67 167 247 167q49 0 87 -13t61 -32t41 -38t37 -32t40 -13t31.5 12
t10.5 30q0 22 -24 34t-24 30q0 29 31 29q38 0 38 -63q0 -48 -15 -88.5t-38 -77t-48 -79.5t-48 -116t-35 -166q-11 -88 -37 -122.5t-102 -34.5q-74 0 -110 35.5t-36 113.5z" />
    <glyph glyph-name="eight" unicode="8" horiz-adv-x="645" 
d="M40 171q0 52 28.5 85t68.5 44q-83 60 -83 170q0 103 64.5 172.5t194.5 69.5q112 0 185 -51.5t73 -125.5q0 -35 -18.5 -68.5t-50.5 -48.5q107 -61 107 -195q0 -129 -77 -187t-199 -58q-121 0 -207 51t-86 142zM266 242q-50 16 -87 34q-14 -14 -24 -44t-10 -66
q0 -78 51.5 -124t146.5 -46q136 0 136 103q0 47 -37 71t-176 72zM484 536q0 78 -50 119t-129 41q-63 0 -97.5 -26t-34.5 -70q0 -43 40.5 -67t184.5 -72q44 -15 58 -21q28 38 28 96z" />
    <glyph glyph-name="nine" unicode="9" horiz-adv-x="672" 
d="M50 133q0 51 30.5 83t82.5 32q50 0 82.5 -30.5t32.5 -81.5q0 -49 -31 -78.5t-81 -29.5l-1 -2q34 -30 97 -30q41 0 69 15.5t40.5 43.5t17 54.5t4.5 60.5v167q-44 -64 -146 -64q-91 0 -157.5 57t-66.5 145q0 96 80.5 166.5t205.5 70.5q47 0 92 -10.5t89 -36t76.5 -63.5
t53 -98t20.5 -134q0 -174 -101 -283t-263 -109q-91 0 -158.5 37.5t-67.5 117.5zM320 311q36 0 55 33q13 21 16.5 57t3.5 113q0 80 -3.5 114t-15.5 48q-15 18 -47 18q-29 0 -41 -18q-11 -15 -14 -45t-3 -112q0 -135 6 -166q7 -42 43 -42z" />
    <glyph glyph-name="colon" unicode=":" horiz-adv-x="390" 
d="M88 75q0 47 33.5 73.5t73.5 26.5t73 -26.5t33 -73.5t-33 -73.5t-73 -26.5t-73.5 26.5t-33.5 73.5zM88 349q0 47 33.5 73.5t73.5 26.5t73 -26.5t33 -73.5t-33 -73.5t-73 -26.5t-73.5 26.5t-33.5 73.5z" />
    <glyph glyph-name="semicolon" unicode=";" horiz-adv-x="390" 
d="M88 74q0 47 29.5 74t76.5 27q51 0 81.5 -35t30.5 -112q0 -97 -50.5 -172.5t-147.5 -115.5l-8 17q46 25 76.5 52.5t55 79.5t28.5 123l-2 1q-22 -36 -71 -36q-40 0 -69.5 25t-29.5 72zM88 349q0 47 33.5 73.5t73.5 26.5t73 -26.5t33 -73.5t-33 -73.5t-73 -26.5t-73.5 26.5
t-33.5 73.5z" />
    <glyph glyph-name="less" unicode="&#x3c;" horiz-adv-x="494" 
d="M69 333v24l345 203l17 -31l-316 -184l316 -183l-17 -31z" />
    <glyph glyph-name="equal" unicode="=" horiz-adv-x="690" 
d="M70 242v35h550v-35h-550zM70 413v35h550v-35h-550z" />
    <glyph glyph-name="greater" unicode="&#x3e;" horiz-adv-x="494" 
d="M425 333l-344 -202l-18 31l316 183l-316 184l18 31l344 -203v-24z" />
    <glyph glyph-name="question" unicode="?" horiz-adv-x="492" 
d="M253 197q-112 0 -112 113q0 54 27.5 109.5t55 105.5t27.5 90q0 55 -45 55q-52 0 -92 -62.5t-46 -160.5h-17q7 123 64.5 194t163.5 71q152 0 152 -147q0 -59 -26.5 -114.5t-57.5 -88.5t-57.5 -64.5t-26.5 -48.5q0 -22 26 -22q41 0 82 69l14 -9q-29 -52 -60.5 -71
t-71.5 -19zM133 72q0 42 28.5 69t68.5 27t68 -27t28 -69t-28 -69t-68 -27t-68.5 27t-28.5 69z" />
    <glyph glyph-name="at" unicode="@" horiz-adv-x="802" 
d="M571 -8q-99 0 -137 52q-39 -37 -87 -37q-136 0 -136 153q0 108 58.5 184.5t153.5 76.5q55 0 65 -35l6 24h111l-75 -302q-7 -28 -7 -47q0 -29 13.5 -40.5t42.5 -11.5q54 0 95.5 48.5t60 114t18.5 131.5q0 121 -80 201t-226 80q-167 0 -282.5 -105.5t-115.5 -283.5
q0 -87 30 -154.5t80 -107t110.5 -59.5t127.5 -20q135 0 237 58l7 -14q-43 -27 -111 -43.5t-135 -16.5q-98 0 -179 38.5t-132.5 121t-51.5 195.5q0 178 116.5 292.5t298.5 114.5q150 0 236.5 -81t86.5 -216q0 -50 -11.5 -102t-34 -100t-62.5 -78.5t-91 -30.5zM324 53
q0 -29 34 -29q41 0 54 54q3 12 17.5 68.5t20.5 79.5q28 111 28 135q0 17 -8.5 29t-25.5 12q-18 0 -29 -12t-20 -46l-34 -124q-37 -137 -37 -167z" />
    <glyph glyph-name="A" unicode="A" horiz-adv-x="797" 
d="M0 0v16q67 18 92 43t56 109l196 523h130l243 -674h80v-17h-450v17h115l-57 173h-228q-26 -79 -26 -107q0 -30 23.5 -47.5t62.5 -19.5v-16h-237zM298 518q-83 -219 -114 -309h215z" />
    <glyph glyph-name="B" unicode="B" horiz-adv-x="801" 
d="M20 0v17h85v655h-85v18h486q108 0 165 -38t57 -128q0 -86 -54.5 -125.5t-167.5 -41.5v-3q54 0 95 -8t75 -27t51.5 -54t17.5 -86q0 -53 -19 -90t-55 -55.5t-76.5 -26t-93.5 -7.5h-481zM338 17h55q58 0 78.5 36.5t20.5 126.5q0 91 -21.5 128.5t-79.5 37.5h-53v-329z
M338 363h52q58 0 78 34.5t20 122.5q0 84 -19 118t-74 34h-57v-309z" />
    <glyph glyph-name="C" unicode="C" horiz-adv-x="779" 
d="M315 80q1 -50 21 -67t73 -17q271 0 307 311h16q-7 -66 -26 -120.5t-54.5 -103.5t-97.5 -77t-145 -28q-165 0 -271 104.5t-106 260.5q0 157 104.5 263t256.5 106q133 0 220 -102l108 97h12v-314l-14 -2q-25 63 -50.5 110.5t-63.5 94.5t-90.5 72.5t-116.5 25.5
q-45 0 -63.5 -18t-19.5 -68q-2 -102 -2 -263q0 -159 2 -265z" />
    <glyph glyph-name="D" unicode="D" horiz-adv-x="851" 
d="M348 17h70q68 0 90.5 21t25.5 79q2 42 2 228q0 187 -2 228q-3 58 -25.5 79t-90.5 21h-70v-656zM20 0v17h85v656h-85v17h430q172 0 270.5 -89t98.5 -254q0 -158 -96 -252.5t-269 -94.5h-434z" />
    <glyph glyph-name="E" unicode="E" horiz-adv-x="812" 
d="M20 0v17h85v655h-85v18h710v-261h-12l-186 244h-184v-318h33q45 0 73.5 9.5t43.5 32.5t20.5 45.5t10.5 64.5h15v-327h-15q-5 41 -10.5 64t-20.5 47.5t-43.5 35.5t-73.5 11h-33v-321h184l206 303h12v-320h-730z" />
    <glyph glyph-name="F" unicode="F" horiz-adv-x="773" 
d="M20 0v17h85v655h-85v18h710v-281h-12l-185 263h-185v-317h40q45 0 73.5 9.5t43.5 32.5t21 45.5t11 64.5h14v-327h-14q-5 41 -11 64t-21 47.5t-43.5 35.5t-73.5 11h-40v-321h92v-17h-420z" />
    <glyph glyph-name="G" unicode="G" horiz-adv-x="825" 
d="M315 80q1 -49 20 -66.5t68 -17.5q52 0 73.5 30t21.5 97v204h-116v18h439v-18h-83v-331h-14l-106 114q-37 -66 -90.5 -99t-133.5 -33q-154 0 -258 104.5t-104 261.5t104.5 262.5t260.5 105.5q134 0 222 -102l109 97h11v-305l-13 -3q-31 69 -58 115.5t-65.5 91t-88 66.5
t-110.5 22q-48 0 -68 -18t-21 -68q-2 -102 -2 -263q0 -159 2 -265z" />
    <glyph glyph-name="H" unicode="H" horiz-adv-x="882" 
d="M20 0v17h85v655h-85v18h399v-18h-71v-317h186v317h-71v18h399v-18h-85v-655h85v-17h-399v17h71v320h-186v-320h71v-17h-399z" />
    <glyph glyph-name="I" unicode="I" horiz-adv-x="464" 
d="M20 0v17h85v655h-85v18h424v-18h-84v-655h84v-17h-424z" />
    <glyph glyph-name="J" unicode="J" horiz-adv-x="606" 
d="M228 -22q-109 0 -172 41.5t-63 118.5q0 55 31 87t81 32q49 0 78.5 -30.5t29.5 -79.5q0 -48 -27 -77.5t-73 -31.5q19 -42 76 -42q23 0 39 7.5t24.5 19t13 33.5t5.5 41t1 52q0 29 -1 100t-1 123v300h-90v18h412v-18h-79v-438q0 -73 -24 -125t-66.5 -79.5t-90 -39.5
t-104.5 -12z" />
    <glyph glyph-name="K" unicode="K" horiz-adv-x="856" 
d="M455 0v17h69l-169 319l-7 -7v-312h64v-17h-392v17h85v655h-85v18h420v-18h-92v-319q151 147 189 192t38 78q0 27 -17.5 38.5t-64.5 11.5v17h339v-17q-101 -14 -150 -37.5t-121 -94.5l-27 -27l278 -497h49v-17h-406z" />
    <glyph glyph-name="L" unicode="L" horiz-adv-x="766" 
d="M20 0v17h85v655h-85v18h427v-18h-89v-655h134l207 348h13v-365h-692z" />
    <glyph glyph-name="M" unicode="M" horiz-adv-x="977" 
d="M16 0v18h8q46 0 62 18.5t16 68.5v567h-86v18h341l130 -416l130 416h338v-18h-85v-655h85v-17h-409v17h81v641h-1l-205 -661h-88l-211 672h-1v-564q0 -50 16 -68.5t63 -18.5h8v-18h-192z" />
    <glyph glyph-name="N" unicode="N" horiz-adv-x="747" 
d="M18 0v18h7q46 0 62 18.5t16 68.5v567h-85v18h294l317 -540v435q0 50 -16 68.5t-63 18.5h-7v18h190v-18h-6q-47 0 -63 -18.5t-16 -68.5v-585h-201l-325 554v-449q0 -50 16 -68.5t63 -18.5h7v-18h-190z" />
    <glyph glyph-name="O" unicode="O" horiz-adv-x="811" 
d="M313 345q0 -212 2 -265q1 -49 21 -67t70 -18t69 18t21 67q2 53 2 265t-2 265q-1 49 -20.5 66.5t-69.5 17.5q-51 0 -70.5 -18t-20.5 -66q-2 -53 -2 -265zM32 345q0 157 105 262t269 105q163 0 268 -105t105 -262t-105 -262t-268 -105q-164 0 -269 105t-105 262z" />
    <glyph glyph-name="P" unicode="P" horiz-adv-x="753" 
d="M20 0v17h85v655h-85v18h467q120 0 183 -41.5t63 -136.5q0 -48 -17.5 -85t-43 -58t-59.5 -34.5t-63 -17.5t-59 -4h-143v-296h92v-17h-420zM348 331h52q51 0 68 32.5t17 137.5t-17 138t-68 33h-52v-341z" />
    <glyph glyph-name="Q" unicode="Q" horiz-adv-x="811" 
d="M32 345q0 157 105 262t269 105q163 0 268 -105t105 -262q0 -104 -48.5 -188.5t-133.5 -131.5q37 -15 82 -15q59 0 89.5 22t31.5 83h14q-1 -152 -39 -212.5t-117 -60.5q-68 0 -110 30.5t-78 110.5q-35 -5 -64 -5q-164 0 -269 105t-105 262zM313 345q0 -212 2 -265
q0 -17 4 -37q7 29 30.5 48.5t62.5 19.5q45 0 84 -23q2 60 2 257q0 212 -2 265q-1 49 -20.5 66.5t-69.5 17.5q-51 0 -70.5 -18t-20.5 -66q-2 -53 -2 -265zM379 65q-43 0 -50 -44q18 -26 77 -26q33 0 54 8q-31 62 -81 62z" />
    <glyph glyph-name="R" unicode="R" horiz-adv-x="817" 
d="M20 0v17h85v655h-85v18h463q123 0 179.5 -41.5t56.5 -126.5q0 -49 -18 -84.5t-49 -53.5t-64 -26t-71 -8v-4q67 -2 105.5 -11.5t58.5 -37t26 -58t9 -93.5q4 -74 14 -89q9 -13 30 -13q27 0 40.5 24.5t13.5 93.5h17q0 -99 -35.5 -138.5t-124.5 -39.5q-36 0 -64.5 6t-47.5 15
t-33 26t-21.5 32t-12.5 40t-6.5 44t-2.5 49q-2 49 -5.5 72t-17 42t-39.5 24.5t-73 5.5v-323h79v-17h-407zM348 357h46q55 0 73 30t18 128q0 97 -18.5 127t-72.5 30h-46v-315z" />
    <glyph glyph-name="S" unicode="S" horiz-adv-x="643" 
d="M59 -8v298l13 3q57 -152 129.5 -223.5t170.5 -71.5q122 0 122 98q0 47 -32 69t-162 72q-62 24 -100 44t-72 49.5t-49 70t-15 95.5q0 112 61.5 162.5t156.5 50.5q113 0 187 -86l87 79h13v-257l-12 -3q-49 117 -113.5 183.5t-157.5 66.5q-58 0 -88.5 -22t-30.5 -61
q0 -48 36.5 -73t155.5 -69q137 -50 188.5 -101.5t51.5 -147.5q0 -114 -55 -175.5t-166 -61.5q-128 0 -208 98l-94 -87h-17z" />
    <glyph glyph-name="T" unicode="T" horiz-adv-x="809" 
d="M191 0v17h92v658h-33l-204 -322l-12 4l13 333h715l13 -333l-12 -4l-205 322h-32v-658h92v-17h-427z" />
    <glyph glyph-name="U" unicode="U" horiz-adv-x="725" 
d="M99 238q0 269 1 434h-85v18h420v-18h-82v-517q0 -69 23 -104t88 -35q39 0 67 14t43.5 35t24.5 54.5t11.5 63.5t2.5 71v331q0 50 -16 68.5t-63 18.5h-6v18h189v-18h-7q-46 0 -62 -18.5t-16 -68.5v-330q0 -153 -50.5 -215t-197.5 -62q-137 0 -211 58t-74 202z" />
    <glyph glyph-name="V" unicode="V" horiz-adv-x="806" 
d="M337 -1l-249 674h-83v17h451v-17h-114l169 -503q103 289 123.5 351.5t20.5 88.5q0 32 -20 46.5t-67 17.5v16h237v-16q-58 -6 -88.5 -35t-59.5 -112l-189 -528h-131z" />
    <glyph glyph-name="W" unicode="W" horiz-adv-x="1128" 
d="M308 0l-231 672h-72v18h389v-18h-68l131 -394l88 249l-50 145h-55v18h385v-18h-83l132 -392q62 175 79 231t17 87q0 38 -18.5 54.5t-73.5 20.5v17h249v-17q-58 -8 -88.5 -39.5t-61.5 -118.5l-182 -515h-69l-172 499l-176 -499h-70z" />
    <glyph glyph-name="X" unicode="X" horiz-adv-x="811" 
d="M5 0v17q79 8 120.5 37.5t110.5 128.5l74 107l-231 382h-69v18h429v-18h-96l152 -253q65 93 87.5 133t22.5 67q0 51 -75 55v16h274v-16q-78 -9 -118 -37.5t-106 -125.5l-74 -110l232 -384h71v-17h-449v17h115l-155 256q-69 -98 -89 -135.5t-20 -62.5q0 -30 18.5 -43.5
t65.5 -14.5v-17h-290z" />
    <glyph glyph-name="Y" unicode="Y" horiz-adv-x="762" 
d="M168 0v17h92v262l-179 393h-79v18h421v-18h-90l157 -354q72 149 94.5 205.5t22.5 87.5q0 32 -19.5 47t-65.5 16v16h238v-16q-51 -6 -79.5 -31.5t-63.5 -99.5l-115 -240v-286h92v-17h-426z" />
    <glyph glyph-name="Z" unicode="Z" horiz-adv-x="796" 
d="M45 0v15l417 657h-164l-213 -312h-13v330h672v-15l-418 -658h162l230 338h12v-355h-685z" />
    <glyph glyph-name="bracketleft" unicode="[" horiz-adv-x="365" 
d="M107 -270v960h246v-18h-93v-925h93v-17h-246z" />
    <glyph glyph-name="backslash" unicode="\" horiz-adv-x="449" 
d="M426 -30l-422 742h23l423 -742h-24z" />
    <glyph glyph-name="bracketright" unicode="]" horiz-adv-x="365" 
d="M258 690v-960h-246v17h93v925h-93v18h246z" />
    <glyph glyph-name="asciicircum" unicode="^" horiz-adv-x="459" 
d="M76 477l-12 10l143 211h45l143 -211l-11 -10l-155 115z" />
    <glyph glyph-name="underscore" unicode="_" 
d="M0 0h500v-128h-500v128z" />
    <glyph glyph-name="grave" unicode="`" 
d="M335 493q-172 56 -210 83q-34 24 -34 53q0 22 16.5 41t38.5 19t46 -18q43 -30 150 -168z" />
    <glyph glyph-name="a" unicode="a" horiz-adv-x="542" 
d="M20 112q0 130 279 139v96q0 41 -18 58t-60 17q-73 0 -99 -45v-1q31 -1 49 -17t18 -42q0 -27 -17 -45t-47 -18q-28 0 -48 18t-20 51q0 50 51 83.5t160 33.5q114 0 162.5 -37.5t48.5 -116.5v-235q0 -26 20 -26q38 0 38 65v7h16v-10q0 -53 -27.5 -73.5t-83.5 -20.5
q-99 0 -129 64q-7 -38 -34 -53.5t-78 -15.5q-80 0 -130.5 32.5t-50.5 91.5zM200 118q0 -60 11.5 -79.5t37.5 -19.5q50 0 50 62v155q-59 -1 -79 -25t-20 -93z" />
    <glyph glyph-name="b" unicode="b" horiz-adv-x="584" 
d="M251 95q0 -88 70 -88q43 0 46 50q2 36 2 158q0 131 -2 154q-4 47 -45 47q-29 0 -50 -22.5t-21 -78.5v-220zM64 0v673h-51v17h238v-306q20 58 109 58q91 0 144 -64.5t53 -164.5q0 -109 -61.5 -167t-152.5 -58q-48 0 -75 18.5t-41 61.5l-42 -68h-121z" />
    <glyph glyph-name="c" unicode="c" horiz-adv-x="497" 
d="M25 213q0 103 72 166t180 63q81 0 138 -37t57 -92q0 -34 -20 -52.5t-49 -18.5t-50 18.5t-21 49.5q0 28 18 46t49 20q-29 49 -105 49q-41 0 -54.5 -14t-15.5 -47q-2 -26 -2 -146q0 -96 2 -129q2 -43 18.5 -59t58.5 -16q152 0 157 190h17q0 -43 -9 -79t-29.5 -68t-60 -50.5
t-94.5 -18.5q-64 0 -121 23.5t-96.5 76.5t-39.5 125z" />
    <glyph glyph-name="d" unicode="d" horiz-adv-x="590" 
d="M27 213q0 100 52.5 164.5t143.5 64.5q89 0 110 -58v289h-50v17h237v-673h51v-17h-225v44q-28 -56 -105 -56q-91 0 -152.5 57.5t-61.5 167.5zM217 57q3 -50 46 -50q70 0 70 88v220q0 56 -21 78.5t-50 22.5q-41 0 -45 -47q-2 -23 -2 -154q0 -122 2 -158z" />
    <glyph glyph-name="e" unicode="e" horiz-adv-x="526" 
d="M25 211q0 76 40.5 130.5t96.5 77.5t118 23q102 0 163 -65t61 -156h-281q0 -127 20 -166.5t77 -39.5q75 0 119.5 41.5t46.5 112.5h16q0 -75 -54 -128t-165 -53q-114 0 -186 58.5t-72 164.5zM223 238h110v91q0 56 -11 77t-44 21t-44 -21.5t-11 -77.5v-90z" />
    <glyph glyph-name="f" unicode="f" horiz-adv-x="472" 
d="M18 0v17h51v393h-51v20h51v61q0 59 22 102t59 65.5t78 33t86 10.5q87 0 130 -33.5t43 -85.5q0 -38 -22.5 -61t-60.5 -23q-36 0 -60 20.5t-24 58.5q0 35 20 54.5t47 22.5q-15 30 -59 30q-38 0 -55 -22t-17 -74v-159h88v-20h-88v-393h88v-17h-326z" />
    <glyph glyph-name="g" unicode="g" horiz-adv-x="538" 
d="M43 281q0 54 36.5 92t87 53.5t108.5 15.5q40 0 75 -7q14 66 48 100.5t80 34.5q33 0 52.5 -19.5t19.5 -50.5q0 -28 -16.5 -47t-45.5 -19q-27 0 -45.5 17t-18.5 45q0 46 41 56v2q-76 -12 -99 -123q63 -16 102 -53.5t39 -96.5q0 -80 -69.5 -120.5t-162.5 -40.5
q-107 0 -173 47q-21 -20 -21 -49q0 -38 47.5 -47t236.5 -9q168 0 168 -147q0 -97 -68 -146.5t-188 -49.5q-112 0 -181.5 28t-69.5 84q0 26 20 47t48 31q-80 28 -80 123q0 89 77 144q-48 41 -48 105zM275 136q46 0 48 46q2 36 2 99t-2 98q-1 23 -12 34.5t-36 11.5t-36 -11.5
t-12 -34.5q-2 -35 -2 -98t2 -99q2 -46 48 -46zM369 -102h-94q-123 0 -138 2q-27 -23 -27 -62q0 -43 44 -72.5t130 -29.5q77 0 125.5 27t48.5 76q0 59 -89 59z" />
    <glyph glyph-name="h" unicode="h" horiz-adv-x="612" 
d="M18 0v17h51v656h-51v17h238v-331q28 81 137 81q77 0 118.5 -36.5t41.5 -95.5v-291h50v-17h-277v17h40v357q0 24 -4.5 32t-17.5 8q-36 0 -62 -34t-26 -91v-272h40v-17h-278z" />
    <glyph glyph-name="i" unicode="i" horiz-adv-x="329" 
d="M164 498q-42 0 -71.5 27t-29.5 71q0 43 29.5 70.5t71.5 27.5t72 -27.5t30 -70.5q0 -44 -29.5 -71t-72.5 -27zM18 0v17h51v396h-51v17h242v-413h50v-17h-292z" />
    <glyph glyph-name="j" unicode="j" horiz-adv-x="324" 
d="M-75 -75q37 0 59 -23t22 -61q0 -34 -18 -55.5t-52 -24.5v-1q23 -20 61 -20q39 0 56 21.5t17 73.5v578h-50v17h241q0 -3 0.5 -48t0.5 -148v-246q0 -77 -21 -131t-58 -82t-78.5 -40t-91.5 -12q-87 0 -130.5 33t-43.5 84q0 38 24 61.5t62 23.5zM164 498q-42 0 -71.5 27
t-29.5 71q0 43 29.5 70.5t71.5 27.5t72 -27.5t30 -70.5q0 -44 -29.5 -71t-72.5 -27z" />
    <glyph glyph-name="k" unicode="k" horiz-adv-x="625" 
d="M334 0v17h53l-95 187l-33 -30v-157h39v-17h-280v17h51v656h-51v17h241v-493l123 113q30 27 40.5 42t10.5 30q0 17 -13.5 24t-47.5 8v16h225v-16q-56 -7 -86.5 -23t-82.5 -63l166 -311h41v-17h-301z" />
    <glyph glyph-name="l" unicode="l" horiz-adv-x="329" 
d="M18 0v17h51v656h-51v17h242v-673h50v-17h-292z" />
    <glyph glyph-name="m" unicode="m" horiz-adv-x="906" 
d="M18 0v17h51v396h-51v17h238v-70q28 80 139 80q124 0 153 -97q23 97 143 97q79 0 119 -37.5t40 -94.5v-291h47v-17h-274v17h40v357q0 24 -4.5 32t-17.5 8q-36 0 -62 -34t-26 -91v-272h40v-17h-267v17h40v357q0 24 -4.5 32t-18.5 8q-35 0 -61 -34t-26 -91v-272h40v-17h-278
z" />
    <glyph glyph-name="n" unicode="n" horiz-adv-x="612" 
d="M18 0v17h51v396h-51v17h238v-71q28 81 137 81q77 0 118.5 -36.5t41.5 -95.5v-291h50v-17h-277v17h40v357q0 24 -4.5 32t-17.5 8q-36 0 -62 -34t-26 -91v-272h40v-17h-278z" />
    <glyph glyph-name="o" unicode="o" horiz-adv-x="556" 
d="M224 57q1 -29 13.5 -40.5t40.5 -11.5t40.5 11.5t13.5 40.5q2 42 2 158t-2 158q-1 29 -13.5 40.5t-40.5 11.5t-40.5 -11.5t-13.5 -40.5q-2 -42 -2 -158t2 -158zM25 215q0 107 77.5 167t175.5 60t175.5 -60t77.5 -167t-77.5 -167t-175.5 -60t-175.5 60t-77.5 167z" />
    <glyph glyph-name="p" unicode="p" horiz-adv-x="584" 
d="M14 430h238v-46q20 58 109 58q91 0 143.5 -64t52.5 -164q0 -110 -61.5 -168t-151.5 -58q-69 0 -92 44v-285h55v-17h-293v17h51v666h-51v17zM252 315v-220q0 -47 19.5 -67.5t49.5 -20.5q44 0 47 50q2 37 2 158q0 131 -2 154q-4 47 -45 47q-29 0 -50 -22.5t-21 -78.5z" />
    <glyph glyph-name="q" unicode="q" horiz-adv-x="584" 
d="M27 214q0 100 53 164t144 64q94 0 116 -76l61 64h169v-17h-51v-666h51v-17h-293v17h56v285q-22 -44 -92 -44q-91 0 -152.5 58t-61.5 168zM216 57q3 -50 46 -50q71 0 71 88v220q0 56 -21.5 78.5t-50.5 22.5q-41 0 -45 -47q-2 -24 -2 -154q0 -121 2 -158z" />
    <glyph glyph-name="r" unicode="r" horiz-adv-x="466" 
d="M18 0v17h51v396h-51v17h235v-78q11 43 40 65.5t70 22.5q45 0 72 -24.5t27 -66.5q0 -37 -21.5 -60t-60.5 -23q-35 0 -55.5 18.5t-20.5 49.5q0 49 39 58l1 1q-7 12 -24 12q-33 0 -48.5 -39.5t-15.5 -99.5v-249h80v-17h-318z" />
    <glyph glyph-name="s" unicode="s" horiz-adv-x="452" 
d="M43 -7v184l12 5q42 -94 89 -137.5t109 -43.5q38 0 58.5 15.5t20.5 40.5q0 9 -2.5 16t-9 13t-12.5 10.5t-19.5 9.5t-23 8t-30.5 10t-34 11q-77 25 -114.5 58.5t-37.5 101.5q0 73 43.5 112t108.5 39q77 0 125 -55l53 49h13v-158l-12 -3q-64 150 -175 150q-34 0 -54.5 -13
t-20.5 -37q0 -25 24.5 -38t114.5 -41q37 -12 57 -20.5t42.5 -25t32.5 -42.5t10 -63q0 -74 -40.5 -119.5t-113.5 -45.5q-86 0 -137 62l-61 -53h-16z" />
    <glyph glyph-name="t" unicode="t" horiz-adv-x="368" 
d="M63 105q0 27 0.5 129.5t0.5 175.5h-69v19q61 22 132.5 77.5t105.5 106.5h18v-183h100v-20h-100v-360q0 -15 5.5 -20.5t18.5 -5.5q67 0 67 122h17q0 -35 -4.5 -59.5t-18 -49t-43.5 -37t-76 -12.5q-71 0 -112.5 31t-41.5 86z" />
    <glyph glyph-name="u" unicode="u" horiz-adv-x="613" 
d="M61 122v291h-51v17h237v-374q0 -24 4.5 -31.5t18.5 -7.5q36 0 62 33t26 89v274h-41v17h228v-413h50v-17h-237v69q-30 -79 -137 -79q-77 0 -118.5 36.5t-41.5 95.5z" />
    <glyph glyph-name="v" unicode="v" horiz-adv-x="532" 
d="M222 -5l-183 418h-49v17h323v-17h-70l99 -247q57 129 72 165.5t15 51.5q0 30 -63 31v16h181v-16q-47 -4 -69.5 -20t-43.5 -62l-151 -337h-61z" />
    <glyph glyph-name="w" unicode="w" horiz-adv-x="814" 
d="M306 413v17h278v-17h-60l105 -235q52 116 65.5 149t13.5 52q0 18 -15 26.5t-62 8.5v16h198v-16q-49 -1 -70 -20t-45 -73l-143 -321h-44l-127 272l-118 -272h-47l-195 413h-50v17h295v-17h-53l108 -236l50 116l-56 120h-28z" />
    <glyph glyph-name="x" unicode="x" horiz-adv-x="636" 
d="M5 0v16q54 6 77 21.5t88 90.5l56 64l-153 221h-58v17h357v-17h-78l111 -160q47 56 61.5 80t14.5 44q0 18 -15.5 26.5t-65.5 9.5v17h230v-17q-42 -1 -68.5 -16.5t-61.5 -56.5l-85 -101l154 -222h71v-17h-373v17h81l-112 160l-37 -45q-45 -54 -45 -81q0 -19 16.5 -26.5
t67.5 -8.5v-16h-233z" />
    <glyph glyph-name="y" unicode="y" horiz-adv-x="546" 
d="M80 -110q34 0 55 -19.5t21 -52.5q0 -30 -17.5 -48t-52.5 -19v-1q13 -10 32 -10q25 0 39.5 13.5t28.5 46.5l62 145l-206 468h-48v17h323v-17h-70l99 -247q57 129 72 165.5t15 51.5q0 30 -63 31v16h191v-16q-52 -1 -77 -18t-46 -64l-230 -523q-22 -51 -42 -69t-57 -18
q-48 0 -78.5 24.5t-30.5 64.5q0 36 22 57.5t58 21.5z" />
    <glyph glyph-name="z" unicode="z" horiz-adv-x="538" 
d="M28 0v13l262 400h-93l-138 -193h-12v210h459v-13l-263 -401h98l143 212h13v-228h-469z" />
    <glyph glyph-name="braceleft" unicode="{" horiz-adv-x="372" 
d="M20 202v14q59 3 79 33t20 92v146q0 84 16.5 124t68.5 59.5t160 19.5v-17q-55 0 -73.5 -27t-18.5 -100v-186q0 -73 -20.5 -106t-78.5 -45q58 -12 78.5 -45t20.5 -106v-186q0 -73 18.5 -100t73.5 -27v-17q-108 0 -160 19.5t-68.5 60t-16.5 124.5v145q0 62 -20 92t-79 33z
" />
    <glyph glyph-name="bar" unicode="|" 
d="M140 -270v960h220v-960h-220z" />
    <glyph glyph-name="braceright" unicode="}" horiz-adv-x="372" 
d="M352 216v-14q-59 -3 -79 -33t-20 -92v-145q0 -84 -16.5 -124.5t-68.5 -60t-160 -19.5v17q55 0 73.5 27t18.5 100v186q0 73 20.5 106t78.5 45q-58 12 -78.5 45t-20.5 106v186q0 73 -18.5 100t-73.5 27v17q108 0 160 -19.5t68.5 -59.5t16.5 -124v-146q0 -62 20 -92t79 -33z
" />
    <glyph glyph-name="asciitilde" unicode="~" horiz-adv-x="684" 
d="M81 265l-18 4q13 93 53 139t126 46q63 0 135.5 -36.5t123.5 -36.5q81 0 101 63l18 -4q-12 -94 -51.5 -139.5t-126.5 -45.5q-63 0 -135.5 36.5t-124.5 36.5q-80 0 -101 -63z" />
    <glyph glyph-name="nbspace" unicode="&#xa0;" horiz-adv-x="118" 
 />
    <glyph glyph-name="exclamdown" unicode="&#xa1;" horiz-adv-x="394" 
d="M187 465h19q0 -63 16 -122t34.5 -95.5t34.5 -80t16 -79.5q0 -52 -29 -82t-81 -30t-81.5 30t-29.5 82q0 44 25 99.5t50.5 126.5t25.5 151zM100 614q0 42 28.5 69t68.5 27t68 -27t28 -69t-28 -69t-68 -27t-68.5 27t-28.5 69z" />
    <glyph glyph-name="cent" unicode="&#xa2;" horiz-adv-x="488" 
d="M275 75v70q-95 1 -167 53.5t-72 147.5q0 90 67 146t170 56h2v64l16 5v-69q75 -4 117.5 -39t42.5 -78q0 -26 -17 -43t-44 -17q-25 0 -43.5 16t-18.5 43q0 25 15 40.5t37 17.5q-23 42 -89 45v-363h1q77 0 109 41.5t34 125.5h17q0 -185 -161 -192v-65zM214 221q0 -47 61 -51
v363q-34 -1 -47 -14.5t-14 -37.5q-1 -19 -1 -134q0 -13 0.5 -59.5t0.5 -66.5z" />
    <glyph glyph-name="sterling" unicode="&#xa3;" horiz-adv-x="701" 
d="M47 303v26h96q-61 72 -61 163q0 60 24.5 104.5t67.5 68.5t94.5 35.5t113.5 11.5q114 0 185 -40.5t71 -133.5q0 -63 -30 -96.5t-83 -33.5q-47 0 -76.5 27.5t-29.5 74.5q0 41 27.5 68t70.5 27q44 0 70 -31h2q-6 57 -48 86.5t-103 29.5q-70 0 -108 -44.5t-38 -131.5
q0 -39 7 -69t21 -65.5t19 -50.5h137v-26h-130q8 -35 8 -75q0 -19 -2 -39q4 -2 20 -9.5t21 -10t19 -8.5t22 -8t21 -5.5t25.5 -4.5t26.5 -1q60 0 88.5 27.5t33.5 86.5h15q11 -52 11 -99q0 -84 -42 -131.5t-141 -47.5q-101 0 -184 62q-53 -50 -143 -50q-63 0 -103.5 27
t-40.5 85q0 56 44 92t138 36q29 0 51 -3q-14 20 -68 76h-119zM60 65q0 -28 23 -44.5t63 -16.5q83 0 110 61q-67 52 -125 52q-71 0 -71 -52z" />
    <glyph glyph-name="yen" unicode="&#xa5;" horiz-adv-x="778" 
d="M30 399v17h173l-117 256h-79v18h421v-18h-90l157 -354q72 149 94.5 205.5t22.5 87.5q0 32 -19.5 47t-65.5 16v16h238v-16q-51 -6 -79.5 -31.5t-63.5 -99.5l-61 -127h177v-17h-185l-46 -96v-12h231v-17h-231v-257h92v-17h-426v17h92v257h-235v17h229l-49 108h-180z" />
    <glyph glyph-name="brokenbar" unicode="&#xa6;" 
d="M140 160h220v-430h-220v430zM140 260v430h220v-430h-220z" />
    <glyph glyph-name="section" unicode="&#xa7;" horiz-adv-x="626" 
d="M68 -40q0 33 20 55t55 22t55.5 -20.5t20.5 -52.5q0 -30 -19 -50t-53 -21q41 -69 153 -69q70 0 107 27.5t37 78.5q0 44 -33.5 65t-150.5 61q-57 20 -90.5 35t-65 40.5t-45 61.5t-13.5 87q0 151 109 216q-78 55 -78 163q0 115 67.5 168.5t172.5 53.5t173 -45.5t68 -107.5
q0 -33 -20 -55t-55 -22t-55.5 20.5t-20.5 52.5q0 30 19 50t53 21q-41 69 -153 69q-70 0 -107 -27.5t-37 -78.5q0 -44 33.5 -65t150.5 -61q57 -20 90.5 -35t65 -40.5t45 -61.5t13.5 -87q0 -149 -109 -217q78 -54 78 -162q0 -115 -67.5 -168.5t-172.5 -53.5t-173 45.5
t-68 107.5zM305 430q-95 32 -134 55q-47 -31 -47 -89q0 -47 38.5 -72t158.5 -66q93 -32 134 -56q47 34 47 90q0 47 -38.5 72t-158.5 66z" />
    <glyph glyph-name="dieresis" unicode="&#xa8;" 
d="M141 496q-31 0 -51.5 19t-20.5 51t21 52.5t51 20.5q32 0 53 -20t21 -52q0 -31 -21.5 -51t-52.5 -20zM358 496q-31 0 -52 20t-21 51q0 32 21 52t52 20t52 -20t21 -52q0 -31 -21 -51t-52 -20z" />
    <glyph glyph-name="copyright" unicode="&#xa9;" horiz-adv-x="856" 
d="M221 343q0 91 65.5 146t159.5 55q72 0 122 -31.5t50 -81.5q0 -29 -16.5 -45t-43.5 -16t-45 15t-18 43q0 25 15.5 41t37.5 18q-26 41 -86 41q-37 0 -50.5 -11.5t-13.5 -38.5q0 -8 -0.5 -61t-0.5 -72q0 -16 0.5 -66t0.5 -59q0 -29 16.5 -40.5t54.5 -11.5q71 0 103.5 41
t33.5 126h16q0 -189 -168 -189q-93 0 -163 51.5t-70 145.5zM56 345q0 156 108 261.5t264 105.5t264 -105.5t108 -261.5t-108 -261.5t-264 -105.5t-264 105.5t-108 261.5zM74 345q0 -148 103 -249.5t251 -101.5t251 101.5t103 249.5t-103 249.5t-251 101.5t-251 -101.5
t-103 -249.5z" />
    <glyph glyph-name="ordfeminine" unicode="&#xaa;" horiz-adv-x="327" 
d="M110 447q-97 0 -97 68q0 36 35.5 55.5t121.5 21.5v21q0 40 -12 54.5t-35 14.5q-51 0 -65 -37q6 6 17 6q23 0 23 -25q0 -28 -32 -28q-34 0 -34 33q0 64 122 64q64 0 91.5 -20t27.5 -64v-122q0 -17 12 -17q19 0 19 35v13h12v-18q0 -53 -64 -53q-30 0 -45.5 10.5t-23.5 33.5
q-9 -46 -73 -46zM142 467q28 0 28 36v78q-31 -1 -42.5 -15t-11.5 -50q0 -29 6.5 -39t19.5 -10z" />
    <glyph glyph-name="guillemotleft" unicode="&#xab;" horiz-adv-x="524" 
d="M34 207v16q136 61 217 173l15 -9q-57 -92 -79 -172q22 -80 79 -172l-15 -9q-81 112 -217 173zM258 207v16q136 61 217 173l15 -9q-57 -92 -79 -172q22 -80 79 -172l-15 -9q-81 112 -217 173z" />
    <glyph glyph-name="registered" unicode="&#xae;" horiz-adv-x="474" 
d="M121 410v12h27v170h-27v12h143q69 0 69 -47q0 -45 -69 -50v-2q39 -2 53 -10.5t14 -37.5q0 -18 3 -23t10 -5q11 0 11 36h12q0 -37 -10.5 -49t-39.5 -12t-41.5 13t-12.5 47q0 21 -9 28.5t-31 7.5v-78h24v-12h-126zM237 296q-88 0 -149.5 60t-61.5 148t61.5 148t149.5 60
t149.5 -60t61.5 -148t-61.5 -148t-149.5 -60zM237 312q82 0 138 55.5t56 136.5t-56 136.5t-138 55.5t-138 -55.5t-56 -136.5t56 -136.5t138 -55.5zM223 512h11q18 0 23.5 8t5.5 34q0 24 -5.5 31t-23.5 7h-11v-80z" />
    <glyph glyph-name="macron" unicode="&#xaf;" 
d="M93 499v50h314v-50h-314z" />
    <glyph glyph-name="degree" unicode="&#xb0;" horiz-adv-x="359" 
d="M180 464q-51 0 -87 34.5t-36 89.5t36 89.5t87 34.5t87 -34.5t36 -89.5t-36 -89.5t-87 -34.5zM180 491q39 0 66 26.5t27 70.5t-27 70.5t-66 26.5t-66.5 -26.5t-27.5 -70.5t27.5 -70.5t66.5 -26.5z" />
    <glyph glyph-name="plusminus" unicode="&#xb1;" horiz-adv-x="679" 
d="M70 341v36h256v257h38v-257h256v-36h-256v-257h-38v257h-256zM70 0v35h550v-35h-550z" />
    <glyph glyph-name="twosuperior" unicode="&#xb2;" horiz-adv-x="399" 
d="M44 362q-27 0 -27 37q0 30 21.5 57.5t52 49.5t61 44.5t52 53t21.5 64.5q0 38 -23 62t-61 24q-34 0 -59 -15.5t-25 -43.5q0 -17 11 -21q5 35 45 35q50 0 50 -56q0 -60 -60 -60q-32 0 -53.5 19t-21.5 59q0 101 171 101q175 0 175 -130q0 -41 -17.5 -60t-48.5 -23t-65 -6
t-75 -16.5t-72 -46.5l2 -2q45 39 107 39q35 0 68 -21.5t51 -21.5q45 0 45 61h11q0 -91 -29.5 -131.5t-91.5 -40.5q-39 0 -67 15t-40.5 32.5t-29 32.5t-35.5 15t-29.5 -11.5t-10.5 -26.5q0 -12 9 -26t9 -22q0 -20 -21 -20z" />
    <glyph glyph-name="threesuperior" unicode="&#xb3;" horiz-adv-x="396" 
d="M191 368q-74 0 -120.5 25t-46.5 78q0 37 22 56t54 19q28 0 45.5 -17.5t17.5 -43.5q0 -27 -17 -44t-41 -17q-36 0 -50 28h-1q11 -64 87 -64q41 0 64.5 20t23.5 75q0 52 -22 70.5t-72 18.5v13q50 0 70 19.5t20 67.5q0 43 -17 63t-59 20q-74 0 -83 -56h1q14 23 44 23
q23 0 35.5 -14.5t12.5 -38.5q0 -22 -13.5 -37t-40.5 -15q-30 0 -50.5 17.5t-20.5 49.5q0 88 157 88q32 0 61.5 -5t57 -16t44 -32.5t16.5 -51.5q0 -79 -113 -87v-4q120 -7 120 -92q0 -60 -54 -88t-132 -28z" />
    <glyph glyph-name="acute" unicode="&#xb4;" 
d="M165 493l-7 10q108 138 150 168q24 18 46 18t38.5 -19t16.5 -41q0 -29 -34 -53q-38 -27 -210 -83z" />
    <glyph glyph-name="paragraph" unicode="&#xb6;" horiz-adv-x="631" 
d="M344 -124v437h-48q-30 0 -59.5 4t-65 17.5t-62 34.5t-44.5 58t-18 85q0 95 64.5 136.5t188.5 41.5h312v-18h-87v-656q0 -76 -22.5 -130t-61 -82t-79.5 -40t-89 -12q-87 0 -135 34.5t-48 87.5q0 38 24.5 61.5t63.5 23.5q35 0 58 -20.5t23 -59.5q0 -40 -23.5 -61t-62.5 -21
q30 -27 78 -27q46 0 69.5 23.5t23.5 82.5zM362 -114q0 -90 -51 -116l1 -2q194 35 194 238v666h-144v-786z" />
    <glyph glyph-name="periodcentered" unicode="&#xb7;" horiz-adv-x="390" 
d="M88 352q0 47 33.5 73.5t73.5 26.5t73 -26.5t33 -73.5t-33 -73.5t-73 -26.5t-73.5 26.5t-33.5 73.5z" />
    <glyph glyph-name="cedilla" unicode="&#xb8;" 
d="M153 -145q0 17 10 28t28 11q16 0 24.5 -10t8.5 -24q0 -32 -31 -34q17 -28 55 -28q25 0 41 15.5t16 41.5q0 29 -17 45t-47 16v84h18v-44q127 -2 127 -87q0 -88 -124 -88q-45 0 -77 19.5t-32 54.5z" />
    <glyph glyph-name="onesuperior" unicode="&#xb9;" horiz-adv-x="313" 
d="M25 380v13h58v334h-58v13q118 0 177 25h29v-372h59v-13h-265z" />
    <glyph glyph-name="ordmasculine" unicode="&#xba;" horiz-adv-x="337" 
d="M169 448q-55 0 -97 32.5t-42 91.5t42 91.5t97 32.5q54 0 96 -32.5t42 -91.5t-42 -91.5t-96 -32.5zM169 462q24 0 30 19t6 91t-6 91t-30 19q-25 0 -31 -19t-6 -91t6 -91t31 -19z" />
    <glyph glyph-name="guillemotright" unicode="&#xbb;" horiz-adv-x="524" 
d="M266 223v-16q-136 -61 -217 -173l-15 9q57 92 79 172q-22 80 -79 172l15 9q81 -112 217 -173zM490 223v-16q-136 -61 -217 -173l-15 9q57 92 79 172q-22 80 -79 172l15 9q81 -112 217 -173z" />
    <glyph glyph-name="onequarter" unicode="&#xbc;" horiz-adv-x="827" 
d="M523 0v13h61v80q-28 -4 -56 -4q-58 0 -90 19v12q46 43 90.5 116t64.5 141l149 9l1 -1q-82 -160 -281 -266v-4q19 -8 56 -8q34 0 66 9v34q34 18 72 50t59 63h10v-106q7 1 16 1q34 0 57 -13l-25 -56q-19 12 -48 13v-89h59v-13h-261zM52 311v13h58v334h-58v13q118 0 177 25
h29v-372h59v-13h-265zM683 718l-515 -762l-22 16l515 762z" />
    <glyph glyph-name="onehalf" unicode="&#xbd;" horiz-adv-x="917" 
d="M520 -18q-27 0 -27 37q0 30 21.5 57.5t52 49.5t61 44.5t52 53t21.5 64.5q0 38 -23 62t-61 24q-34 0 -59 -15.5t-25 -43.5q0 -17 11 -21q5 35 45 35q50 0 50 -56q0 -60 -60 -60q-32 0 -53.5 19t-21.5 59q0 101 171 101q175 0 175 -130q0 -41 -17.5 -60t-48.5 -23t-65 -6
t-75 -16.5t-72 -46.5l2 -2q45 39 107 39q35 0 68 -21.5t51 -21.5q45 0 45 61h11q0 -91 -29.5 -131.5t-91.5 -40.5q-39 0 -67 15t-40.5 32.5t-29 32.5t-35.5 15t-29.5 -11.5t-10.5 -26.5q0 -12 9 -26t9 -22q0 -20 -21 -20zM52 311v13h58v334h-58v13q118 0 177 25h29v-372h59
v-13h-265zM680 718l-515 -762l-22 16l515 762z" />
    <glyph glyph-name="threequarters" unicode="&#xbe;" horiz-adv-x="898" 
d="M211 293q-74 0 -120.5 25t-46.5 78q0 37 22 56t54 19q28 0 45.5 -17.5t17.5 -43.5q0 -27 -17 -44t-41 -17q-36 0 -50 28h-1q11 -64 87 -64q41 0 64.5 20t23.5 75q0 52 -22 70.5t-72 18.5v13q50 0 70 19.5t20 67.5q0 43 -17 63t-59 20q-74 0 -83 -56h1q14 23 44 23
q23 0 35.5 -14.5t12.5 -38.5q0 -22 -13.5 -37t-40.5 -15q-30 0 -50.5 17.5t-20.5 49.5q0 88 157 88q32 0 61.5 -5t57 -16t44 -32.5t16.5 -51.5q0 -79 -113 -87v-4q120 -7 120 -92q0 -60 -54 -88t-132 -28zM595 0v13h61v80q-28 -4 -56 -4q-58 0 -90 19v12q46 43 90.5 116
t64.5 141l149 9l1 -1q-82 -160 -281 -266v-4q19 -8 56 -8q34 0 66 9v34q34 18 72 50t59 63h10v-106q7 1 16 1q34 0 57 -13l-25 -56q-19 12 -48 13v-89h59v-13h-261zM753 718l-515 -762l-22 16l515 762z" />
    <glyph glyph-name="questiondown" unicode="&#xbf;" horiz-adv-x="492" 
d="M239 492q112 0 112 -113q0 -54 -27.5 -109.5t-55 -105.5t-27.5 -90q0 -55 45 -55q52 0 92 62.5t46 160.5h17q-7 -123 -64.5 -194t-163.5 -71q-152 0 -152 147q0 59 26.5 114.5t57.5 88.5t57.5 64.5t26.5 48.5q0 22 -26 22q-41 0 -82 -69l-14 9q29 52 60.5 71t71.5 19z
M359 617q0 -42 -28.5 -69t-68.5 -27t-68 27t-28 69t28 69t68 27t68.5 -27t28.5 -69z" />
    <glyph glyph-name="Agrave" unicode="&#xc0;" horiz-adv-x="797" 
d="M0 0v16q67 18 92 43t56 109l196 523h130l243 -674h80v-17h-450v17h115l-57 173h-228q-26 -79 -26 -107q0 -30 23.5 -47.5t62.5 -19.5v-16h-237zM298 518q-83 -219 -114 -309h215zM507 764q-177 59 -224 92q-33 23 -33 50q0 23 17.5 42.5t40.5 19.5q21 0 45 -17
q55 -38 161 -177z" />
    <glyph glyph-name="Aacute" unicode="&#xc1;" horiz-adv-x="797" 
d="M0 0v16q67 18 92 43t56 109l196 523h130l243 -674h80v-17h-450v17h115l-57 173h-228q-26 -79 -26 -107q0 -30 23.5 -47.5t62.5 -19.5v-16h-237zM298 518q-83 -219 -114 -309h215zM311 764l-7 10q106 139 161 177q24 17 45 17q23 0 40.5 -19.5t17.5 -42.5q0 -27 -33 -50
q-46 -33 -224 -92z" />
    <glyph glyph-name="Acircumflex" unicode="&#xc2;" horiz-adv-x="797" 
d="M0 0v16q67 18 92 43t56 109l196 523h130l243 -674h80v-17h-450v17h115l-57 173h-228q-26 -79 -26 -107q0 -30 23.5 -47.5t62.5 -19.5v-16h-237zM298 518q-83 -219 -114 -309h215zM248 766l-11 13l149 169h46l149 -169l-11 -13l-161 89z" />
    <glyph glyph-name="Atilde" unicode="&#xc3;" horiz-adv-x="797" 
d="M0 0v16q67 18 92 43t56 109l196 523h130l243 -674h80v-17h-450v17h115l-57 173h-228q-26 -79 -26 -107q0 -30 23.5 -47.5t62.5 -19.5v-16h-237zM298 518q-83 -219 -114 -309h215zM230 758l-14 8q34 77 65.5 104.5t70.5 27.5q29 0 78 -17t79 -17q45 0 79 44l14 -8
q-34 -77 -65.5 -105t-70.5 -28q-29 0 -77.5 17t-79.5 17q-23 0 -40 -8.5t-39 -34.5z" />
    <glyph glyph-name="Adieresis" unicode="&#xc4;" horiz-adv-x="797" 
d="M0 0v16q67 18 92 43t56 109l196 523h130l243 -674h80v-17h-450v17h115l-57 173h-228q-26 -79 -26 -107q0 -30 23.5 -47.5t62.5 -19.5v-16h-237zM298 518q-83 -219 -114 -309h215zM286 770q-32 0 -54 21t-22 54t22 54.5t54 21.5t54 -21.5t22 -54.5t-22 -54t-54 -21z
M530 770q-31 0 -53 21.5t-22 53.5q0 33 22 54.5t53 21.5q32 0 54 -21.5t22 -54.5t-22 -54t-54 -21z" />
    <glyph glyph-name="Aring" unicode="&#xc5;" horiz-adv-x="797" 
d="M0 0v16q67 18 92 43t56 109l196 522q-31 28 -31 73q0 42 27.5 69t68.5 27t68.5 -27t27.5 -69q0 -45 -31 -73l243 -673h80v-17h-450v17h115l-57 173h-228q-26 -79 -26 -107q0 -30 23.5 -47.5t62.5 -19.5v-16h-237zM409 690q31 0 51 20.5t20 52.5q0 31 -20 51.5t-51 20.5
t-51 -20.5t-20 -51.5q0 -32 20 -52.5t51 -20.5zM298 518q-83 -219 -114 -309h215z" />
    <glyph glyph-name="AE" unicode="&#xc6;" horiz-adv-x="1205" 
d="M-11 0v16q56 26 82 51.5t81 107.5l335 498h-87v17h723v-261h-13l-186 244h-184v-318h33q45 0 73.5 9.5t43.5 32.5t21 45.5t11 64.5h15v-327h-15q-5 41 -11 64t-21 47.5t-43.5 35.5t-73.5 11h-33v-321h184l206 303h13v-320h-727v17h92v321h-224l-54 -81
q-51 -75 -67.5 -109t-16.5 -57q0 -68 108 -75v-16h-265zM507 672l-212 -317h213v317h-1z" />
    <glyph glyph-name="Ccedilla" unicode="&#xc7;" horiz-adv-x="779" 
d="M315 80q1 -50 21 -67t73 -17q271 0 307 311h16q-7 -66 -26 -120.5t-54.5 -103.5t-97.5 -77t-145 -28h-17v-50q71 -1 106 -23.5t35 -72.5q0 -97 -130 -97q-50 0 -85 20t-35 57q0 16 9.5 27t26.5 11q33 0 33 -34q0 -31 -33 -33q18 -32 61 -32q29 0 46 18t17 52q0 63 -65 63
v94q-153 10 -249.5 113t-96.5 252q0 157 104.5 263t256.5 106q133 0 220 -102l108 97h12v-314l-14 -2q-25 63 -50.5 110.5t-63.5 94.5t-90.5 72.5t-116.5 25.5q-45 0 -63.5 -18t-19.5 -68q-2 -102 -2 -263q0 -159 2 -265z" />
    <glyph glyph-name="Egrave" unicode="&#xc8;" horiz-adv-x="812" 
d="M495 764q-177 59 -224 92q-33 23 -33 50q0 23 17.5 42.5t40.5 19.5q21 0 45 -17q55 -38 161 -177zM20 0v17h85v655h-85v18h710v-261h-12l-186 244h-184v-318h33q45 0 73.5 9.5t43.5 32.5t20.5 45.5t10.5 64.5h15v-327h-15q-5 41 -10.5 64t-20.5 47.5t-43.5 35.5t-73.5 11
h-33v-321h184l206 303h12v-320h-730z" />
    <glyph glyph-name="Eacute" unicode="&#xc9;" horiz-adv-x="812" 
d="M20 0v17h85v655h-85v18h710v-261h-12l-186 244h-184v-318h33q45 0 73.5 9.5t43.5 32.5t20.5 45.5t10.5 64.5h15v-327h-15q-5 41 -10.5 64t-20.5 47.5t-43.5 35.5t-73.5 11h-33v-321h184l206 303h12v-320h-730zM299 764l-7 10q106 139 161 177q24 17 45 17
q23 0 40.5 -19.5t17.5 -42.5q0 -27 -33 -50q-46 -33 -224 -92z" />
    <glyph glyph-name="Ecircumflex" unicode="&#xca;" horiz-adv-x="812" 
d="M236 766l-11 13l149 169h46l149 -169l-11 -13l-161 89zM20 0v17h85v655h-85v18h710v-261h-12l-186 244h-184v-318h33q45 0 73.5 9.5t43.5 32.5t20.5 45.5t10.5 64.5h15v-327h-15q-5 41 -10.5 64t-20.5 47.5t-43.5 35.5t-73.5 11h-33v-321h184l206 303h12v-320h-730z" />
    <glyph glyph-name="Edieresis" unicode="&#xcb;" horiz-adv-x="812" 
d="M20 0v17h85v655h-85v18h710v-261h-12l-186 244h-184v-318h33q45 0 73.5 9.5t43.5 32.5t20.5 45.5t10.5 64.5h15v-327h-15q-5 41 -10.5 64t-20.5 47.5t-43.5 35.5t-73.5 11h-33v-321h184l206 303h12v-320h-730zM274 770q-32 0 -54 21t-22 54t22 54.5t54 21.5t54 -21.5
t22 -54.5t-22 -54t-54 -21zM518 770q-31 0 -53 21.5t-22 53.5q0 33 22 54.5t53 21.5q32 0 54 -21.5t22 -54.5t-22 -54t-54 -21z" />
    <glyph glyph-name="Igrave" unicode="&#xcc;" horiz-adv-x="464" 
d="M20 0v17h85v655h-85v18h424v-18h-84v-655h84v-17h-424zM330 764q-177 59 -224 92q-33 23 -33 50q0 23 17.5 42.5t40.5 19.5q21 0 45 -17q55 -38 161 -177z" />
    <glyph glyph-name="Iacute" unicode="&#xcd;" horiz-adv-x="464" 
d="M20 0v17h85v655h-85v18h424v-18h-84v-655h84v-17h-424zM134 764l-7 10q106 139 161 177q24 17 45 17q23 0 40.5 -19.5t17.5 -42.5q0 -27 -33 -50q-46 -33 -224 -92z" />
    <glyph glyph-name="Icircumflex" unicode="&#xce;" horiz-adv-x="464" 
d="M20 0v17h85v655h-85v18h424v-18h-84v-655h84v-17h-424zM71 766l-11 13l149 169h46l149 -169l-11 -13l-161 89z" />
    <glyph glyph-name="Idieresis" unicode="&#xcf;" horiz-adv-x="464" 
d="M20 0v17h85v655h-85v18h424v-18h-84v-655h84v-17h-424zM109 770q-32 0 -54 21t-22 54t22 54.5t54 21.5t54 -21.5t22 -54.5t-22 -54t-54 -21zM353 770q-31 0 -53 21.5t-22 53.5q0 33 22 54.5t53 21.5q32 0 54 -21.5t22 -54.5t-22 -54t-54 -21z" />
    <glyph glyph-name="Eth" unicode="&#xd0;" horiz-adv-x="851" 
d="M348 17h70q68 0 90.5 21t25.5 79q2 42 2 228q0 187 -2 228q-3 58 -25.5 79t-90.5 21h-70v-318h103v-20h-103v-318zM20 335v20h85v318h-85v17h430q172 0 270.5 -89t98.5 -254q0 -158 -96 -252.5t-269 -94.5h-434v17h85v318h-85z" />
    <glyph glyph-name="Ntilde" unicode="&#xd1;" horiz-adv-x="747" 
d="M197 758l-14 8q34 77 65.5 104.5t70.5 27.5q29 0 78 -17t79 -17q45 0 79 44l14 -8q-34 -77 -65.5 -105t-70.5 -28q-29 0 -77.5 17t-79.5 17q-23 0 -40 -8.5t-39 -34.5zM18 0v18h7q46 0 62 18.5t16 68.5v567h-85v18h294l317 -540v435q0 50 -16 68.5t-63 18.5h-7v18h190
v-18h-6q-47 0 -63 -18.5t-16 -68.5v-585h-201l-325 554v-449q0 -50 16 -68.5t63 -18.5h7v-18h-190z" />
    <glyph glyph-name="Ograve" unicode="&#xd2;" horiz-adv-x="811" 
d="M504 764q-177 59 -224 92q-33 23 -33 50q0 23 17.5 42.5t40.5 19.5q21 0 45 -17q55 -38 161 -177zM313 345q0 -212 2 -265q1 -49 21 -67t70 -18t69 18t21 67q2 53 2 265t-2 265q-1 49 -20.5 66.5t-69.5 17.5q-51 0 -70.5 -18t-20.5 -66q-2 -53 -2 -265zM32 345
q0 157 105 262t269 105q163 0 268 -105t105 -262t-105 -262t-268 -105q-164 0 -269 105t-105 262z" />
    <glyph glyph-name="Oacute" unicode="&#xd3;" horiz-adv-x="811" 
d="M308 764l-7 10q106 139 161 177q24 17 45 17q23 0 40.5 -19.5t17.5 -42.5q0 -27 -33 -50q-46 -33 -224 -92zM313 345q0 -212 2 -265q1 -49 21 -67t70 -18t69 18t21 67q2 53 2 265t-2 265q-1 49 -20.5 66.5t-69.5 17.5q-51 0 -70.5 -18t-20.5 -66q-2 -53 -2 -265zM32 345
q0 157 105 262t269 105q163 0 268 -105t105 -262t-105 -262t-268 -105q-164 0 -269 105t-105 262z" />
    <glyph glyph-name="Ocircumflex" unicode="&#xd4;" horiz-adv-x="811" 
d="M245 766l-11 13l149 169h46l149 -169l-11 -13l-161 89zM313 345q0 -212 2 -265q1 -49 21 -67t70 -18t69 18t21 67q2 53 2 265t-2 265q-1 49 -20.5 66.5t-69.5 17.5q-51 0 -70.5 -18t-20.5 -66q-2 -53 -2 -265zM32 345q0 157 105 262t269 105q163 0 268 -105t105 -262
t-105 -262t-268 -105q-164 0 -269 105t-105 262z" />
    <glyph glyph-name="Otilde" unicode="&#xd5;" horiz-adv-x="811" 
d="M313 345q0 -212 2 -265q1 -49 21 -67t70 -18t69 18t21 67q2 53 2 265t-2 265q-1 49 -20.5 66.5t-69.5 17.5q-51 0 -70.5 -18t-20.5 -66q-2 -53 -2 -265zM32 345q0 157 105 262t269 105q163 0 268 -105t105 -262t-105 -262t-268 -105q-164 0 -269 105t-105 262zM227 758
l-14 8q34 77 65.5 104.5t70.5 27.5q29 0 78 -17t79 -17q45 0 79 44l14 -8q-34 -77 -65.5 -105t-70.5 -28q-29 0 -77.5 17t-79.5 17q-23 0 -40 -8.5t-39 -34.5z" />
    <glyph glyph-name="Odieresis" unicode="&#xd6;" horiz-adv-x="811" 
d="M313 345q0 -212 2 -265q1 -49 21 -67t70 -18t69 18t21 67q2 53 2 265t-2 265q-1 49 -20.5 66.5t-69.5 17.5q-51 0 -70.5 -18t-20.5 -66q-2 -53 -2 -265zM32 345q0 157 105 262t269 105q163 0 268 -105t105 -262t-105 -262t-268 -105q-164 0 -269 105t-105 262zM283 770
q-32 0 -54 21t-22 54t22 54.5t54 21.5t54 -21.5t22 -54.5t-22 -54t-54 -21zM527 770q-31 0 -53 21.5t-22 53.5q0 33 22 54.5t53 21.5q32 0 54 -21.5t22 -54.5t-22 -54t-54 -21z" />
    <glyph glyph-name="multiply" unicode="&#xd7;" horiz-adv-x="576" 
d="M92 159l-23 27l192 160l-192 161l23 27l196 -165l197 165l23 -27l-192 -161l192 -160l-23 -27l-197 164z" />
    <glyph glyph-name="Oslash" unicode="&#xd8;" horiz-adv-x="811" 
d="M32 345q0 157 105 262t269 105q123 0 216 -63l47 63h24l-54 -75q66 -50 103 -126t37 -166q0 -157 -105 -262t-268 -105q-125 0 -220 65l-48 -65h-24l56 76q-66 50 -102 125.5t-36 165.5zM496 80q2 53 2 265v118l-185 -264q0 -71 2 -119q1 -49 21 -67t70 -18t69 18t21 67z
M313 345v-112l185 264q0 19 -0.5 59.5t-1.5 53.5q-1 49 -20.5 66.5t-69.5 17.5q-51 0 -70.5 -18t-20.5 -66q-2 -53 -2 -265z" />
    <glyph glyph-name="Ugrave" unicode="&#xd9;" horiz-adv-x="725" 
d="M579 764q-177 59 -224 92q-33 23 -33 50q0 23 17.5 42.5t40.5 19.5q21 0 45 -17q55 -38 161 -177zM99 238q0 269 1 434h-85v18h420v-18h-82v-517q0 -69 23 -104t88 -35q39 0 67 14t43.5 35t24.5 54.5t11.5 63.5t2.5 71v331q0 50 -16 68.5t-63 18.5h-6v18h189v-18h-7
q-46 0 -62 -18.5t-16 -68.5v-330q0 -153 -50.5 -215t-197.5 -62q-137 0 -211 58t-74 202z" />
    <glyph glyph-name="Uacute" unicode="&#xda;" horiz-adv-x="725" 
d="M99 238q0 269 1 434h-85v18h420v-18h-82v-517q0 -69 23 -104t88 -35q39 0 67 14t43.5 35t24.5 54.5t11.5 63.5t2.5 71v331q0 50 -16 68.5t-63 18.5h-6v18h189v-18h-7q-46 0 -62 -18.5t-16 -68.5v-330q0 -153 -50.5 -215t-197.5 -62q-137 0 -211 58t-74 202zM383 764
l-7 10q106 139 161 177q24 17 45 17q23 0 40.5 -19.5t17.5 -42.5q0 -27 -33 -50q-46 -33 -224 -92z" />
    <glyph glyph-name="Ucircumflex" unicode="&#xdb;" horiz-adv-x="725" 
d="M320 766l-11 13l149 169h46l149 -169l-11 -13l-161 89zM99 238q0 269 1 434h-85v18h420v-18h-82v-517q0 -69 23 -104t88 -35q39 0 67 14t43.5 35t24.5 54.5t11.5 63.5t2.5 71v331q0 50 -16 68.5t-63 18.5h-6v18h189v-18h-7q-46 0 -62 -18.5t-16 -68.5v-330
q0 -153 -50.5 -215t-197.5 -62q-137 0 -211 58t-74 202z" />
    <glyph glyph-name="Udieresis" unicode="&#xdc;" horiz-adv-x="725" 
d="M99 238q0 269 1 434h-85v18h420v-18h-82v-517q0 -69 23 -104t88 -35q39 0 67 14t43.5 35t24.5 54.5t11.5 63.5t2.5 71v331q0 50 -16 68.5t-63 18.5h-6v18h189v-18h-7q-46 0 -62 -18.5t-16 -68.5v-330q0 -153 -50.5 -215t-197.5 -62q-137 0 -211 58t-74 202zM358 770
q-32 0 -54 21t-22 54t22 54.5t54 21.5t54 -21.5t22 -54.5t-22 -54t-54 -21zM602 770q-31 0 -53 21.5t-22 53.5q0 33 22 54.5t53 21.5q32 0 54 -21.5t22 -54.5t-22 -54t-54 -21z" />
    <glyph glyph-name="Yacute" unicode="&#xdd;" horiz-adv-x="762" 
d="M168 0v17h92v262l-179 393h-79v18h421v-18h-90l157 -354q72 149 94.5 205.5t22.5 87.5q0 32 -19.5 47t-65.5 16v16h238v-16q-51 -6 -79.5 -31.5t-63.5 -99.5l-115 -240v-286h92v-17h-426zM386 764l-7 10q106 139 161 177q24 17 45 17q23 0 40.5 -19.5t17.5 -42.5
q0 -27 -33 -50q-46 -33 -224 -92z" />
    <glyph glyph-name="Thorn" unicode="&#xde;" horiz-adv-x="769" 
d="M20 0v17h85v655h-85v18h414v-18h-86v-133h139q120 0 183 -41.5t63 -136.5q0 -48 -17.5 -85t-43 -58t-59.5 -34.5t-63 -17.5t-59 -4h-143v-145h90v-17h-418zM348 180h52q51 0 68 32.5t17 137.5t-17 138t-68 33h-52v-341z" />
    <glyph glyph-name="germandbls" unicode="&#xdf;" horiz-adv-x="594" 
d="M18 0v17h52v474q0 104 73.5 157.5t178.5 53.5q107 0 162.5 -46.5t55.5 -122.5q0 -113 -109 -151q70 -20 104 -69.5t34 -118.5q0 -89 -53 -144.5t-153 -55.5q-36 0 -57 6t-38 24l13 11q17 -22 48 -22q20 0 29.5 11.5t11.5 38.5q3 42 3 127q0 94 -2 118q-3 38 -16 51
t-50 13v18q38 0 50 11.5t15 47.5q3 25 3 88q0 77 -4 105q-4 23 -15 33t-35 10q-32 0 -47.5 -21.5t-15.5 -74.5v-589h-238z" />
    <glyph glyph-name="agrave" unicode="&#xe0;" horiz-adv-x="542" 
d="M20 112q0 130 279 139v96q0 41 -18 58t-60 17q-73 0 -99 -45v-1q31 -1 49 -17t18 -42q0 -27 -17 -45t-47 -18q-28 0 -48 18t-20 51q0 50 51 83.5t160 33.5q114 0 162.5 -37.5t48.5 -116.5v-235q0 -26 20 -26q38 0 38 65v7h16v-10q0 -53 -27.5 -73.5t-83.5 -20.5
q-99 0 -129 64q-7 -38 -34 -53.5t-78 -15.5q-80 0 -130.5 32.5t-50.5 91.5zM200 118q0 -60 11.5 -79.5t37.5 -19.5q50 0 50 62v155q-59 -1 -79 -25t-20 -93zM370 493q-172 56 -210 83q-34 24 -34 53q0 22 16.5 41t38.5 19t46 -18q43 -30 150 -168z" />
    <glyph glyph-name="aacute" unicode="&#xe1;" horiz-adv-x="542" 
d="M20 112q0 130 279 139v96q0 41 -18 58t-60 17q-73 0 -99 -45v-1q31 -1 49 -17t18 -42q0 -27 -17 -45t-47 -18q-28 0 -48 18t-20 51q0 50 51 83.5t160 33.5q114 0 162.5 -37.5t48.5 -116.5v-235q0 -26 20 -26q38 0 38 65v7h16v-10q0 -53 -27.5 -73.5t-83.5 -20.5
q-99 0 -129 64q-7 -38 -34 -53.5t-78 -15.5q-80 0 -130.5 32.5t-50.5 91.5zM200 118q0 -60 11.5 -79.5t37.5 -19.5q50 0 50 62v155q-59 -1 -79 -25t-20 -93zM200 493l-7 10q108 138 150 168q24 18 46 18t38.5 -19t16.5 -41q0 -29 -34 -53q-38 -27 -210 -83z" />
    <glyph glyph-name="acircumflex" unicode="&#xe2;" horiz-adv-x="542" 
d="M20 112q0 130 279 139v96q0 41 -18 58t-60 17q-73 0 -99 -45v-1q31 -1 49 -17t18 -42q0 -27 -17 -45t-47 -18q-28 0 -48 18t-20 51q0 50 51 83.5t160 33.5q114 0 162.5 -37.5t48.5 -116.5v-235q0 -26 20 -26q38 0 38 65v7h16v-10q0 -53 -27.5 -73.5t-83.5 -20.5
q-99 0 -129 64q-7 -38 -34 -53.5t-78 -15.5q-80 0 -130.5 32.5t-50.5 91.5zM200 118q0 -60 11.5 -79.5t37.5 -19.5q50 0 50 62v155q-59 -1 -79 -25t-20 -93zM141 493l-13 11l138 186h38l138 -186l-13 -11l-144 96z" />
    <glyph glyph-name="atilde" unicode="&#xe3;" horiz-adv-x="542" 
d="M20 112q0 130 279 139v96q0 41 -18 58t-60 17q-73 0 -99 -45v-1q31 -1 49 -17t18 -42q0 -27 -17 -45t-47 -18q-28 0 -48 18t-20 51q0 50 51 83.5t160 33.5q114 0 162.5 -37.5t48.5 -116.5v-235q0 -26 20 -26q38 0 38 65v7h16v-10q0 -53 -27.5 -73.5t-83.5 -20.5
q-99 0 -129 64q-7 -38 -34 -53.5t-78 -15.5q-80 0 -130.5 32.5t-50.5 91.5zM200 118q0 -60 11.5 -79.5t37.5 -19.5q50 0 50 62v155q-59 -1 -79 -25t-20 -93zM126 489l-14 8q30 69 58.5 93.5t63.5 24.5q26 0 69.5 -15.5t70.5 -15.5q21 0 36 8t34 32l14 -8q-30 -69 -59 -94
t-64 -25q-26 0 -68.5 15.5t-70.5 15.5q-20 0 -35.5 -8t-34.5 -31z" />
    <glyph glyph-name="adieresis" unicode="&#xe4;" horiz-adv-x="542" 
d="M20 112q0 130 279 139v96q0 41 -18 58t-60 17q-73 0 -99 -45v-1q31 -1 49 -17t18 -42q0 -27 -17 -45t-47 -18q-28 0 -48 18t-20 51q0 50 51 83.5t160 33.5q114 0 162.5 -37.5t48.5 -116.5v-235q0 -26 20 -26q38 0 38 65v7h16v-10q0 -53 -27.5 -73.5t-83.5 -20.5
q-99 0 -129 64q-7 -38 -34 -53.5t-78 -15.5q-80 0 -130.5 32.5t-50.5 91.5zM200 118q0 -60 11.5 -79.5t37.5 -19.5q50 0 50 62v155q-59 -1 -79 -25t-20 -93zM176 496q-31 0 -51.5 19t-20.5 51t21 52.5t51 20.5q32 0 53 -20t21 -52q0 -31 -21.5 -51t-52.5 -20zM393 496
q-31 0 -52 20t-21 51q0 32 21 52t52 20t52 -20t21 -52q0 -31 -21 -51t-52 -20z" />
    <glyph glyph-name="aring" unicode="&#xe5;" horiz-adv-x="542" 
d="M20 112q0 130 279 139v96q0 41 -18 58t-60 17q-73 0 -99 -45v-1q31 -1 49 -17t18 -42q0 -27 -17 -45t-47 -18q-28 0 -48 18t-20 51q0 50 51 83.5t160 33.5q114 0 162.5 -37.5t48.5 -116.5v-235q0 -26 20 -26q38 0 38 65v7h16v-10q0 -53 -27.5 -73.5t-83.5 -20.5
q-99 0 -129 64q-7 -38 -34 -53.5t-78 -15.5q-80 0 -130.5 32.5t-50.5 91.5zM200 118q0 -60 11.5 -79.5t37.5 -19.5q50 0 50 62v155q-59 -1 -79 -25t-20 -93zM285 496q-39 0 -65.5 26t-26.5 67t26.5 66.5t65.5 25.5t65.5 -25.5t26.5 -66.5t-26.5 -67t-65.5 -26zM285 520
q29 0 48 19.5t19 49.5q0 29 -19 49t-48 20t-48 -20t-19 -49q0 -30 19 -49.5t48 -19.5z" />
    <glyph glyph-name="ae" unicode="&#xe6;" horiz-adv-x="794" 
d="M20 107q0 133 279 134v106q0 41 -18 58t-60 17q-73 0 -99 -45v-1q31 -1 49 -17t18 -43q0 -26 -17 -44t-47 -18q-28 0 -48 18t-20 51q0 50 51 83.5t160 33.5q97 0 147 -29q62 31 132 31q102 0 162.5 -63.5t62.5 -153.5h-282q0 -89 9.5 -134t29 -60.5t58.5 -15.5
q76 0 120.5 41.5t45.5 112.5h17q0 -75 -54 -128t-165 -53q-130 0 -200 72q-53 -72 -149 -72q-80 0 -131 31t-51 88zM200 110q0 -59 11.5 -78.5t36.5 -19.5q51 0 51 60v153q-59 0 -79 -23.5t-20 -91.5zM490 242h111v87q0 56 -11 77t-44 21t-44.5 -21.5t-11.5 -77.5v-86z" />
    <glyph glyph-name="ccedilla" unicode="&#xe7;" horiz-adv-x="497" 
d="M152 -145q0 17 10 28t28 11q16 0 24.5 -10t8.5 -24q0 -32 -31 -34q17 -28 55 -28q25 0 41 15.5t16 41.5q0 29 -17 45t-47 16v75q-90 12 -152.5 69.5t-62.5 152.5q0 103 72 166t180 63q81 0 138 -37t57 -92q0 -34 -20 -52.5t-49 -18.5t-50 18.5t-21 49.5q0 28 18 46t49 20
q-29 49 -105 49q-41 0 -54.5 -14t-15.5 -47q-2 -26 -2 -146q0 -96 2 -129q2 -43 18.5 -59t58.5 -16q152 0 157 190h17q0 -43 -9 -79t-29.5 -68t-60 -50.5t-94.5 -18.5q-17 0 -24 1v-33q127 -2 127 -87q0 -88 -124 -88q-45 0 -77 19.5t-32 54.5z" />
    <glyph glyph-name="egrave" unicode="&#xe8;" horiz-adv-x="526" 
d="M25 211q0 76 40.5 130.5t96.5 77.5t118 23q102 0 163 -65t61 -156h-281q0 -127 20 -166.5t77 -39.5q75 0 119.5 41.5t46.5 112.5h16q0 -75 -54 -128t-165 -53q-114 0 -186 58.5t-72 164.5zM223 238h110v91q0 56 -11 77t-44 21t-44 -21.5t-11 -77.5v-90zM361 493
q-172 56 -210 83q-34 24 -34 53q0 22 16.5 41t38.5 19t46 -18q43 -30 150 -168z" />
    <glyph glyph-name="eacute" unicode="&#xe9;" horiz-adv-x="526" 
d="M191 493l-7 10q108 138 150 168q24 18 46 18t38.5 -19t16.5 -41q0 -29 -34 -53q-38 -27 -210 -83zM25 211q0 76 40.5 130.5t96.5 77.5t118 23q102 0 163 -65t61 -156h-281q0 -127 20 -166.5t77 -39.5q75 0 119.5 41.5t46.5 112.5h16q0 -75 -54 -128t-165 -53
q-114 0 -186 58.5t-72 164.5zM223 238h110v91q0 56 -11 77t-44 21t-44 -21.5t-11 -77.5v-90z" />
    <glyph glyph-name="ecircumflex" unicode="&#xea;" horiz-adv-x="526" 
d="M132 493l-13 11l138 186h38l138 -186l-13 -11l-144 96zM25 211q0 76 40.5 130.5t96.5 77.5t118 23q102 0 163 -65t61 -156h-281q0 -127 20 -166.5t77 -39.5q75 0 119.5 41.5t46.5 112.5h16q0 -75 -54 -128t-165 -53q-114 0 -186 58.5t-72 164.5zM223 238h110v91
q0 56 -11 77t-44 21t-44 -21.5t-11 -77.5v-90z" />
    <glyph glyph-name="edieresis" unicode="&#xeb;" horiz-adv-x="526" 
d="M167 496q-31 0 -51.5 19t-20.5 51t21 52.5t51 20.5q32 0 53 -20t21 -52q0 -31 -21.5 -51t-52.5 -20zM384 496q-31 0 -52 20t-21 51q0 32 21 52t52 20t52 -20t21 -52q0 -31 -21 -51t-52 -20zM25 211q0 76 40.5 130.5t96.5 77.5t118 23q102 0 163 -65t61 -156h-281
q0 -127 20 -166.5t77 -39.5q75 0 119.5 41.5t46.5 112.5h16q0 -75 -54 -128t-165 -53q-114 0 -186 58.5t-72 164.5zM223 238h110v91q0 56 -11 77t-44 21t-44 -21.5t-11 -77.5v-90z" />
    <glyph glyph-name="igrave" unicode="&#xec;" horiz-adv-x="329" 
d="M18 0v17h51v396h-51v17h242v-413h50v-17h-292zM249 493q-172 56 -210 83q-34 24 -34 53q0 22 16.5 41t38.5 19t46 -18q43 -30 150 -168z" />
    <glyph glyph-name="iacute" unicode="&#xed;" horiz-adv-x="329" 
d="M79 493l-7 10q108 138 150 168q24 18 46 18t38.5 -19t16.5 -41q0 -29 -34 -53q-38 -27 -210 -83zM18 0v17h51v396h-51v17h242v-413h50v-17h-292z" />
    <glyph glyph-name="icircumflex" unicode="&#xee;" horiz-adv-x="329" 
d="M20 493l-13 11l138 186h38l138 -186l-13 -11l-144 96zM18 0v17h51v396h-51v17h242v-413h50v-17h-292z" />
    <glyph glyph-name="idieresis" unicode="&#xef;" horiz-adv-x="329" 
d="M55 496q-31 0 -51.5 19t-20.5 51t21 52.5t51 20.5q32 0 53 -20t21 -52q0 -31 -21.5 -51t-52.5 -20zM272 496q-31 0 -52 20t-21 51q0 32 21 52t52 20t52 -20t21 -52q0 -31 -21 -51t-52 -20zM18 0v17h51v396h-51v17h242v-413h50v-17h-292z" />
    <glyph glyph-name="eth" unicode="&#xf0;" horiz-adv-x="555" 
d="M115 517l-7 16l160 68q-59 65 -161 85l3 17q123 -18 219 -76l103 44l7 -16l-92 -39q89 -60 136.5 -150.5t47.5 -199.5q0 -73 -22.5 -128.5t-59.5 -87t-80 -47t-90 -15.5q-62 0 -118 23.5t-96 77t-40 125.5q0 107 77 167.5t169 60.5q37 0 68 -12q-11 95 -59 157zM224 57
q1 -29 13.5 -40.5t40.5 -11.5t40.5 11.5t13.5 40.5q2 42 2 158t-2 158q-1 29 -13.5 40.5t-40.5 11.5t-40.5 -11.5t-13.5 -40.5q-2 -42 -2 -158t2 -158z" />
    <glyph glyph-name="ntilde" unicode="&#xf1;" horiz-adv-x="612" 
d="M18 0v17h51v396h-51v17h238v-71q28 81 137 81q77 0 118.5 -36.5t41.5 -95.5v-291h50v-17h-277v17h40v357q0 24 -4.5 32t-17.5 8q-36 0 -62 -34t-26 -91v-272h40v-17h-278zM152 489l-14 8q30 69 58.5 93.5t63.5 24.5q26 0 69.5 -15.5t70.5 -15.5q21 0 36 8t34 32l14 -8
q-30 -69 -59 -94t-64 -25q-26 0 -68.5 15.5t-70.5 15.5q-20 0 -35.5 -8t-34.5 -31z" />
    <glyph glyph-name="ograve" unicode="&#xf2;" horiz-adv-x="556" 
d="M224 57q1 -29 13.5 -40.5t40.5 -11.5t40.5 11.5t13.5 40.5q2 42 2 158t-2 158q-1 29 -13.5 40.5t-40.5 11.5t-40.5 -11.5t-13.5 -40.5q-2 -42 -2 -158t2 -158zM25 215q0 107 77.5 167t175.5 60t175.5 -60t77.5 -167t-77.5 -167t-175.5 -60t-175.5 60t-77.5 167zM363 493
q-172 56 -210 83q-34 24 -34 53q0 22 16.5 41t38.5 19t46 -18q43 -30 150 -168z" />
    <glyph glyph-name="oacute" unicode="&#xf3;" horiz-adv-x="556" 
d="M193 493l-7 10q108 138 150 168q24 18 46 18t38.5 -19t16.5 -41q0 -29 -34 -53q-38 -27 -210 -83zM224 57q1 -29 13.5 -40.5t40.5 -11.5t40.5 11.5t13.5 40.5q2 42 2 158t-2 158q-1 29 -13.5 40.5t-40.5 11.5t-40.5 -11.5t-13.5 -40.5q-2 -42 -2 -158t2 -158zM25 215
q0 107 77.5 167t175.5 60t175.5 -60t77.5 -167t-77.5 -167t-175.5 -60t-175.5 60t-77.5 167z" />
    <glyph glyph-name="ocircumflex" unicode="&#xf4;" horiz-adv-x="556" 
d="M134 493l-13 11l138 186h38l138 -186l-13 -11l-144 96zM224 57q1 -29 13.5 -40.5t40.5 -11.5t40.5 11.5t13.5 40.5q2 42 2 158t-2 158q-1 29 -13.5 40.5t-40.5 11.5t-40.5 -11.5t-13.5 -40.5q-2 -42 -2 -158t2 -158zM25 215q0 107 77.5 167t175.5 60t175.5 -60t77.5 -167
t-77.5 -167t-175.5 -60t-175.5 60t-77.5 167z" />
    <glyph glyph-name="otilde" unicode="&#xf5;" horiz-adv-x="556" 
d="M224 57q1 -29 13.5 -40.5t40.5 -11.5t40.5 11.5t13.5 40.5q2 42 2 158t-2 158q-1 29 -13.5 40.5t-40.5 11.5t-40.5 -11.5t-13.5 -40.5q-2 -42 -2 -158t2 -158zM25 215q0 107 77.5 167t175.5 60t175.5 -60t77.5 -167t-77.5 -167t-175.5 -60t-175.5 60t-77.5 167zM119 489
l-14 8q30 69 58.5 93.5t63.5 24.5q26 0 69.5 -15.5t70.5 -15.5q21 0 36 8t34 32l14 -8q-30 -69 -58.5 -94t-64.5 -25q-26 0 -68.5 15.5t-70.5 15.5q-20 0 -35.5 -8t-34.5 -31z" />
    <glyph glyph-name="odieresis" unicode="&#xf6;" horiz-adv-x="556" 
d="M169 496q-31 0 -51.5 19t-20.5 51t21 52.5t51 20.5q32 0 53 -20t21 -52q0 -31 -21.5 -51t-52.5 -20zM386 496q-31 0 -52 20t-21 51q0 32 21 52t52 20t52 -20t21 -52q0 -31 -21 -51t-52 -20zM224 57q1 -29 13.5 -40.5t40.5 -11.5t40.5 11.5t13.5 40.5q2 42 2 158t-2 158
q-1 29 -13.5 40.5t-40.5 11.5t-40.5 -11.5t-13.5 -40.5q-2 -42 -2 -158t2 -158zM25 215q0 107 77.5 167t175.5 60t175.5 -60t77.5 -167t-77.5 -167t-175.5 -60t-175.5 60t-77.5 167z" />
    <glyph glyph-name="divide" unicode="&#xf7;" horiz-adv-x="690" 
d="M345 78q-34 0 -56 20.5t-22 55.5t22 55.5t56 20.5t56 -20.5t22 -55.5t-22 -55.5t-56 -20.5zM345 460q-34 0 -56 20.5t-22 55.5t22 55.5t56 20.5t56 -20.5t22 -55.5t-22 -55.5t-56 -20.5zM70 327v36h550v-36h-550z" />
    <glyph glyph-name="oslash" unicode="&#xf8;" horiz-adv-x="556" 
d="M25 215q0 107 77.5 167t175.5 60q83 0 150 -43l32 38h24l-40 -48q87 -63 87 -174q0 -107 -77.5 -167t-175.5 -60q-84 0 -151 42l-31 -37h-24l40 48q-87 63 -87 174zM224 57q1 -29 13.5 -40.5t40.5 -11.5t40.5 11.5t13.5 40.5q2 42 2 158v54l-112 -138q0 -48 2 -74z
M222 215v-55l112 138q-2 74 -2 75q-1 29 -13.5 40.5t-40.5 11.5t-40.5 -11.5t-13.5 -40.5q-2 -42 -2 -158z" />
    <glyph glyph-name="ugrave" unicode="&#xf9;" horiz-adv-x="613" 
d="M61 122v291h-51v17h237v-374q0 -24 4.5 -31.5t18.5 -7.5q36 0 62 33t26 89v274h-41v17h228v-413h50v-17h-237v69q-30 -79 -137 -79q-77 0 -118.5 36.5t-41.5 95.5zM388 493q-172 56 -210 83q-34 24 -34 53q0 22 16.5 41t38.5 19t46 -18q43 -30 150 -168z" />
    <glyph glyph-name="uacute" unicode="&#xfa;" horiz-adv-x="613" 
d="M218 493l-7 10q108 138 150 168q24 18 46 18t38.5 -19t16.5 -41q0 -29 -34 -53q-38 -27 -210 -83zM61 122v291h-51v17h237v-374q0 -24 4.5 -31.5t18.5 -7.5q36 0 62 33t26 89v274h-41v17h228v-413h50v-17h-237v69q-30 -79 -137 -79q-77 0 -118.5 36.5t-41.5 95.5z" />
    <glyph glyph-name="ucircumflex" unicode="&#xfb;" horiz-adv-x="613" 
d="M159 493l-13 11l138 186h38l138 -186l-13 -11l-144 96zM61 122v291h-51v17h237v-374q0 -24 4.5 -31.5t18.5 -7.5q36 0 62 33t26 89v274h-41v17h228v-413h50v-17h-237v69q-30 -79 -137 -79q-77 0 -118.5 36.5t-41.5 95.5z" />
    <glyph glyph-name="udieresis" unicode="&#xfc;" horiz-adv-x="613" 
d="M194 496q-31 0 -51.5 19t-20.5 51t21 52.5t51 20.5q32 0 53 -20t21 -52q0 -31 -21.5 -51t-52.5 -20zM411 496q-31 0 -52 20t-21 51q0 32 21 52t52 20t52 -20t21 -52q0 -31 -21 -51t-52 -20zM61 122v291h-51v17h237v-374q0 -24 4.5 -31.5t18.5 -7.5q36 0 62 33t26 89v274
h-41v17h228v-413h50v-17h-237v69q-30 -79 -137 -79q-77 0 -118.5 36.5t-41.5 95.5z" />
    <glyph glyph-name="yacute" unicode="&#xfd;" horiz-adv-x="546" 
d="M80 -110q34 0 55 -19.5t21 -52.5q0 -30 -17.5 -48t-52.5 -19v-1q13 -10 32 -10q25 0 39.5 13.5t28.5 46.5l62 145l-206 468h-48v17h323v-17h-70l99 -247q57 129 72 165.5t15 51.5q0 30 -63 31v16h191v-16q-52 -1 -77 -18t-46 -64l-230 -523q-22 -51 -42 -69t-57 -18
q-48 0 -78.5 24.5t-30.5 64.5q0 36 22 57.5t58 21.5zM261 493l-7 10q108 138 150 168q24 18 46 18t38.5 -19t16.5 -41q0 -29 -34 -53q-38 -27 -210 -83z" />
    <glyph glyph-name="thorn" unicode="&#xfe;" horiz-adv-x="584" 
d="M13 -270v17h51v926h-51v17h238v-306q21 58 110 58q91 0 143.5 -64t52.5 -164q0 -110 -61.5 -168t-152.5 -58q-70 0 -92 44v-285h55v-17h-293zM251 95q0 -88 71 -88q43 0 46 50q2 37 2 158q0 134 -2 154q-4 47 -45 47q-29 0 -50.5 -22.5t-21.5 -78.5v-220z" />
    <glyph glyph-name="ydieresis" unicode="&#xff;" horiz-adv-x="546" 
d="M80 -110q34 0 55 -19.5t21 -52.5q0 -30 -17.5 -48t-52.5 -19v-1q13 -10 32 -10q25 0 39.5 13.5t28.5 46.5l62 145l-206 468h-48v17h323v-17h-70l99 -247q57 129 72 165.5t15 51.5q0 30 -63 31v16h191v-16q-52 -1 -77 -18t-46 -64l-230 -523q-22 -51 -42 -69t-57 -18
q-48 0 -78.5 24.5t-30.5 64.5q0 36 22 57.5t58 21.5zM237 496q-31 0 -51.5 19t-20.5 51t21 52.5t51 20.5q32 0 53 -20t21 -52q0 -31 -21.5 -51t-52.5 -20zM454 496q-31 0 -52 20t-21 51q0 32 21 52t52 20t52 -20t21 -52q0 -31 -21 -51t-52 -20z" />
    <glyph glyph-name="Amacron" unicode="&#x100;" horiz-adv-x="797" 
d="M0 0v16q67 18 92 43t56 109l196 523h130l243 -674h80v-17h-450v17h115l-57 173h-228q-26 -79 -26 -107q0 -30 23.5 -47.5t62.5 -19.5v-16h-237zM298 518q-83 -219 -114 -309h215zM233 773v52h352v-52h-352z" />
    <glyph glyph-name="amacron" unicode="&#x101;" horiz-adv-x="542" 
d="M20 112q0 130 279 139v96q0 41 -18 58t-60 17q-73 0 -99 -45v-1q31 -1 49 -17t18 -42q0 -27 -17 -45t-47 -18q-28 0 -48 18t-20 51q0 50 51 83.5t160 33.5q114 0 162.5 -37.5t48.5 -116.5v-235q0 -26 20 -26q38 0 38 65v7h16v-10q0 -53 -27.5 -73.5t-83.5 -20.5
q-99 0 -129 64q-7 -38 -34 -53.5t-78 -15.5q-80 0 -130.5 32.5t-50.5 91.5zM200 118q0 -60 11.5 -79.5t37.5 -19.5q50 0 50 62v155q-59 -1 -79 -25t-20 -93zM128 499v50h314v-50h-314z" />
    <glyph glyph-name="Abreve" unicode="&#x102;" horiz-adv-x="797" 
d="M0 0v16q67 18 92 43t56 109l196 523h130l243 -674h80v-17h-450v17h115l-57 173h-228q-26 -79 -26 -107q0 -30 23.5 -47.5t62.5 -19.5v-16h-237zM298 518q-83 -219 -114 -309h215zM409 769q-57 0 -93 42t-40 126l15 3q29 -81 118 -81t118 81l15 -3q-4 -84 -40 -126
t-93 -42z" />
    <glyph glyph-name="abreve" unicode="&#x103;" horiz-adv-x="542" 
d="M20 112q0 130 279 139v96q0 41 -18 58t-60 17q-73 0 -99 -45v-1q31 -1 49 -17t18 -42q0 -27 -17 -45t-47 -18q-28 0 -48 18t-20 51q0 50 51 83.5t160 33.5q114 0 162.5 -37.5t48.5 -116.5v-235q0 -26 20 -26q38 0 38 65v7h16v-10q0 -53 -27.5 -73.5t-83.5 -20.5
q-99 0 -129 64q-7 -38 -34 -53.5t-78 -15.5q-80 0 -130.5 32.5t-50.5 91.5zM200 118q0 -60 11.5 -79.5t37.5 -19.5q50 0 50 62v155q-59 -1 -79 -25t-20 -93zM285 495q-58 0 -93.5 42t-39.5 125l15 3q29 -83 118 -83t118 83l15 -3q-4 -83 -39.5 -125t-93.5 -42z" />
    <glyph glyph-name="Aogonek" unicode="&#x104;" horiz-adv-x="797" 
d="M582 -175q0 56 46 98.5t139 76.5h-420v17h115l-57 173h-228q-26 -79 -26 -107q0 -30 23.5 -47.5t62.5 -19.5v-16h-237v16q67 18 92 43t56 109l196 523h130l243 -674h80v-17q-116 -45 -116 -148q0 -68 56 -68q33 0 50 35l13 -5q-11 -42 -35 -68t-72 -26q-52 0 -81.5 29
t-29.5 76zM298 518q-83 -219 -114 -309h215z" />
    <glyph glyph-name="aogonek" unicode="&#x105;" horiz-adv-x="542" 
d="M273 -170q0 55 43.5 96.5t110.5 66.5q-86 4 -114 64q-7 -38 -34 -53.5t-78 -15.5q-80 0 -130.5 32.5t-50.5 91.5q0 130 279 139v96q0 41 -18 58t-60 17q-73 0 -99 -45v-1q31 -1 49 -17t18 -42q0 -27 -17 -45t-47 -18q-28 0 -48 18t-20 51q0 50 51 83.5t160 33.5
q114 0 162.5 -37.5t48.5 -116.5v-235q0 -26 20 -26q38 0 38 65v7h16v-10q0 -47 -21.5 -68t-65.5 -25q-45 -20 -72.5 -55t-27.5 -81q0 -67 60 -67q32 0 47 23l13 -6q-21 -78 -106 -78q-49 0 -78 27.5t-29 72.5zM200 118q0 -60 11.5 -79.5t37.5 -19.5q50 0 50 62v155
q-59 -1 -79 -25t-20 -93z" />
    <glyph glyph-name="Cacute" unicode="&#x106;" horiz-adv-x="779" 
d="M315 80q1 -50 21 -67t73 -17q271 0 307 311h16q-7 -66 -26 -120.5t-54.5 -103.5t-97.5 -77t-145 -28q-165 0 -271 104.5t-106 260.5q0 157 104.5 263t256.5 106q133 0 220 -102l108 97h12v-314l-14 -2q-25 63 -50.5 110.5t-63.5 94.5t-90.5 72.5t-116.5 25.5
q-45 0 -63.5 -18t-19.5 -68q-2 -102 -2 -263q0 -159 2 -265zM302 764l-7 10q106 139 161 177q24 17 45 17q23 0 40.5 -19.5t17.5 -42.5q0 -27 -33 -50q-46 -33 -224 -92z" />
    <glyph glyph-name="cacute" unicode="&#x107;" horiz-adv-x="497" 
d="M172 493l-7 10q108 138 150 168q24 18 46 18t38.5 -19t16.5 -41q0 -29 -34 -53q-38 -27 -210 -83zM25 213q0 103 72 166t180 63q81 0 138 -37t57 -92q0 -34 -20 -52.5t-49 -18.5t-50 18.5t-21 49.5q0 28 18 46t49 20q-29 49 -105 49q-41 0 -54.5 -14t-15.5 -47
q-2 -26 -2 -146q0 -96 2 -129q2 -43 18.5 -59t58.5 -16q152 0 157 190h17q0 -43 -9 -79t-29.5 -68t-60 -50.5t-94.5 -18.5q-64 0 -121 23.5t-96.5 76.5t-39.5 125z" />
    <glyph glyph-name="Cdotaccent" unicode="&#x10a;" horiz-adv-x="779" 
d="M400 769q-34 0 -57.5 22.5t-23.5 57.5t23.5 57t57.5 22t57.5 -22t23.5 -57t-23.5 -57.5t-57.5 -22.5zM315 80q1 -50 21 -67t73 -17q271 0 307 311h16q-7 -66 -26 -120.5t-54.5 -103.5t-97.5 -77t-145 -28q-165 0 -271 104.5t-106 260.5q0 157 104.5 263t256.5 106
q133 0 220 -102l108 97h12v-314l-14 -2q-25 63 -50.5 110.5t-63.5 94.5t-90.5 72.5t-116.5 25.5q-45 0 -63.5 -18t-19.5 -68q-2 -102 -2 -263q0 -159 2 -265z" />
    <glyph glyph-name="cdotaccent" unicode="&#x10b;" horiz-adv-x="497" 
d="M25 213q0 103 72 166t180 63q81 0 138 -37t57 -92q0 -34 -20 -52.5t-49 -18.5t-50 18.5t-21 49.5q0 28 18 46t49 20q-29 49 -105 49q-41 0 -54.5 -14t-15.5 -47q-2 -26 -2 -146q0 -96 2 -129q2 -43 18.5 -59t58.5 -16q152 0 157 190h17q0 -43 -9 -79t-29.5 -68t-60 -50.5
t-94.5 -18.5q-64 0 -121 23.5t-96.5 76.5t-39.5 125zM257 495q-34 0 -56.5 22t-22.5 57q0 34 23 56t56 22t56 -22t23 -56q0 -35 -22.5 -57t-56.5 -22z" />
    <glyph glyph-name="Ccaron" unicode="&#x10c;" horiz-adv-x="779" 
d="M315 80q1 -50 21 -67t73 -17q271 0 307 311h16q-7 -66 -26 -120.5t-54.5 -103.5t-97.5 -77t-145 -28q-165 0 -271 104.5t-106 260.5q0 157 104.5 263t256.5 106q133 0 220 -102l108 97h12v-314l-14 -2q-25 63 -50.5 110.5t-63.5 94.5t-90.5 72.5t-116.5 25.5
q-45 0 -63.5 -18t-19.5 -68q-2 -102 -2 -263q0 -159 2 -265zM377 768l-149 169l11 13l161 -89l161 89l11 -13l-149 -169h-46z" />
    <glyph glyph-name="ccaron" unicode="&#x10d;" horiz-adv-x="497" 
d="M238 494l-138 185l13 12l144 -97l144 97l13 -12l-138 -185h-38zM25 213q0 103 72 166t180 63q81 0 138 -37t57 -92q0 -34 -20 -52.5t-49 -18.5t-50 18.5t-21 49.5q0 28 18 46t49 20q-29 49 -105 49q-41 0 -54.5 -14t-15.5 -47q-2 -26 -2 -146q0 -96 2 -129
q2 -43 18.5 -59t58.5 -16q152 0 157 190h17q0 -43 -9 -79t-29.5 -68t-60 -50.5t-94.5 -18.5q-64 0 -121 23.5t-96.5 76.5t-39.5 125z" />
    <glyph glyph-name="Dcaron" unicode="&#x10e;" horiz-adv-x="851" 
d="M348 17h70q68 0 90.5 21t25.5 79q2 42 2 228q0 187 -2 228q-3 58 -25.5 79t-90.5 21h-70v-656zM20 0v17h85v656h-85v17h430q172 0 270.5 -89t98.5 -254q0 -158 -96 -252.5t-269 -94.5h-434zM397 768l-149 169l11 13l161 -89l161 89l11 -13l-149 -169h-46z" />
    <glyph glyph-name="dcaron" unicode="&#x10f;" horiz-adv-x="590" 
d="M585 453v16q132 2 132 144h-2q-20 -37 -63 -37q-31 0 -53.5 21t-22.5 56q0 34 21.5 55.5t60.5 21.5q85 0 85 -116q0 -161 -158 -161zM27 213q0 100 52.5 164.5t143.5 64.5q89 0 110 -58v289h-50v17h237v-673h51v-17h-225v44q-28 -56 -105 -56q-91 0 -152.5 57.5
t-61.5 167.5zM217 57q3 -50 46 -50q70 0 70 88v220q0 56 -21 78.5t-50 22.5q-41 0 -45 -47q-2 -23 -2 -154q0 -122 2 -158z" />
    <glyph glyph-name="Dcroat" unicode="&#x110;" horiz-adv-x="851" 
d="M348 17h70q68 0 90.5 21t25.5 79q2 42 2 228q0 187 -2 228q-3 58 -25.5 79t-90.5 21h-70v-318h103v-20h-103v-318zM20 335v20h85v318h-85v17h430q172 0 270.5 -89t98.5 -254q0 -158 -96 -252.5t-269 -94.5h-434v17h85v318h-85z" />
    <glyph glyph-name="dcroat" unicode="&#x111;" horiz-adv-x="590" 
d="M214 551v18h119v104h-50v17h237v-121h50v-18h-50v-534h51v-17h-225v44q-28 -56 -105 -56q-91 0 -152.5 57.5t-61.5 167.5q0 100 52.5 164.5t143.5 64.5q89 0 110 -58v167h-119zM217 57q3 -50 46 -50q70 0 70 88v220q0 56 -21 78.5t-50 22.5q-41 0 -45 -47q-2 -23 -2 -154
q0 -122 2 -158z" />
    <glyph glyph-name="Emacron" unicode="&#x112;" horiz-adv-x="812" 
d="M20 0v17h85v655h-85v18h710v-261h-12l-186 244h-184v-318h33q45 0 73.5 9.5t43.5 32.5t20.5 45.5t10.5 64.5h15v-327h-15q-5 41 -10.5 64t-20.5 47.5t-43.5 35.5t-73.5 11h-33v-321h184l206 303h12v-320h-730zM221 773v52h352v-52h-352z" />
    <glyph glyph-name="emacron" unicode="&#x113;" horiz-adv-x="526" 
d="M25 211q0 76 40.5 130.5t96.5 77.5t118 23q102 0 163 -65t61 -156h-281q0 -127 20 -166.5t77 -39.5q75 0 119.5 41.5t46.5 112.5h16q0 -75 -54 -128t-165 -53q-114 0 -186 58.5t-72 164.5zM223 238h110v91q0 56 -11 77t-44 21t-44 -21.5t-11 -77.5v-90zM119 499v50h314
v-50h-314z" />
    <glyph glyph-name="Ebreve" unicode="&#x114;" horiz-adv-x="812" 
d="M20 0v17h85v655h-85v18h710v-261h-12l-186 244h-184v-318h33q45 0 73.5 9.5t43.5 32.5t20.5 45.5t10.5 64.5h15v-327h-15q-5 41 -10.5 64t-20.5 47.5t-43.5 35.5t-73.5 11h-33v-321h184l206 303h12v-320h-730zM397 769q-57 0 -93 42t-40 126l15 3q29 -81 118 -81t118 81
l15 -3q-4 -84 -40 -126t-93 -42z" />
    <glyph glyph-name="ebreve" unicode="&#x115;" horiz-adv-x="526" 
d="M25 211q0 76 40.5 130.5t96.5 77.5t118 23q102 0 163 -65t61 -156h-281q0 -127 20 -166.5t77 -39.5q75 0 119.5 41.5t46.5 112.5h16q0 -75 -54 -128t-165 -53q-114 0 -186 58.5t-72 164.5zM223 238h110v91q0 56 -11 77t-44 21t-44 -21.5t-11 -77.5v-90zM276 495
q-58 0 -93.5 42t-39.5 125l15 3q29 -83 118 -83t118 83l15 -3q-4 -83 -39.5 -125t-93.5 -42z" />
    <glyph glyph-name="Edotaccent" unicode="&#x116;" horiz-adv-x="812" 
d="M397 769q-34 0 -57.5 22.5t-23.5 57.5t23.5 57t57.5 22t57.5 -22t23.5 -57t-23.5 -57.5t-57.5 -22.5zM20 0v17h85v655h-85v18h710v-261h-12l-186 244h-184v-318h33q45 0 73.5 9.5t43.5 32.5t20.5 45.5t10.5 64.5h15v-327h-15q-5 41 -10.5 64t-20.5 47.5t-43.5 35.5
t-73.5 11h-33v-321h184l206 303h12v-320h-730z" />
    <glyph glyph-name="edotaccent" unicode="&#x117;" horiz-adv-x="526" 
d="M25 211q0 76 40.5 130.5t96.5 77.5t118 23q102 0 163 -65t61 -156h-281q0 -127 20 -166.5t77 -39.5q75 0 119.5 41.5t46.5 112.5h16q0 -75 -54 -128t-165 -53q-114 0 -186 58.5t-72 164.5zM223 238h110v91q0 56 -11 77t-44 21t-44 -21.5t-11 -77.5v-90zM276 495
q-34 0 -56.5 22t-22.5 57q0 34 23 56t56 22t56 -22t23 -56q0 -35 -22.5 -57t-56.5 -22z" />
    <glyph glyph-name="Eogonek" unicode="&#x118;" horiz-adv-x="812" 
d="M20 0v17h85v655h-85v18h710v-261h-12l-186 244h-184v-318h33q45 0 73.5 9.5t43.5 32.5t20.5 45.5t10.5 64.5h15v-327h-15q-5 41 -10.5 64t-20.5 47.5t-43.5 35.5t-73.5 11h-33v-321h184l206 303h12v-320q-116 -45 -116 -148q0 -68 56 -68q32 0 50 35l13 -5
q-11 -42 -35 -68t-72 -26q-52 0 -81.5 29t-29.5 76q0 56 46 98.5t139 76.5h-700z" />
    <glyph glyph-name="eogonek" unicode="&#x119;" horiz-adv-x="526" 
d="M25 211q0 76 40.5 130.5t96.5 77.5t118 23q102 0 163 -65t61 -156h-281q0 -127 20 -166.5t77 -39.5q75 0 119.5 41.5t46.5 112.5h16q0 -85 -64 -136q-59 -47 -59 -113t60 -66q31 0 47 22l13 -5q-23 -78 -106 -78q-49 0 -78.5 27t-29.5 70q0 64 56 102v2q-27 -6 -59 -6
q-113 0 -185 59t-72 164zM223 238h110v91q0 56 -11 77t-44 21t-44 -21.5t-11 -77.5v-90z" />
    <glyph glyph-name="Ecaron" unicode="&#x11a;" horiz-adv-x="812" 
d="M20 0v17h85v655h-85v18h710v-261h-12l-186 244h-184v-318h33q45 0 73.5 9.5t43.5 32.5t20.5 45.5t10.5 64.5h15v-327h-15q-5 41 -10.5 64t-20.5 47.5t-43.5 35.5t-73.5 11h-33v-321h184l206 303h12v-320h-730zM374 768l-149 169l11 13l161 -89l161 89l11 -13l-149 -169
h-46z" />
    <glyph glyph-name="ecaron" unicode="&#x11b;" horiz-adv-x="526" 
d="M257 494l-138 185l13 12l144 -97l144 97l13 -12l-138 -185h-38zM25 211q0 76 40.5 130.5t96.5 77.5t118 23q102 0 163 -65t61 -156h-281q0 -127 20 -166.5t77 -39.5q75 0 119.5 41.5t46.5 112.5h16q0 -75 -54 -128t-165 -53q-114 0 -186 58.5t-72 164.5zM223 238h110v91
q0 56 -11 77t-44 21t-44 -21.5t-11 -77.5v-90z" />
    <glyph glyph-name="Gbreve" unicode="&#x11e;" horiz-adv-x="825" 
d="M315 80q1 -49 20 -66.5t68 -17.5q52 0 73.5 30t21.5 97v204h-116v18h439v-18h-83v-331h-14l-106 114q-37 -66 -90.5 -99t-133.5 -33q-154 0 -258 104.5t-104 261.5t104.5 262.5t260.5 105.5q134 0 222 -102l109 97h11v-305l-13 -3q-31 69 -58 115.5t-65.5 91t-88 66.5
t-110.5 22q-48 0 -68 -18t-21 -68q-2 -102 -2 -263q0 -159 2 -265zM405 769q-57 0 -93 42t-40 126l15 3q29 -81 118 -81t118 81l15 -3q-4 -84 -40 -126t-93 -42z" />
    <glyph glyph-name="gbreve" unicode="&#x11f;" horiz-adv-x="538" 
d="M43 281q0 54 36.5 92t87 53.5t108.5 15.5q40 0 75 -7q14 66 48 100.5t80 34.5q33 0 52.5 -19.5t19.5 -50.5q0 -28 -16.5 -47t-45.5 -19q-27 0 -45.5 17t-18.5 45q0 46 41 56v2q-76 -12 -99 -123q63 -16 102 -53.5t39 -96.5q0 -80 -69.5 -120.5t-162.5 -40.5
q-107 0 -173 47q-21 -20 -21 -49q0 -38 47.5 -47t236.5 -9q168 0 168 -147q0 -97 -68 -146.5t-188 -49.5q-112 0 -181.5 28t-69.5 84q0 26 20 47t48 31q-80 28 -80 123q0 89 77 144q-48 41 -48 105zM275 136q46 0 48 46q2 36 2 99t-2 98q-1 23 -12 34.5t-36 11.5t-36 -11.5
t-12 -34.5q-2 -35 -2 -98t2 -99q2 -46 48 -46zM369 -102h-94q-123 0 -138 2q-27 -23 -27 -62q0 -43 44 -72.5t130 -29.5q77 0 125.5 27t48.5 76q0 59 -89 59zM275 495q-58 0 -93.5 42t-39.5 125l15 3q29 -83 118 -83t118 83l15 -3q-4 -83 -39.5 -125t-93.5 -42z" />
    <glyph glyph-name="Gdotaccent" unicode="&#x120;" horiz-adv-x="825" 
d="M405 769q-34 0 -57.5 22.5t-23.5 57.5t23.5 57t57.5 22t57.5 -22t23.5 -57t-23.5 -57.5t-57.5 -22.5zM315 80q1 -49 20 -66.5t68 -17.5q52 0 73.5 30t21.5 97v204h-116v18h439v-18h-83v-331h-14l-106 114q-37 -66 -90.5 -99t-133.5 -33q-154 0 -258 104.5t-104 261.5
t104.5 262.5t260.5 105.5q134 0 222 -102l109 97h11v-305l-13 -3q-31 69 -58 115.5t-65.5 91t-88 66.5t-110.5 22q-48 0 -68 -18t-21 -68q-2 -102 -2 -263q0 -159 2 -265z" />
    <glyph glyph-name="gdotaccent" unicode="&#x121;" horiz-adv-x="538" 
d="M43 281q0 54 36.5 92t87 53.5t108.5 15.5q40 0 75 -7q14 66 48 100.5t80 34.5q33 0 52.5 -19.5t19.5 -50.5q0 -28 -16.5 -47t-45.5 -19q-27 0 -45.5 17t-18.5 45q0 46 41 56v2q-76 -12 -99 -123q63 -16 102 -53.5t39 -96.5q0 -80 -69.5 -120.5t-162.5 -40.5
q-107 0 -173 47q-21 -20 -21 -49q0 -38 47.5 -47t236.5 -9q168 0 168 -147q0 -97 -68 -146.5t-188 -49.5q-112 0 -181.5 28t-69.5 84q0 26 20 47t48 31q-80 28 -80 123q0 89 77 144q-48 41 -48 105zM275 136q46 0 48 46q2 36 2 99t-2 98q-1 23 -12 34.5t-36 11.5t-36 -11.5
t-12 -34.5q-2 -35 -2 -98t2 -99q2 -46 48 -46zM369 -102h-94q-123 0 -138 2q-27 -23 -27 -62q0 -43 44 -72.5t130 -29.5q77 0 125.5 27t48.5 76q0 59 -89 59zM275 495q-34 0 -56.5 22t-22.5 57q0 34 23 56t56 22t56 -22t23 -56q0 -35 -22.5 -57t-56.5 -22z" />
    <glyph glyph-name="Gcommaaccent" unicode="&#x122;" horiz-adv-x="825" 
d="M330 -109q0 29 20 46t49 17q30 0 51.5 -21t21.5 -71q0 -108 -121 -146l-6 15q50 18 73 46.5t25 82.5h-1q-12 -32 -49 -32q-28 0 -45.5 18t-17.5 45zM315 80q1 -49 20 -66.5t68 -17.5q52 0 73.5 30t21.5 97v204h-116v18h439v-18h-83v-331h-14l-106 114q-37 -66 -90.5 -99
t-133.5 -33q-154 0 -258 104.5t-104 261.5t104.5 262.5t260.5 105.5q134 0 222 -102l109 97h11v-305l-13 -3q-31 69 -58 115.5t-65.5 91t-88 66.5t-110.5 22q-48 0 -68 -18t-21 -68q-2 -102 -2 -263q0 -159 2 -265z" />
    <glyph glyph-name="gcommaaccent" unicode="&#x123;" horiz-adv-x="538" 
d="M274 494q-32 0 -53 21t-21 68q0 105 121 129l4 -15q-49 -14 -70.5 -38t-23.5 -73h1q10 27 48 27q26 0 41.5 -15.5t15.5 -42.5q0 -28 -17 -44.5t-46 -16.5zM43 281q0 54 36.5 92t87 53.5t108.5 15.5q40 0 75 -7q14 66 48 100.5t80 34.5q33 0 52.5 -19.5t19.5 -50.5
q0 -28 -16.5 -47t-45.5 -19q-27 0 -45.5 17t-18.5 45q0 46 41 56v2q-76 -12 -99 -123q63 -16 102 -53.5t39 -96.5q0 -80 -69.5 -120.5t-162.5 -40.5q-107 0 -173 47q-21 -20 -21 -49q0 -38 47.5 -47t236.5 -9q168 0 168 -147q0 -97 -68 -146.5t-188 -49.5q-112 0 -181.5 28
t-69.5 84q0 26 20 47t48 31q-80 28 -80 123q0 89 77 144q-48 41 -48 105zM275 136q46 0 48 46q2 36 2 99t-2 98q-1 23 -12 34.5t-36 11.5t-36 -11.5t-12 -34.5q-2 -35 -2 -98t2 -99q2 -46 48 -46zM369 -102h-94q-123 0 -138 2q-27 -23 -27 -62q0 -43 44 -72.5t130 -29.5
q77 0 125.5 27t48.5 76q0 59 -89 59z" />
    <glyph glyph-name="Hbar" unicode="&#x126;" horiz-adv-x="882" 
d="M20 502v19h85v151h-85v18h399v-18h-71v-151h186v151h-71v18h399v-18h-85v-151h85v-19h-85v-485h85v-17h-399v17h71v320h-186v-320h71v-17h-399v17h85v485h-85zM348 355h186v147h-186v-147z" />
    <glyph glyph-name="hbar" unicode="&#x127;" horiz-adv-x="612" 
d="M18 551v18h51v104h-51v17h238v-121h110v-18h-110v-192q28 81 137 81q77 0 118.5 -36.5t41.5 -95.5v-291h50v-17h-277v17h40v357q0 24 -4.5 32t-17.5 8q-36 0 -62 -34t-26 -91v-272h40v-17h-278v17h51v534h-51z" />
    <glyph glyph-name="Itilde" unicode="&#x128;" horiz-adv-x="464" 
d="M20 0v17h85v655h-85v18h424v-18h-84v-655h84v-17h-424zM53 758l-14 8q34 77 65.5 104.5t70.5 27.5q29 0 78 -17t79 -17q45 0 79 44l14 -8q-34 -77 -65.5 -105t-70.5 -28q-29 0 -77.5 17t-79.5 17q-23 0 -40 -8.5t-39 -34.5z" />
    <glyph glyph-name="itilde" unicode="&#x129;" horiz-adv-x="329" 
d="M18 0v17h51v396h-51v17h242v-413h50v-17h-292zM5 489l-14 8q30 69 58.5 93.5t63.5 24.5q26 0 69.5 -15.5t70.5 -15.5q21 0 36 8t34 32l14 -8q-30 -69 -58.5 -94t-64.5 -25q-26 0 -68.5 15.5t-70.5 15.5q-20 0 -35.5 -8t-34.5 -31z" />
    <glyph glyph-name="Imacron" unicode="&#x12a;" horiz-adv-x="464" 
d="M20 0v17h85v655h-85v18h424v-18h-84v-655h84v-17h-424zM56 773v52h352v-52h-352z" />
    <glyph glyph-name="imacron" unicode="&#x12b;" horiz-adv-x="329" 
d="M19 499v50h291v-50h-291zM18 0v17h51v396h-51v17h242v-413h50v-17h-292z" />
    <glyph glyph-name="Ibreve" unicode="&#x12c;" horiz-adv-x="464" 
d="M20 0v17h85v655h-85v18h424v-18h-84v-655h84v-17h-424zM232 769q-57 0 -93 42t-40 126l15 3q29 -81 118 -81t118 81l15 -3q-4 -84 -40 -126t-93 -42z" />
    <glyph glyph-name="ibreve" unicode="&#x12d;" horiz-adv-x="329" 
d="M18 0v17h51v396h-51v17h242v-413h50v-17h-292zM164 495q-58 0 -93.5 42t-39.5 125l15 3q29 -83 118 -83t118 83l15 -3q-4 -83 -39.5 -125t-93.5 -42z" />
    <glyph glyph-name="Iogonek" unicode="&#x12e;" horiz-adv-x="464" 
d="M20 0v17h85v655h-85v18h424v-18h-84v-655h84v-17h-106q-116 -45 -116 -148q0 -68 56 -68q32 0 50 35l13 -5q-11 -42 -35 -68t-72 -26q-52 0 -81.5 29t-29.5 76q0 56 46 98.5t139 76.5h-288z" />
    <glyph glyph-name="iogonek" unicode="&#x12f;" horiz-adv-x="329" 
d="M164 498q-42 0 -71.5 27t-29.5 71q0 43 29.5 70.5t71.5 27.5t72 -27.5t30 -70.5q0 -44 -29.5 -71t-72.5 -27zM18 0v17h51v396h-51v17h242v-413h50v-17h-49q-51 -19 -83 -56t-32 -86q0 -67 60 -67q32 0 47 23l13 -6q-21 -78 -106 -78q-49 0 -78 27.5t-29 72.5
q0 59 49.5 102.5t123.5 67.5h-208z" />
    <glyph glyph-name="Idotaccent" unicode="&#x130;" horiz-adv-x="464" 
d="M20 0v17h85v655h-85v18h424v-18h-84v-655h84v-17h-424zM232 769q-34 0 -57.5 22.5t-23.5 57.5t23.5 57t57.5 22t57.5 -22t23.5 -57t-23.5 -57.5t-57.5 -22.5z" />
    <glyph glyph-name="dotlessi" unicode="&#x131;" horiz-adv-x="329" 
d="M18 0v17h51v396h-51v17h242v-413h50v-17h-292z" />
    <glyph glyph-name="Kcommaaccent" unicode="&#x136;" horiz-adv-x="856" 
d="M455 0v17h69l-169 319l-7 -7v-312h64v-17h-392v17h85v655h-85v18h420v-18h-92v-319q151 147 189 192t38 78q0 27 -17.5 38.5t-64.5 11.5v17h339v-17q-101 -14 -150 -37.5t-121 -94.5l-27 -27l278 -497h49v-17h-406zM362 -109q0 29 20 46t49 17q30 0 51.5 -21t21.5 -71
q0 -108 -121 -146l-6 15q50 18 73 46.5t25 82.5h-1q-12 -32 -49 -32q-28 0 -45.5 18t-17.5 45z" />
    <glyph glyph-name="kcommaaccent" unicode="&#x137;" horiz-adv-x="625" 
d="M250 -103q0 28 18 44.5t47 16.5q30 0 51 -21t21 -71q0 -108 -119 -144l-6 16q49 19 70.5 46t23.5 82h-1q-8 -27 -47 -27q-26 0 -42 15.5t-16 42.5zM334 0v17h53l-95 187l-33 -30v-157h39v-17h-280v17h51v656h-51v17h241v-493l123 113q30 27 40.5 42t10.5 30
q0 17 -13.5 24t-47.5 8v16h225v-16q-56 -7 -86.5 -23t-82.5 -63l166 -311h41v-17h-301z" />
    <glyph glyph-name="Lacute" unicode="&#x139;" horiz-adv-x="766" 
d="M128 764l-7 10q106 139 161 177q24 17 45 17q23 0 40.5 -19.5t17.5 -42.5q0 -27 -33 -50q-46 -33 -224 -92zM20 0v17h85v655h-85v18h427v-18h-89v-655h134l207 348h13v-365h-692z" />
    <glyph glyph-name="lacute" unicode="&#x13a;" horiz-adv-x="328" 
d="M66 764l-7 10q106 139 161 177q24 17 45 17q23 0 40.5 -19.5t17.5 -42.5q0 -27 -33 -50q-46 -33 -224 -92zM18 0v17h51v656h-51v17h242v-673h50v-17h-292z" />
    <glyph glyph-name="Lcommaaccent" unicode="&#x13b;" horiz-adv-x="766" 
d="M317 -109q0 29 20 46t49 17q30 0 51.5 -21t21.5 -71q0 -108 -121 -146l-6 15q50 18 73 46.5t25 82.5h-1q-12 -32 -49 -32q-28 0 -45.5 18t-17.5 45zM20 0v17h85v655h-85v18h427v-18h-89v-655h134l207 348h13v-365h-692z" />
    <glyph glyph-name="lcommaaccent" unicode="&#x13c;" horiz-adv-x="328" 
d="M99 -103q0 28 18 44.5t47 16.5q30 0 51 -21t21 -71q0 -108 -119 -144l-6 16q49 19 70.5 46t23.5 82h-1q-8 -27 -47 -27q-26 0 -42 15.5t-16 42.5zM18 0v17h51v656h-51v17h242v-673h50v-17h-292z" />
    <glyph glyph-name="Lcaron" unicode="&#x13d;" horiz-adv-x="766" 
d="M536 453v16q132 2 132 144h-2q-20 -37 -63 -37q-31 0 -53.5 21t-22.5 56q0 34 21.5 55.5t60.5 21.5q85 0 85 -116q0 -161 -158 -161zM20 0v17h85v655h-85v18h427v-18h-89v-655h134l207 348h13v-365h-692z" />
    <glyph glyph-name="lcaron" unicode="&#x13e;" horiz-adv-x="328" 
d="M320 453v16q132 2 132 144h-2q-20 -37 -63 -37q-31 0 -53.5 21t-22.5 56q0 34 21.5 55.5t60.5 21.5q85 0 85 -116q0 -161 -158 -161zM18 0v17h51v656h-51v17h242v-673h50v-17h-292z" />
    <glyph glyph-name="Ldot" unicode="&#x13f;" horiz-adv-x="766" 
d="M641 400q-34 0 -57.5 22.5t-23.5 57.5t23.5 57t57.5 22t57.5 -22t23.5 -57t-23.5 -57.5t-57.5 -22.5zM20 0v17h85v655h-85v18h427v-18h-89v-655h134l207 348h13v-365h-692z" />
    <glyph glyph-name="ldot" unicode="&#x140;" horiz-adv-x="599" 
d="M18 0v17h51v656h-51v17h242v-673h50v-17h-292zM464 275q-34 0 -56.5 22t-22.5 57q0 34 23 56t56 22t56 -22t23 -56q0 -35 -22.5 -57t-56.5 -22z" />
    <glyph glyph-name="Lslash" unicode="&#x141;" horiz-adv-x="766" 
d="M36 226v22l69 39v385h-85v18h427v-18h-89v-277l136 78v-22l-136 -79v-355h134l207 348h13v-365h-692v17h85v248z" />
    <glyph glyph-name="lslash" unicode="&#x142;" horiz-adv-x="328" 
d="M18 271v21l51 29v352h-51v17h242v-284l56 33v-21l-56 -33v-368h50v-17h-292v17h51v283z" />
    <glyph glyph-name="Nacute" unicode="&#x143;" horiz-adv-x="747" 
d="M278 764l-7 10q106 139 161 177q24 17 45 17q23 0 40.5 -19.5t17.5 -42.5q0 -27 -33 -50q-46 -33 -224 -92zM18 0v18h7q46 0 62 18.5t16 68.5v567h-85v18h294l317 -540v435q0 50 -16 68.5t-63 18.5h-7v18h190v-18h-6q-47 0 -63 -18.5t-16 -68.5v-585h-201l-325 554v-449
q0 -50 16 -68.5t63 -18.5h7v-18h-190z" />
    <glyph glyph-name="nacute" unicode="&#x144;" horiz-adv-x="612" 
d="M226 493l-7 10q108 138 150 168q24 18 46 18t38.5 -19t16.5 -41q0 -29 -34 -53q-38 -27 -210 -83zM18 0v17h51v396h-51v17h238v-71q28 81 137 81q77 0 118.5 -36.5t41.5 -95.5v-291h50v-17h-277v17h40v357q0 24 -4.5 32t-17.5 8q-36 0 -62 -34t-26 -91v-272h40v-17h-278z
" />
    <glyph glyph-name="Ncommaaccent" unicode="&#x145;" horiz-adv-x="747" 
d="M307 -109q0 29 20 46t49 17q30 0 51.5 -21t21.5 -71q0 -108 -121 -146l-6 15q50 18 73 46.5t25 82.5h-1q-12 -32 -49 -32q-28 0 -45.5 18t-17.5 45zM18 0v18h7q46 0 62 18.5t16 68.5v567h-85v18h294l317 -540v435q0 50 -16 68.5t-63 18.5h-7v18h190v-18h-6
q-47 0 -63 -18.5t-16 -68.5v-585h-201l-325 554v-449q0 -50 16 -68.5t63 -18.5h7v-18h-190z" />
    <glyph glyph-name="ncommaaccent" unicode="&#x146;" horiz-adv-x="612" 
d="M245 -103q0 28 18 44.5t47 16.5q30 0 51 -21t21 -71q0 -108 -119 -144l-6 16q49 19 70.5 46t23.5 82h-1q-8 -27 -47 -27q-26 0 -42 15.5t-16 42.5zM18 0v17h51v396h-51v17h238v-71q28 81 137 81q77 0 118.5 -36.5t41.5 -95.5v-291h50v-17h-277v17h40v357q0 24 -4.5 32
t-17.5 8q-36 0 -62 -34t-26 -91v-272h40v-17h-278z" />
    <glyph glyph-name="Ncaron" unicode="&#x147;" horiz-adv-x="747" 
d="M18 0v18h7q46 0 62 18.5t16 68.5v567h-85v18h294l317 -540v435q0 50 -16 68.5t-63 18.5h-7v18h190v-18h-6q-47 0 -63 -18.5t-16 -68.5v-585h-201l-325 554v-449q0 -50 16 -68.5t63 -18.5h7v-18h-190zM353 768l-149 169l11 13l161 -89l161 89l11 -13l-149 -169h-46z" />
    <glyph glyph-name="ncaron" unicode="&#x148;" horiz-adv-x="612" 
d="M292 494l-138 185l13 12l144 -97l144 97l13 -12l-138 -185h-38zM18 0v17h51v396h-51v17h238v-71q28 81 137 81q77 0 118.5 -36.5t41.5 -95.5v-291h50v-17h-277v17h40v357q0 24 -4.5 32t-17.5 8q-36 0 -62 -34t-26 -91v-272h40v-17h-278z" />
    <glyph glyph-name="Eng" unicode="&#x14a;" horiz-adv-x="747" 
d="M18 0v18h7q46 0 62 18.5t16 68.5v567h-85v18h293l318 -540v435q0 50 -16 68.5t-63 18.5h-7v18h190v-18h-6q-47 0 -63 -18.5t-16 -68.5v-614q0 -70 -24 -121t-65 -77.5t-85.5 -38.5t-95.5 -12q-94 0 -147.5 37.5t-53.5 102.5q0 46 26.5 72.5t70.5 26.5q42 0 65.5 -24.5
t23.5 -63.5q0 -36 -21.5 -60t-62.5 -26q15 -48 79 -48q48 0 66.5 30t18.5 105q0 73 -15.5 130t-52.5 120l-253 430v-449q0 -50 16 -68.5t63 -18.5h7v-18h-190z" />
    <glyph glyph-name="eng" unicode="&#x14b;" horiz-adv-x="607" 
d="M18 0v17h51v396h-51v17h238v-71q28 81 137 81q77 0 118.5 -36.5t41.5 -95.5v-310q0 -265 -245 -265q-87 0 -130.5 33t-43.5 84q0 38 24 61.5t63 23.5q36 0 58.5 -23t22.5 -61q0 -34 -18.5 -55.5t-51.5 -24.5v-1q22 -20 61 -20t56 21.5t17 73.5v529q0 24 -4.5 32t-17.5 8
q-36 0 -62 -34t-26 -91v-272h40v-17h-278z" />
    <glyph glyph-name="Omacron" unicode="&#x14c;" horiz-adv-x="811" 
d="M313 345q0 -212 2 -265q1 -49 21 -67t70 -18t69 18t21 67q2 53 2 265t-2 265q-1 49 -20.5 66.5t-69.5 17.5q-51 0 -70.5 -18t-20.5 -66q-2 -53 -2 -265zM32 345q0 157 105 262t269 105q163 0 268 -105t105 -262t-105 -262t-268 -105q-164 0 -269 105t-105 262zM230 773
v52h352v-52h-352z" />
    <glyph glyph-name="omacron" unicode="&#x14d;" horiz-adv-x="556" 
d="M121 499v50h314v-50h-314zM224 57q1 -29 13.5 -40.5t40.5 -11.5t40.5 11.5t13.5 40.5q2 42 2 158t-2 158q-1 29 -13.5 40.5t-40.5 11.5t-40.5 -11.5t-13.5 -40.5q-2 -42 -2 -158t2 -158zM25 215q0 107 77.5 167t175.5 60t175.5 -60t77.5 -167t-77.5 -167t-175.5 -60
t-175.5 60t-77.5 167z" />
    <glyph glyph-name="Obreve" unicode="&#x14e;" horiz-adv-x="811" 
d="M313 345q0 -212 2 -265q1 -49 21 -67t70 -18t69 18t21 67q2 53 2 265t-2 265q-1 49 -20.5 66.5t-69.5 17.5q-51 0 -70.5 -18t-20.5 -66q-2 -53 -2 -265zM32 345q0 157 105 262t269 105q163 0 268 -105t105 -262t-105 -262t-268 -105q-164 0 -269 105t-105 262zM406 769
q-57 0 -93 42t-40 126l15 3q29 -81 118 -81t118 81l15 -3q-4 -84 -40 -126t-93 -42z" />
    <glyph glyph-name="obreve" unicode="&#x14f;" horiz-adv-x="556" 
d="M224 57q1 -29 13.5 -40.5t40.5 -11.5t40.5 11.5t13.5 40.5q2 42 2 158t-2 158q-1 29 -13.5 40.5t-40.5 11.5t-40.5 -11.5t-13.5 -40.5q-2 -42 -2 -158t2 -158zM25 215q0 107 77.5 167t175.5 60t175.5 -60t77.5 -167t-77.5 -167t-175.5 -60t-175.5 60t-77.5 167zM278 495
q-58 0 -93.5 42t-39.5 125l15 3q29 -83 118 -83t118 83l15 -3q-4 -83 -39.5 -125t-93.5 -42z" />
    <glyph glyph-name="Ohungarumlaut" unicode="&#x150;" horiz-adv-x="811" 
d="M291 767l-10 10q31 60 58 104q34 58 53 75q26 23 48 23q19 0 36.5 -16.5t17.5 -36.5q0 -23 -24 -48q-19 -19 -75 -53q-42 -26 -104 -58zM484 767l-10 10q31 60 58 104q34 58 53 75q26 23 48 23q19 0 36.5 -16.5t17.5 -36.5q0 -23 -24 -48q-19 -20 -75 -53
q-54 -33 -104 -58zM313 345q0 -212 2 -265q1 -49 21 -67t70 -18t69 18t21 67q2 53 2 265t-2 265q-1 49 -20.5 66.5t-69.5 17.5q-51 0 -70.5 -18t-20.5 -66q-2 -53 -2 -265zM32 345q0 157 105 262t269 105q163 0 268 -105t105 -262t-105 -262t-268 -105q-164 0 -269 105
t-105 262z" />
    <glyph glyph-name="ohungarumlaut" unicode="&#x151;" horiz-adv-x="556" 
d="M160 495l-9 8q31 60 52 96q31 55 48 72q25 23 49 23q19 0 35 -15t16 -35q0 -26 -24 -48q-24 -23 -72 -49q-43 -25 -95 -52zM343 495l-9 8q31 60 52 96q31 55 48 72q25 23 49 23q19 0 35 -15t16 -35q0 -26 -24 -48q-24 -23 -72 -49q-43 -25 -95 -52zM224 57
q1 -29 13.5 -40.5t40.5 -11.5t40.5 11.5t13.5 40.5q2 42 2 158t-2 158q-1 29 -13.5 40.5t-40.5 11.5t-40.5 -11.5t-13.5 -40.5q-2 -42 -2 -158t2 -158zM25 215q0 107 77.5 167t175.5 60t175.5 -60t77.5 -167t-77.5 -167t-175.5 -60t-175.5 60t-77.5 167z" />
    <glyph glyph-name="OE" unicode="&#x152;" horiz-adv-x="1193" 
d="M32 345q0 157 105.5 262t265.5 105q25 0 111 -11t202 -11h395v-261h-12l-186 244h-184v-318h33q45 0 73.5 9.5t43.5 32.5t20.5 45.5t10.5 64.5h16v-327h-16q-5 41 -10.5 64t-20.5 47.5t-43.5 35.5t-73.5 11h-33v-321h184l206 303h12v-320h-415q-116 0 -202 -11t-111 -11
q-160 0 -265.5 105t-105.5 262zM315 70q1 -42 19 -58.5t72 -16.5t72.5 16.5t19.5 58.5q2 110 2 275q0 167 -2 273q-1 43 -19.5 59.5t-72.5 16.5t-72 -16t-19 -60q-2 -106 -2 -273q0 -165 2 -275z" />
    <glyph glyph-name="oe" unicode="&#x153;" horiz-adv-x="830" 
d="M25 215q0 107 77.5 167t175.5 60q84 0 153 -51q67 51 153 51q102 0 163 -65t61 -156h-281q0 -127 20 -166.5t78 -39.5q73 0 118.5 41.5t46.5 112.5h16q0 -75 -54 -128t-165 -53q-95 0 -160 48q-70 -48 -149 -48q-98 0 -175.5 60t-77.5 167zM224 57q1 -29 13.5 -40.5
t40.5 -11.5t40.5 11.5t13.5 40.5q2 42 2 158t-2 158q-1 29 -13.5 40.5t-40.5 11.5t-40.5 -11.5t-13.5 -40.5q-2 -42 -2 -158t2 -158zM527 238h110v91q0 56 -11 77t-44 21t-44 -21.5t-11 -77.5v-90z" />
    <glyph glyph-name="Racute" unicode="&#x154;" horiz-adv-x="817" 
d="M20 0v17h85v655h-85v18h463q123 0 179.5 -41.5t56.5 -126.5q0 -49 -18 -84.5t-49 -53.5t-64 -26t-71 -8v-4q67 -2 105.5 -11.5t58.5 -37t26 -58t9 -93.5q4 -74 14 -89q9 -13 30 -13q27 0 40.5 24.5t13.5 93.5h17q0 -99 -35.5 -138.5t-124.5 -39.5q-36 0 -64.5 6t-47.5 15
t-33 26t-21.5 32t-12.5 40t-6.5 44t-2.5 49q-2 49 -5.5 72t-17 42t-39.5 24.5t-73 5.5v-323h79v-17h-407zM348 357h46q55 0 73 30t18 128q0 97 -18.5 127t-72.5 30h-46v-315zM312 764l-7 10q106 139 161 177q24 17 45 17q23 0 40.5 -19.5t17.5 -42.5q0 -27 -33 -50
q-46 -33 -224 -92z" />
    <glyph glyph-name="racute" unicode="&#x155;" horiz-adv-x="466" 
d="M159 493l-7 10q108 138 150 168q24 18 46 18t38.5 -19t16.5 -41q0 -29 -34 -53q-38 -27 -210 -83zM18 0v17h51v396h-51v17h235v-78q11 43 40 65.5t70 22.5q45 0 72 -24.5t27 -66.5q0 -37 -21.5 -60t-60.5 -23q-35 0 -55.5 18.5t-20.5 49.5q0 49 39 58l1 1q-7 12 -24 12
q-33 0 -48.5 -39.5t-15.5 -99.5v-249h80v-17h-318z" />
    <glyph glyph-name="Rcommaaccent" unicode="&#x156;" horiz-adv-x="817" 
d="M20 0v17h85v655h-85v18h463q123 0 179.5 -41.5t56.5 -126.5q0 -49 -18 -84.5t-49 -53.5t-64 -26t-71 -8v-4q67 -2 105.5 -11.5t58.5 -37t26 -58t9 -93.5q4 -74 14 -89q9 -13 30 -13q27 0 40.5 24.5t13.5 93.5h17q0 -99 -35.5 -138.5t-124.5 -39.5q-36 0 -64.5 6t-47.5 15
t-33 26t-21.5 32t-12.5 40t-6.5 44t-2.5 49q-2 49 -5.5 72t-17 42t-39.5 24.5t-73 5.5v-323h79v-17h-407zM348 357h46q55 0 73 30t18 128q0 97 -18.5 127t-72.5 30h-46v-315zM354 -109q0 29 20 46t49 17q30 0 51.5 -21t21.5 -71q0 -108 -121 -146l-6 15q50 18 73 46.5
t25 82.5h-1q-12 -32 -49 -32q-28 0 -45.5 18t-17.5 45z" />
    <glyph glyph-name="rcommaaccent" unicode="&#x157;" horiz-adv-x="466" 
d="M97 -103q0 28 18 44.5t47 16.5q30 0 51 -21t21 -71q0 -108 -119 -144l-6 16q49 19 70.5 46t23.5 82h-1q-8 -27 -47 -27q-26 0 -42 15.5t-16 42.5zM18 0v17h51v396h-51v17h235v-78q11 43 40 65.5t70 22.5q45 0 72 -24.5t27 -66.5q0 -37 -21.5 -60t-60.5 -23
q-35 0 -55.5 18.5t-20.5 49.5q0 49 39 58l1 1q-7 12 -24 12q-33 0 -48.5 -39.5t-15.5 -99.5v-249h80v-17h-318z" />
    <glyph glyph-name="Rcaron" unicode="&#x158;" horiz-adv-x="817" 
d="M20 0v17h85v655h-85v18h463q123 0 179.5 -41.5t56.5 -126.5q0 -49 -18 -84.5t-49 -53.5t-64 -26t-71 -8v-4q67 -2 105.5 -11.5t58.5 -37t26 -58t9 -93.5q4 -74 14 -89q9 -13 30 -13q27 0 40.5 24.5t13.5 93.5h17q0 -99 -35.5 -138.5t-124.5 -39.5q-36 0 -64.5 6t-47.5 15
t-33 26t-21.5 32t-12.5 40t-6.5 44t-2.5 49q-2 49 -5.5 72t-17 42t-39.5 24.5t-73 5.5v-323h79v-17h-407zM348 357h46q55 0 73 30t18 128q0 97 -18.5 127t-72.5 30h-46v-315zM387 768l-149 169l11 13l161 -89l161 89l11 -13l-149 -169h-46z" />
    <glyph glyph-name="rcaron" unicode="&#x159;" horiz-adv-x="466" 
d="M225 494l-138 185l13 12l144 -97l144 97l13 -12l-138 -185h-38zM18 0v17h51v396h-51v17h235v-78q11 43 40 65.5t70 22.5q45 0 72 -24.5t27 -66.5q0 -37 -21.5 -60t-60.5 -23q-35 0 -55.5 18.5t-20.5 49.5q0 49 39 58l1 1q-7 12 -24 12q-33 0 -48.5 -39.5t-15.5 -99.5
v-249h80v-17h-318z" />
    <glyph glyph-name="Sacute" unicode="&#x15a;" horiz-adv-x="643" 
d="M59 -8v298l13 3q57 -152 129.5 -223.5t170.5 -71.5q122 0 122 98q0 47 -32 69t-162 72q-62 24 -100 44t-72 49.5t-49 70t-15 95.5q0 112 61.5 162.5t156.5 50.5q113 0 187 -86l87 79h13v-257l-12 -3q-49 117 -113.5 183.5t-157.5 66.5q-58 0 -88.5 -22t-30.5 -61
q0 -48 36.5 -73t155.5 -69q137 -50 188.5 -101.5t51.5 -147.5q0 -114 -55 -175.5t-166 -61.5q-128 0 -208 98l-94 -87h-17zM231 764l-7 10q106 139 161 177q24 17 45 17q23 0 40.5 -19.5t17.5 -42.5q0 -27 -33 -50q-46 -33 -224 -92z" />
    <glyph glyph-name="sacute" unicode="&#x15b;" horiz-adv-x="452" 
d="M140 493l-7 10q108 138 150 168q24 18 46 18t38.5 -19t16.5 -41q0 -29 -34 -53q-38 -27 -210 -83zM43 -7v184l12 5q42 -94 89 -137.5t109 -43.5q38 0 58.5 15.5t20.5 40.5q0 9 -2.5 16t-9 13t-12.5 10.5t-19.5 9.5t-23 8t-30.5 10t-34 11q-77 25 -114.5 58.5t-37.5 101.5
q0 73 43.5 112t108.5 39q77 0 125 -55l53 49h13v-158l-12 -3q-64 150 -175 150q-34 0 -54.5 -13t-20.5 -37q0 -25 24.5 -38t114.5 -41q37 -12 57 -20.5t42.5 -25t32.5 -42.5t10 -63q0 -74 -40.5 -119.5t-113.5 -45.5q-86 0 -137 62l-61 -53h-16z" />
    <glyph glyph-name="Scedilla" unicode="&#x15e;" horiz-adv-x="643" 
d="M59 -8v298l13 3q57 -152 129.5 -223.5t170.5 -71.5q122 0 122 98q0 47 -32 69t-162 72q-62 24 -100 44t-72 49.5t-49 70t-15 95.5q0 112 61.5 162.5t156.5 50.5q113 0 187 -86l87 79h13v-257l-12 -3q-49 117 -113.5 183.5t-157.5 66.5q-58 0 -88.5 -22t-30.5 -61
q0 -48 36.5 -73t155.5 -69q137 -50 188.5 -101.5t51.5 -147.5q0 -114 -55 -175.5t-166 -61.5q-21 0 -51 4v-57q71 -1 105.5 -23.5t34.5 -72.5q0 -97 -130 -97q-49 0 -84.5 20t-35.5 57q0 16 9.5 27t26.5 11q33 0 33 -34q0 -31 -33 -33q18 -32 62 -32q28 0 45 18t17 52
q0 63 -64 63v104q-82 18 -143 91l-94 -87h-17z" />
    <glyph glyph-name="scedilla" unicode="&#x15f;" horiz-adv-x="452" 
d="M128 -145q0 17 10 28t28 11q16 0 24.5 -10t8.5 -24q0 -32 -31 -34q17 -28 55 -28q25 0 41 15.5t16 41.5q0 29 -17 45t-47 16v72q-56 12 -96 58l-61 -53h-16v184l12 5q42 -94 89 -137.5t109 -43.5q38 0 58.5 15.5t20.5 40.5q0 9 -2.5 16t-9 13t-12.5 10.5t-19.5 9.5t-23 8
t-30.5 10t-34 11q-77 25 -114.5 58.5t-37.5 101.5q0 73 43.5 112t108.5 39q77 0 125 -55l53 49h13v-158l-12 -3q-64 150 -175 150q-34 0 -54.5 -13t-20.5 -37q0 -25 24.5 -38t114.5 -41q37 -12 57 -20.5t42.5 -25t32.5 -42.5t10 -63q0 -74 -40.5 -119.5t-113.5 -45.5
q-16 0 -23 1v-29q127 -2 127 -87q0 -88 -124 -88q-45 0 -77 19.5t-32 54.5z" />
    <glyph glyph-name="Scaron" unicode="&#x160;" horiz-adv-x="643" 
d="M59 -8v298l13 3q57 -152 129.5 -223.5t170.5 -71.5q122 0 122 98q0 47 -32 69t-162 72q-62 24 -100 44t-72 49.5t-49 70t-15 95.5q0 112 61.5 162.5t156.5 50.5q113 0 187 -86l87 79h13v-257l-12 -3q-49 117 -113.5 183.5t-157.5 66.5q-58 0 -88.5 -22t-30.5 -61
q0 -48 36.5 -73t155.5 -69q137 -50 188.5 -101.5t51.5 -147.5q0 -114 -55 -175.5t-166 -61.5q-128 0 -208 98l-94 -87h-17zM306 768l-149 169l11 13l161 -89l161 89l11 -13l-149 -169h-46z" />
    <glyph glyph-name="scaron" unicode="&#x161;" horiz-adv-x="452" 
d="M206 494l-138 185l13 12l144 -97l144 97l13 -12l-138 -185h-38zM43 -7v184l12 5q42 -94 89 -137.5t109 -43.5q38 0 58.5 15.5t20.5 40.5q0 9 -2.5 16t-9 13t-12.5 10.5t-19.5 9.5t-23 8t-30.5 10t-34 11q-77 25 -114.5 58.5t-37.5 101.5q0 73 43.5 112t108.5 39
q77 0 125 -55l53 49h13v-158l-12 -3q-64 150 -175 150q-34 0 -54.5 -13t-20.5 -37q0 -25 24.5 -38t114.5 -41q37 -12 57 -20.5t42.5 -25t32.5 -42.5t10 -63q0 -74 -40.5 -119.5t-113.5 -45.5q-86 0 -137 62l-61 -53h-16z" />
    <glyph glyph-name="uni0162" unicode="&#x162;" horiz-adv-x="809" 
d="M191 0v17h92v658h-33l-204 -322l-12 4l13 333h715l13 -333l-12 -4l-205 322h-32v-658h92v-17h-204v-72q70 -1 104.5 -23.5t34.5 -72.5q0 -97 -131 -97q-49 0 -84 20t-35 57q0 17 9.5 27.5t26.5 10.5q33 0 33 -34q0 -31 -33 -33q18 -32 61 -32q29 0 45.5 18t16.5 52
q0 63 -66 63v116h-205z" />
    <glyph glyph-name="uni0163" unicode="&#x163;" horiz-adv-x="368" 
d="M81 -145q0 17 10 28t28 11q16 0 24.5 -10t8.5 -24q0 -32 -31 -34q17 -28 55 -28q25 0 41 15.5t16 41.5q0 29 -17 45t-47 16v77q-50 9 -78 38t-28 74q0 27 0.5 129.5t0.5 175.5h-69v19q61 22 132.5 77.5t105.5 106.5h18v-183h100v-20h-100v-360q0 -15 5.5 -20.5t18.5 -5.5
q67 0 67 122h17q0 -35 -4.5 -59.5t-18 -49t-43.5 -37t-76 -12.5q-12 0 -30 2v-34q127 -2 127 -87q0 -88 -124 -88q-45 0 -77 19.5t-32 54.5z" />
    <glyph glyph-name="Tcaron" unicode="&#x164;" horiz-adv-x="809" 
d="M191 0v17h92v658h-33l-204 -322l-12 4l13 333h715l13 -333l-12 -4l-205 322h-32v-658h92v-17h-427zM382 768l-149 169l11 13l161 -89l161 89l11 -13l-149 -169h-46z" />
    <glyph glyph-name="tcaron" unicode="&#x165;" horiz-adv-x="368" 
d="M281 453v16q132 2 132 144h-2q-20 -37 -63 -37q-31 0 -53.5 21t-22.5 56q0 34 21.5 55.5t60.5 21.5q85 0 85 -116q0 -161 -158 -161zM63 105q0 27 0.5 129.5t0.5 175.5h-69v19q61 22 132.5 77.5t105.5 106.5h18v-183h100v-20h-100v-360q0 -15 5.5 -20.5t18.5 -5.5
q67 0 67 122h17q0 -35 -4.5 -59.5t-18 -49t-43.5 -37t-76 -12.5q-71 0 -112.5 31t-41.5 86z" />
    <glyph glyph-name="Tbar" unicode="&#x166;" horiz-adv-x="809" 
d="M187 400v20h96v255h-33l-204 -322l-12 4l13 333h715l13 -333l-12 -4l-205 322h-32v-255h88v-20h-88v-383h92v-17h-427v17h92v383h-96z" />
    <glyph glyph-name="tbar" unicode="&#x167;" horiz-adv-x="368" 
d="M-6 268v18h70v124h-69v19q61 22 132.5 77.5t105.5 106.5h18v-183h100v-20h-100v-124h100v-18h-100v-218q0 -15 5.5 -20.5t18.5 -5.5q67 0 67 122h17q0 -35 -4.5 -59.5t-18 -49t-43.5 -37t-76 -12.5q-71 0 -112.5 31t-41.5 86q0 98 1 163h-70z" />
    <glyph glyph-name="Utilde" unicode="&#x168;" horiz-adv-x="725" 
d="M99 238q0 269 1 434h-85v18h420v-18h-82v-517q0 -69 23 -104t88 -35q39 0 67 14t43.5 35t24.5 54.5t11.5 63.5t2.5 71v331q0 50 -16 68.5t-63 18.5h-6v18h189v-18h-7q-46 0 -62 -18.5t-16 -68.5v-330q0 -153 -50.5 -215t-197.5 -62q-137 0 -211 58t-74 202zM302 758
l-14 8q34 77 65.5 104.5t70.5 27.5q29 0 78 -17t79 -17q45 0 79 44l14 -8q-34 -77 -65.5 -105t-70.5 -28q-29 0 -77.5 17t-79.5 17q-23 0 -40 -8.5t-39 -34.5z" />
    <glyph glyph-name="utilde" unicode="&#x169;" horiz-adv-x="613" 
d="M61 122v291h-51v17h237v-374q0 -24 4.5 -31.5t18.5 -7.5q36 0 62 33t26 89v274h-41v17h228v-413h50v-17h-237v69q-30 -79 -137 -79q-77 0 -118.5 36.5t-41.5 95.5zM144 489l-14 8q30 69 58.5 93.5t63.5 24.5q26 0 69.5 -15.5t70.5 -15.5q21 0 36 8t34 32l14 -8
q-30 -69 -59 -94t-64 -25q-26 0 -68.5 15.5t-70.5 15.5q-20 0 -35.5 -8t-34.5 -31z" />
    <glyph glyph-name="Umacron" unicode="&#x16a;" horiz-adv-x="725" 
d="M99 238q0 269 1 434h-85v18h420v-18h-82v-517q0 -69 23 -104t88 -35q39 0 67 14t43.5 35t24.5 54.5t11.5 63.5t2.5 71v331q0 50 -16 68.5t-63 18.5h-6v18h189v-18h-7q-46 0 -62 -18.5t-16 -68.5v-330q0 -153 -50.5 -215t-197.5 -62q-137 0 -211 58t-74 202zM305 773v52
h352v-52h-352z" />
    <glyph glyph-name="umacron" unicode="&#x16b;" horiz-adv-x="613" 
d="M61 122v291h-51v17h237v-374q0 -24 4.5 -31.5t18.5 -7.5q36 0 62 33t26 89v274h-41v17h228v-413h50v-17h-237v69q-30 -79 -137 -79q-77 0 -118.5 36.5t-41.5 95.5zM146 499v50h314v-50h-314z" />
    <glyph glyph-name="Ubreve" unicode="&#x16c;" horiz-adv-x="725" 
d="M99 238q0 269 1 434h-85v18h420v-18h-82v-517q0 -69 23 -104t88 -35q39 0 67 14t43.5 35t24.5 54.5t11.5 63.5t2.5 71v331q0 50 -16 68.5t-63 18.5h-6v18h189v-18h-7q-46 0 -62 -18.5t-16 -68.5v-330q0 -153 -50.5 -215t-197.5 -62q-137 0 -211 58t-74 202zM481 769
q-57 0 -93 42t-40 126l15 3q29 -81 118 -81t118 81l15 -3q-4 -84 -40 -126t-93 -42z" />
    <glyph glyph-name="ubreve" unicode="&#x16d;" horiz-adv-x="613" 
d="M61 122v291h-51v17h237v-374q0 -24 4.5 -31.5t18.5 -7.5q36 0 62 33t26 89v274h-41v17h228v-413h50v-17h-237v69q-30 -79 -137 -79q-77 0 -118.5 36.5t-41.5 95.5zM303 495q-58 0 -93.5 42t-39.5 125l15 3q29 -83 118 -83t118 83l15 -3q-4 -83 -39.5 -125t-93.5 -42z" />
    <glyph glyph-name="Uring" unicode="&#x16e;" horiz-adv-x="725" 
d="M481 766q-41 0 -68.5 26.5t-27.5 69.5q0 42 27.5 69t68.5 27t68.5 -27t27.5 -69q0 -43 -27.5 -69.5t-68.5 -26.5zM481 789q31 0 51 20.5t20 52.5q0 31 -20 51.5t-51 20.5t-51 -20.5t-20 -51.5q0 -32 20 -52.5t51 -20.5zM99 238q0 269 1 434h-85v18h420v-18h-82v-517
q0 -69 23 -104t88 -35q39 0 67 14t43.5 35t24.5 54.5t11.5 63.5t2.5 71v331q0 50 -16 68.5t-63 18.5h-6v18h189v-18h-7q-46 0 -62 -18.5t-16 -68.5v-330q0 -153 -50.5 -215t-197.5 -62q-137 0 -211 58t-74 202z" />
    <glyph glyph-name="uring" unicode="&#x16f;" horiz-adv-x="613" 
d="M303 496q-39 0 -65.5 26t-26.5 67t26.5 66.5t65.5 25.5t65.5 -25.5t26.5 -66.5t-26.5 -67t-65.5 -26zM303 520q29 0 48 19.5t19 49.5q0 29 -19 49t-48 20t-48 -20t-19 -49q0 -30 19 -49.5t48 -19.5zM61 122v291h-51v17h237v-374q0 -24 4.5 -31.5t18.5 -7.5q36 0 62 33
t26 89v274h-41v17h228v-413h50v-17h-237v69q-30 -79 -137 -79q-77 0 -118.5 36.5t-41.5 95.5z" />
    <glyph glyph-name="Uhungarumlaut" unicode="&#x170;" horiz-adv-x="725" 
d="M366 767l-10 10q31 60 58 104q34 58 53 75q26 23 48 23q19 0 36.5 -16.5t17.5 -36.5q0 -23 -24 -48q-19 -19 -75 -53q-42 -26 -104 -58zM559 767l-10 10q31 60 58 104q34 58 53 75q26 23 48 23q19 0 36.5 -16.5t17.5 -36.5q0 -23 -24 -48q-19 -20 -75 -53
q-55 -33 -104 -58zM99 238q0 269 1 434h-85v18h420v-18h-82v-517q0 -69 23 -104t88 -35q39 0 67 14t43.5 35t24.5 54.5t11.5 63.5t2.5 71v331q0 50 -16 68.5t-63 18.5h-6v18h189v-18h-7q-46 0 -62 -18.5t-16 -68.5v-330q0 -153 -50.5 -215t-197.5 -62q-137 0 -211 58
t-74 202z" />
    <glyph glyph-name="uhungarumlaut" unicode="&#x171;" horiz-adv-x="613" 
d="M61 122v291h-51v17h237v-374q0 -24 4.5 -31.5t18.5 -7.5q36 0 62 33t26 89v274h-41v17h228v-413h50v-17h-237v69q-30 -79 -137 -79q-77 0 -118.5 36.5t-41.5 95.5zM185 495l-9 8q31 60 52 96q31 55 48 72q25 23 49 23q19 0 35 -15t16 -35q0 -26 -24 -48q-24 -23 -72 -49
q-43 -25 -95 -52zM368 495l-9 8q31 60 52 96q31 55 48 72q25 23 49 23q19 0 35 -15t16 -35q0 -26 -24 -48q-24 -23 -72 -49q-43 -25 -95 -52z" />
    <glyph glyph-name="Uogonek" unicode="&#x172;" horiz-adv-x="725" 
d="M262 -175q0 92 131 153h-9q-137 0 -211 58t-74 202q0 269 1 434h-85v18h420v-18h-82v-517q0 -69 23 -104t88 -35q39 0 67 14t43.5 35t24.5 54.5t11.5 63.5t2.5 71v331q0 50 -16 68.5t-63 18.5h-6v18h189v-18h-7q-46 0 -62 -18.5t-16 -68.5v-330q0 -139 -40.5 -202
t-154.5 -73q-76 -47 -76 -128q0 -68 56 -68q33 0 50 35l13 -5q-11 -42 -35 -68t-72 -26q-52 0 -81.5 29t-29.5 76z" />
    <glyph glyph-name="uogonek" unicode="&#x173;" horiz-adv-x="613" 
d="M61 122v291h-51v17h237v-374q0 -24 4.5 -31.5t18.5 -7.5q36 0 62 33t26 89v274h-41v17h228v-413h50v-17h-47q-51 -19 -83 -56t-32 -86q0 -67 60 -67q32 0 47 23l13 -6q-21 -78 -106 -78q-49 0 -78 27.5t-29 72.5q0 59 49.5 102.5t123.5 67.5h-155v69q-30 -79 -137 -79
q-77 0 -118.5 36.5t-41.5 95.5z" />
    <glyph glyph-name="Wcircumflex" unicode="&#x174;" horiz-adv-x="1128" 
d="M457 766l-11 13l149 169h46l149 -169l-11 -13l-161 89zM308 0l-231 672h-72v18h389v-18h-68l131 -394l88 249l-50 145h-55v18h385v-18h-83l132 -392q62 175 79 231t17 87q0 38 -18.5 54.5t-73.5 20.5v17h249v-17q-58 -8 -88.5 -39.5t-61.5 -118.5l-182 -515h-69l-172 499
l-176 -499h-70z" />
    <glyph glyph-name="wcircumflex" unicode="&#x175;" horiz-adv-x="814" 
d="M286 493l-13 11l138 186h38l138 -186l-13 -11l-144 96zM306 413v17h278v-17h-60l105 -235q52 116 65.5 149t13.5 52q0 18 -15 26.5t-62 8.5v16h198v-16q-49 -1 -70 -20t-45 -73l-143 -321h-44l-127 272l-118 -272h-47l-195 413h-50v17h295v-17h-53l108 -236l50 116
l-56 120h-28z" />
    <glyph glyph-name="Ycircumflex" unicode="&#x176;" horiz-adv-x="762" 
d="M168 0v17h92v262l-179 393h-79v18h421v-18h-90l157 -354q72 149 94.5 205.5t22.5 87.5q0 32 -19.5 47t-65.5 16v16h238v-16q-51 -6 -79.5 -31.5t-63.5 -99.5l-115 -240v-286h92v-17h-426zM323 766l-11 13l149 169h46l149 -169l-11 -13l-161 89z" />
    <glyph glyph-name="ycircumflex" unicode="&#x177;" horiz-adv-x="546" 
d="M80 -110q34 0 55 -19.5t21 -52.5q0 -30 -17.5 -48t-52.5 -19v-1q13 -10 32 -10q25 0 39.5 13.5t28.5 46.5l62 145l-206 468h-48v17h323v-17h-70l99 -247q57 129 72 165.5t15 51.5q0 30 -63 31v16h191v-16q-52 -1 -77 -18t-46 -64l-230 -523q-22 -51 -42 -69t-57 -18
q-48 0 -78.5 24.5t-30.5 64.5q0 36 22 57.5t58 21.5zM202 493l-13 11l138 186h38l138 -186l-13 -11l-144 96z" />
    <glyph glyph-name="Ydieresis" unicode="&#x178;" horiz-adv-x="762" 
d="M168 0v17h92v262l-179 393h-79v18h421v-18h-90l157 -354q72 149 94.5 205.5t22.5 87.5q0 32 -19.5 47t-65.5 16v16h238v-16q-51 -6 -79.5 -31.5t-63.5 -99.5l-115 -240v-286h92v-17h-426zM361 770q-32 0 -54 21t-22 54t22 54.5t54 21.5t54 -21.5t22 -54.5t-22 -54
t-54 -21zM605 770q-31 0 -53 21.5t-22 53.5q0 33 22 54.5t53 21.5q32 0 54 -21.5t22 -54.5t-22 -54t-54 -21z" />
    <glyph glyph-name="Zacute" unicode="&#x179;" horiz-adv-x="796" 
d="M45 0v15l417 657h-164l-213 -312h-13v330h672v-15l-418 -658h162l230 338h12v-355h-685zM299 764l-7 10q106 139 161 177q24 17 45 17q23 0 40.5 -19.5t17.5 -42.5q0 -27 -33 -50q-46 -33 -224 -92z" />
    <glyph glyph-name="zacute" unicode="&#x17a;" horiz-adv-x="538" 
d="M191 493l-7 10q108 138 150 168q24 18 46 18t38.5 -19t16.5 -41q0 -29 -34 -53q-38 -27 -210 -83zM28 0v13l262 400h-93l-138 -193h-12v210h459v-13l-263 -401h98l143 212h13v-228h-469z" />
    <glyph glyph-name="Zdotaccent" unicode="&#x17b;" horiz-adv-x="796" 
d="M397 769q-34 0 -57.5 22.5t-23.5 57.5t23.5 57t57.5 22t57.5 -22t23.5 -57t-23.5 -57.5t-57.5 -22.5zM45 0v15l417 657h-164l-213 -312h-13v330h672v-15l-418 -658h162l230 338h12v-355h-685z" />
    <glyph glyph-name="zdotaccent" unicode="&#x17c;" horiz-adv-x="538" 
d="M28 0v13l262 400h-93l-138 -193h-12v210h459v-13l-263 -401h98l143 212h13v-228h-469zM276 495q-34 0 -56.5 22t-22.5 57q0 34 23 56t56 22t56 -22t23 -56q0 -35 -22.5 -57t-56.5 -22z" />
    <glyph glyph-name="Zcaron" unicode="&#x17d;" horiz-adv-x="796" 
d="M45 0v15l417 657h-164l-213 -312h-13v330h672v-15l-418 -658h162l230 338h12v-355h-685zM374 768l-149 169l11 13l161 -89l161 89l11 -13l-149 -169h-46z" />
    <glyph glyph-name="zcaron" unicode="&#x17e;" horiz-adv-x="538" 
d="M257 494l-138 185l13 12l144 -97l144 97l13 -12l-138 -185h-38zM28 0v13l262 400h-93l-138 -193h-12v210h459v-13l-263 -401h98l143 212h13v-228h-469z" />
    <glyph glyph-name="florin" unicode="&#x192;" horiz-adv-x="738" 
d="M212 456q35 140 114.5 198t212.5 58q199 0 199 -137q0 -51 -27 -80t-75 -29q-45 0 -71.5 24t-26.5 66q0 45 29.5 71.5t72.5 26.5q14 0 20 -1q-15 42 -76 42q-45 0 -66 -24.5t-38 -92.5l-54 -216h159l-4 -17h-159l-87 -351q-32 -131 -112.5 -185.5t-211.5 -54.5
q-199 0 -199 137q0 51 27.5 80t75.5 29q44 0 70.5 -24.5t26.5 -66.5q0 -44 -29.5 -70.5t-72.5 -26.5q-8 0 -20 2q15 -43 77 -43q45 0 65.5 24.5t37.5 92.5l114 457h-136l4 17h136z" />
    <glyph glyph-name="AEacute" unicode="&#x1fc;" horiz-adv-x="1205" 
d="M-11 0v16q56 26 82 51.5t81 107.5l335 498h-87v17h723v-261h-13l-186 244h-184v-318h33q45 0 73.5 9.5t43.5 32.5t21 45.5t11 64.5h15v-327h-15q-5 41 -11 64t-21 47.5t-43.5 35.5t-73.5 11h-33v-321h184l206 303h13v-320h-727v17h92v321h-224l-54 -81
q-51 -75 -67.5 -109t-16.5 -57q0 -68 108 -75v-16h-265zM507 672l-212 -317h213v317h-1zM526 764l-7 10q106 139 161 177q24 17 45 17q23 0 40.5 -19.5t17.5 -42.5q0 -27 -33 -50q-46 -33 -224 -92z" />
    <glyph glyph-name="aeacute" unicode="&#x1fd;" horiz-adv-x="789" 
d="M305 493l-7 10q108 138 150 168q24 18 46 18t38.5 -19t16.5 -41q0 -29 -34 -53q-38 -27 -210 -83zM15 107q0 133 279 134v106q0 41 -18 58t-60 17q-74 0 -99 -45v-1q31 -1 49 -17t18 -43q0 -26 -17 -44t-47 -18q-28 0 -48 18t-20 51q0 50 51 83.5t160 33.5q97 0 147 -29
q62 31 132 31q102 0 162.5 -63.5t62.5 -153.5h-282q0 -89 9.5 -134t29 -60.5t58.5 -15.5q76 0 120.5 41.5t45.5 112.5h17q0 -75 -54 -128t-165 -53q-130 0 -200 72q-53 -72 -149 -72q-80 0 -131 31t-51 88zM195 110q0 -59 11.5 -78.5t36.5 -19.5q51 0 51 60v153
q-59 0 -79 -23.5t-20 -91.5zM485 242h111v87q0 56 -11 77t-44 21t-44.5 -21.5t-11.5 -77.5v-86z" />
    <glyph glyph-name="Oslashacute" unicode="&#x1fe;" horiz-adv-x="811" 
d="M32 345q0 157 105 262t269 105q123 0 216 -63l47 63h24l-54 -75q66 -50 103 -126t37 -166q0 -157 -105 -262t-268 -105q-125 0 -220 65l-48 -65h-24l56 76q-66 50 -102 125.5t-36 165.5zM308 764l-7 10q106 139 161 177q24 17 45 17q23 0 40.5 -19.5t17.5 -42.5
q0 -27 -33 -50q-46 -33 -224 -92zM496 80q2 53 2 265v118l-185 -264q0 -71 2 -119q1 -49 21 -67t70 -18t69 18t21 67zM313 345v-112l185 264q0 19 -0.5 59.5t-1.5 53.5q-1 49 -20.5 66.5t-69.5 17.5q-51 0 -70.5 -18t-20.5 -66q-2 -53 -2 -265z" />
    <glyph glyph-name="oslashacute" unicode="&#x1ff;" horiz-adv-x="556" 
d="M25 215q0 107 77.5 167t175.5 60q83 0 150 -43l32 38h24l-40 -48q87 -63 87 -174q0 -107 -77.5 -167t-175.5 -60q-84 0 -151 42l-31 -37h-24l40 48q-87 63 -87 174zM193 493l-7 10q108 138 150 168q24 18 46 18t38.5 -19t16.5 -41q0 -29 -34 -53q-38 -27 -210 -83z
M224 57q1 -29 13.5 -40.5t40.5 -11.5t40.5 11.5t13.5 40.5q2 42 2 158v54l-112 -138q0 -48 2 -74zM222 215v-55l112 138q-2 74 -2 75q-1 29 -13.5 40.5t-40.5 11.5t-40.5 -11.5t-13.5 -40.5q-2 -42 -2 -158z" />
    <glyph glyph-name="uni0218" unicode="&#x218;" horiz-adv-x="643" 
d="M59 -8v298l13 3q57 -152 129.5 -223.5t170.5 -71.5q122 0 122 98q0 47 -32 69t-162 72q-62 24 -100 44t-72 49.5t-49 70t-15 95.5q0 112 61.5 162.5t156.5 50.5q113 0 187 -86l87 79h13v-257l-12 -3q-49 117 -113.5 183.5t-157.5 66.5q-58 0 -88.5 -22t-30.5 -61
q0 -48 36.5 -73t155.5 -69q137 -50 188.5 -101.5t51.5 -147.5q0 -114 -55 -175.5t-166 -61.5q-128 0 -208 98l-94 -87h-17zM252 -109q0 29 20 46t49 17q30 0 51.5 -21t21.5 -71q0 -108 -121 -146l-6 15q50 18 73 46.5t25 82.5h-1q-12 -32 -49 -32q-28 0 -45.5 18t-17.5 45z
" />
    <glyph glyph-name="uni0219" unicode="&#x219;" horiz-adv-x="452" 
d="M159 -103q0 28 18 44.5t47 16.5q30 0 51 -21t21 -71q0 -108 -119 -144l-6 16q49 19 70.5 46t23.5 82h-1q-8 -27 -47 -27q-26 0 -42 15.5t-16 42.5zM43 -7v184l12 5q42 -94 89 -137.5t109 -43.5q38 0 58.5 15.5t20.5 40.5q0 9 -2.5 16t-9 13t-12.5 10.5t-19.5 9.5t-23 8
t-30.5 10t-34 11q-77 25 -114.5 58.5t-37.5 101.5q0 73 43.5 112t108.5 39q77 0 125 -55l53 49h13v-158l-12 -3q-64 150 -175 150q-34 0 -54.5 -13t-20.5 -37q0 -25 24.5 -38t114.5 -41q37 -12 57 -20.5t42.5 -25t32.5 -42.5t10 -63q0 -74 -40.5 -119.5t-113.5 -45.5
q-86 0 -137 62l-61 -53h-16z" />
    <glyph glyph-name="uni021A" unicode="&#x21a;" horiz-adv-x="809" 
d="M336 -109q0 29 20 46t49 17q30 0 51.5 -21t21.5 -71q0 -108 -121 -146l-6 15q50 18 73 46.5t25 82.5h-1q-12 -32 -49 -32q-28 0 -45.5 18t-17.5 45zM191 0v17h92v658h-33l-204 -322l-12 4l13 333h715l13 -333l-12 -4l-205 322h-32v-658h92v-17h-427z" />
    <glyph glyph-name="uni021B" unicode="&#x21b;" horiz-adv-x="368" 
d="M112 -103q0 28 18 44.5t47 16.5q30 0 51 -21t21 -71q0 -108 -119 -144l-6 16q49 19 70.5 46t23.5 82h-1q-8 -27 -47 -27q-26 0 -42 15.5t-16 42.5zM63 105q0 27 0.5 129.5t0.5 175.5h-69v19q61 22 132.5 77.5t105.5 106.5h18v-183h100v-20h-100v-360q0 -15 5.5 -20.5
t18.5 -5.5q67 0 67 122h17q0 -35 -4.5 -59.5t-18 -49t-43.5 -37t-76 -12.5q-71 0 -112.5 31t-41.5 86z" />
    <glyph glyph-name="circumflex" unicode="&#x2c6;" 
d="M106 493l-13 11l138 186h38l138 -186l-13 -11l-144 96z" />
    <glyph glyph-name="caron" unicode="&#x2c7;" 
d="M231 494l-138 185l13 12l144 -97l144 97l13 -12l-138 -185h-38z" />
    <glyph glyph-name="breve" unicode="&#x2d8;" 
d="M250 495q-58 0 -93.5 42t-39.5 125l15 3q29 -83 118 -83t118 83l15 -3q-4 -83 -39.5 -125t-93.5 -42z" />
    <glyph glyph-name="dotaccent" unicode="&#x2d9;" 
d="M250 495q-34 0 -56.5 22t-22.5 57q0 34 23 56t56 22t56 -22t23 -56q0 -35 -22.5 -57t-56.5 -22z" />
    <glyph glyph-name="ring" unicode="&#x2da;" 
d="M250 496q-39 0 -65.5 26t-26.5 67t26.5 66.5t65.5 25.5t65.5 -25.5t26.5 -66.5t-26.5 -67t-65.5 -26zM250 520q29 0 48 19.5t19 49.5q0 29 -19 49t-48 20t-48 -20t-19 -49q0 -30 19 -49.5t48 -19.5z" />
    <glyph glyph-name="ogonek" unicode="&#x2db;" 
d="M135 -170q0 59 49.5 102.5t123.5 67.5h35q-51 -19 -83 -56t-32 -86q0 -67 60 -67q32 0 47 23l13 -6q-21 -78 -106 -78q-49 0 -78 27.5t-29 72.5z" />
    <glyph glyph-name="tilde" unicode="&#x2dc;" 
d="M91 489l-14 8q30 69 58.5 93.5t63.5 24.5q26 0 69.5 -15.5t70.5 -15.5q21 0 36 8t34 32l14 -8q-30 -69 -58.5 -94t-64.5 -25q-26 0 -68.5 15.5t-70.5 15.5q-20 0 -35.5 -8t-34.5 -31z" />
    <glyph glyph-name="hungarumlaut" unicode="&#x2dd;" 
d="M132 495l-9 8q31 60 52 96q31 55 48 72q25 23 49 23q19 0 35 -15t16 -35q0 -26 -24 -48q-24 -23 -72 -49q-43 -25 -95 -52zM315 495l-9 8q31 60 52 96q31 55 48 72q25 23 49 23q19 0 35 -15t16 -35q0 -26 -24 -48q-24 -23 -72 -49q-43 -25 -95 -52z" />
    <glyph glyph-name="Wgrave" unicode="&#x1e80;" horiz-adv-x="1128" 
d="M716 764q-177 59 -224 92q-33 23 -33 50q0 23 17.5 42.5t40.5 19.5q21 0 45 -17q55 -38 161 -177zM308 0l-231 672h-72v18h389v-18h-68l131 -394l88 249l-50 145h-55v18h385v-18h-83l132 -392q62 175 79 231t17 87q0 38 -18.5 54.5t-73.5 20.5v17h249v-17
q-58 -8 -88.5 -39.5t-61.5 -118.5l-182 -515h-69l-172 499l-176 -499h-70z" />
    <glyph glyph-name="wgrave" unicode="&#x1e81;" horiz-adv-x="814" 
d="M306 413v17h278v-17h-60l105 -235q52 116 65.5 149t13.5 52q0 18 -15 26.5t-62 8.5v16h198v-16q-49 -1 -70 -20t-45 -73l-143 -321h-44l-127 272l-118 -272h-47l-195 413h-50v17h295v-17h-53l108 -236l50 116l-56 120h-28zM515 493q-172 56 -210 83q-34 24 -34 53
q0 22 16.5 41t38.5 19t46 -18q43 -30 150 -168z" />
    <glyph glyph-name="Wacute" unicode="&#x1e82;" horiz-adv-x="1128" 
d="M520 764l-7 10q106 139 161 177q24 17 45 17q23 0 40.5 -19.5t17.5 -42.5q0 -27 -33 -50q-46 -33 -224 -92zM308 0l-231 672h-72v18h389v-18h-68l131 -394l88 249l-50 145h-55v18h385v-18h-83l132 -392q62 175 79 231t17 87q0 38 -18.5 54.5t-73.5 20.5v17h249v-17
q-58 -8 -88.5 -39.5t-61.5 -118.5l-182 -515h-69l-172 499l-176 -499h-70z" />
    <glyph glyph-name="wacute" unicode="&#x1e83;" horiz-adv-x="814" 
d="M345 493l-7 10q108 138 150 168q24 18 46 18t38.5 -19t16.5 -41q0 -29 -34 -53q-38 -27 -210 -83zM306 413v17h278v-17h-60l105 -235q52 116 65.5 149t13.5 52q0 18 -15 26.5t-62 8.5v16h198v-16q-49 -1 -70 -20t-45 -73l-143 -321h-44l-127 272l-118 -272h-47l-195 413
h-50v17h295v-17h-53l108 -236l50 116l-56 120h-28z" />
    <glyph glyph-name="Wdieresis" unicode="&#x1e84;" horiz-adv-x="1128" 
d="M308 0l-231 672h-72v18h389v-18h-68l131 -394l88 249l-50 145h-55v18h385v-18h-83l132 -392q62 175 79 231t17 87q0 38 -18.5 54.5t-73.5 20.5v17h249v-17q-58 -8 -88.5 -39.5t-61.5 -118.5l-182 -515h-69l-172 499l-176 -499h-70zM495 770q-32 0 -54 21t-22 54t22 54.5
t54 21.5t54 -21.5t22 -54.5t-22 -54t-54 -21zM739 770q-31 0 -53 21.5t-22 53.5q0 33 22 54.5t53 21.5q32 0 54 -21.5t22 -54.5t-22 -54t-54 -21z" />
    <glyph glyph-name="wdieresis" unicode="&#x1e85;" horiz-adv-x="814" 
d="M321 496q-31 0 -51.5 19t-20.5 51t21 52.5t51 20.5q32 0 53 -20t21 -52q0 -31 -21.5 -51t-52.5 -20zM538 496q-31 0 -52 20t-21 51q0 32 21 52t52 20t52 -20t21 -52q0 -31 -21 -51t-52 -20zM306 413v17h278v-17h-60l105 -235q52 116 65.5 149t13.5 52q0 18 -15 26.5
t-62 8.5v16h198v-16q-49 -1 -70 -20t-45 -73l-143 -321h-44l-127 272l-118 -272h-47l-195 413h-50v17h295v-17h-53l108 -236l50 116l-56 120h-28z" />
    <glyph glyph-name="Ygrave" unicode="&#x1ef2;" horiz-adv-x="762" 
d="M168 0v17h92v262l-179 393h-79v18h421v-18h-90l157 -354q72 149 94.5 205.5t22.5 87.5q0 32 -19.5 47t-65.5 16v16h238v-16q-51 -6 -79.5 -31.5t-63.5 -99.5l-115 -240v-286h92v-17h-426zM582 764q-177 59 -224 92q-33 23 -33 50q0 23 17.5 42.5t40.5 19.5q21 0 45 -17
q55 -38 161 -177z" />
    <glyph glyph-name="ygrave" unicode="&#x1ef3;" horiz-adv-x="546" 
d="M80 -110q34 0 55 -19.5t21 -52.5q0 -30 -17.5 -48t-52.5 -19v-1q13 -10 32 -10q25 0 39.5 13.5t28.5 46.5l62 145l-206 468h-48v17h323v-17h-70l99 -247q57 129 72 165.5t15 51.5q0 30 -63 31v16h191v-16q-52 -1 -77 -18t-46 -64l-230 -523q-22 -51 -42 -69t-57 -18
q-48 0 -78.5 24.5t-30.5 64.5q0 36 22 57.5t58 21.5zM431 493q-172 56 -210 83q-34 24 -34 53q0 22 16.5 41t38.5 19t46 -18q43 -30 150 -168z" />
    <glyph glyph-name="endash" unicode="&#x2013;" 
d="M60 152v128h380v-128h-380z" />
    <glyph glyph-name="emdash" unicode="&#x2014;" horiz-adv-x="750" 
d="M55 152v128h640v-128h-640z" />
    <glyph glyph-name="quoteleft" unicode="&#x2018;" horiz-adv-x="382" 
d="M278 714l8 -16q-72 -39 -113.5 -95.5t-46.5 -158.5l2 -1q21 36 71 36q40 0 69.5 -25t29.5 -72t-29.5 -74t-76.5 -27q-51 0 -81.5 35t-30.5 112q0 96 51 171.5t147 114.5z" />
    <glyph glyph-name="quoteright" unicode="&#x2019;" horiz-adv-x="382" 
d="M104 279l-8 16q72 39 113.5 95.5t46.5 158.5l-2 1q-21 -36 -71 -36q-40 0 -69.5 25t-29.5 72t29.5 74t76.5 27q51 0 81.5 -35t30.5 -112q0 -96 -51 -171.5t-147 -114.5z" />
    <glyph glyph-name="quotesinglbase" unicode="&#x201a;" horiz-adv-x="382" 
d="M84 74q0 47 29.5 74t76.5 27q51 0 81.5 -35t30.5 -112q0 -97 -50.5 -172.5t-147.5 -115.5l-8 17q46 25 76.5 52.5t55 79.5t28.5 123l-2 1q-22 -36 -71 -36q-40 0 -69.5 25t-29.5 72z" />
    <glyph glyph-name="quotedblleft" unicode="&#x201c;" horiz-adv-x="655" 
d="M551 713l8 -16q-72 -39 -113.5 -95.5t-46.5 -158.5l2 -1q21 36 71 36q40 0 69.5 -25t29.5 -72t-29.5 -74t-76.5 -27q-51 0 -81.5 35t-30.5 112q0 96 51 171.5t147 114.5zM278 713l7 -16q-71 -39 -112.5 -95.5t-46.5 -158.5l1 -1q23 36 72 36q40 0 69 -25t29 -72
q0 -46 -29 -73.5t-76 -27.5q-113 0 -113 147q0 96 51 171.5t148 114.5z" />
    <glyph glyph-name="quotedblright" unicode="&#x201d;" horiz-adv-x="655" 
d="M104 279l-8 16q72 39 113.5 95.5t46.5 158.5l-2 1q-21 -36 -71 -36q-40 0 -69.5 25t-29.5 72t29.5 74t76.5 27q51 0 81.5 -35t30.5 -112q0 -96 -51 -171.5t-147 -114.5zM377 279l-7 16q71 39 112.5 95.5t46.5 158.5l-1 1q-22 -36 -72 -36q-40 0 -69 25t-29 72
q0 46 29 73.5t76 27.5q113 0 113 -147q0 -96 -51 -171.5t-148 -114.5z" />
    <glyph glyph-name="quotedblbase" unicode="&#x201e;" horiz-adv-x="655" 
d="M84 74q0 47 29.5 74t76.5 27q51 0 81.5 -35t30.5 -112q0 -97 -50.5 -172.5t-147.5 -115.5l-8 17q46 25 76.5 52.5t55 79.5t28.5 123l-2 1q-22 -36 -71 -36q-40 0 -69.5 25t-29.5 72zM357 74q0 47 29.5 74t76.5 27q51 0 81.5 -35t30.5 -112q0 -97 -50.5 -172.5
t-147.5 -115.5l-8 17q46 25 76.5 52.5t55 79.5t28.5 123l-2 1q-22 -36 -71 -36q-40 0 -69.5 25t-29.5 72z" />
    <glyph glyph-name="dagger" unicode="&#x2020;" horiz-adv-x="644" 
d="M322 -145q-36 52 -72 146.5t-57 191.5q50 13 85 58.5t37 122.5q-120 -12 -165 -114q-50 14 -95 48.5t-67 73.5q22 39 67 73.5t95 48.5q46 -105 165 -116q-2 76 -36 125t-82 57q20 63 53.5 114.5t71.5 75.5q38 -24 71.5 -75.5t54.5 -114.5q-48 -8 -82.5 -57t-35.5 -125
q120 11 164 116q51 -14 96 -48.5t67 -73.5q-22 -39 -67 -73.5t-96 -48.5q-44 102 -164 114q1 -78 36 -123t86 -58q-22 -97 -58.5 -191.5t-71.5 -146.5z" />
    <glyph glyph-name="daggerdbl" unicode="&#x2021;" horiz-adv-x="652" 
d="M10 156q21 39 62.5 71.5t90.5 47.5q41 -103 155 -112q-4 143 -126 177v9q123 32 126 177q-114 -11 -155 -112q-49 15 -90.5 47.5t-62.5 70.5q21 39 62.5 71.5t90.5 47.5q41 -103 155 -112q-1 72 -34 116.5t-81 54.5q20 60 52.5 108t70.5 71q77 -47 121 -179
q-48 -10 -80 -54.5t-33 -116.5q115 10 154 112q49 -15 90.5 -47.5t63.5 -71.5q-22 -38 -64 -70.5t-90 -47.5q-39 101 -154 112q3 -145 126 -177v-9q-123 -34 -126 -177q115 10 154 112q49 -15 90.5 -47.5t63.5 -71.5q-22 -39 -64 -71.5t-90 -47.5q-40 102 -154 112
q1 -73 33 -117t80 -53q-44 -133 -121 -180q-38 23 -70.5 71.5t-52.5 108.5q48 9 81 53t34 117q-113 -9 -155 -112q-48 15 -89.5 47.5t-63.5 71.5z" />
    <glyph glyph-name="bullet" unicode="&#x2022;" 
d="M250 230q-53 0 -89 35t-36 89t36 89t89 35t89 -35t36 -89t-36 -89t-89 -35z" />
    <glyph glyph-name="ellipsis" unicode="&#x2026;" horiz-adv-x="1170" 
d="M90 75q0 47 33.5 73.5t73.5 26.5t73 -26.5t33 -73.5t-33 -73.5t-73 -26.5t-73.5 26.5t-33.5 73.5zM478 75q0 47 33.5 73.5t73.5 26.5t73 -26.5t33 -73.5t-33 -73.5t-73 -26.5t-73.5 26.5t-33.5 73.5zM866 75q0 47 33.5 73.5t73.5 26.5t73 -26.5t33 -73.5t-33 -73.5
t-73 -26.5t-73.5 26.5t-33.5 73.5z" />
    <glyph glyph-name="guilsinglleft" unicode="&#x2039;" horiz-adv-x="300" 
d="M34 207v16q136 61 217 173l15 -9q-57 -92 -79 -172q22 -80 79 -172l-15 -9q-81 112 -217 173z" />
    <glyph glyph-name="guilsinglright" unicode="&#x203a;" horiz-adv-x="300" 
d="M266 223v-16q-136 -61 -217 -173l-15 9q57 92 79 172q-22 80 -79 172l15 9q81 -112 217 -173z" />
    <glyph glyph-name="fraction" unicode="&#x2044;" horiz-adv-x="158" 
d="M333 718l-515 -762l-22 16l515 762z" />
    <glyph glyph-name="Euro" unicode="&#x20ac;" horiz-adv-x="794" 
d="M-2 399l5 18h63q23 129 116.5 212t218.5 83q132 0 221 -113l87 106h17l9 -294l-17 -4q-29 62 -56 107t-64.5 89.5t-85 68t-101.5 23.5q-47 0 -68 -20.5t-22 -64.5q-2 -82 -2 -193h257l-5 -18h-252v-108h251l-5 -18h-246q0 -113 2 -193q1 -44 22 -64.5t68 -20.5
q54 0 101.5 23.5t85 68t64.5 89.5t56 107l17 -4l-9 -294h-17l-87 105q-91 -112 -221 -112q-125 0 -218.5 83t-116.5 212h-68l5 18h61q-4 23 -4 54q0 30 4 54h-66z" />
    <glyph glyph-name="uni20b9" unicode="&#x20b9;" horiz-adv-x="628" 
d="M38 672v18h558v-18h-191q101 -34 103 -148h88v-18h-89q-3 -45 -21.5 -77t-48.5 -48.5t-62 -24t-68 -7.5v-2q62 -1 99 -10t59 -33t30.5 -59t10.5 -96q4 -84 20 -107t63 -23v-16q-52 -25 -125 -25q-105 0 -145 48.5t-46 181.5q-2 44 -6 65.5t-18 38.5t-39.5 22t-71.5 5
h-100v18h146q53 0 71 28.5t19 120.5h-236v18h236q-1 88 -18 118t-66 30h-152z" />
    <glyph glyph-name="trademark" unicode="&#x2122;" horiz-adv-x="1221" 
d="M581 276v14h16q24 0 33 8.5t9 32.5v345h-56v14h219l78 -258h1l80 258h221v-14h-57v-386h57v-14h-268v14h52v363h-1l-118 -379h-71l-120 387h-1v-330q0 -24 9 -32.5t33 -8.5h17v-14h-133zM142 276v14h59v389h-18l-137 -192l-11 4l12 199h469l12 -199l-12 -4l-137 192h-18
v-389h61v-14h-280z" />
    <glyph glyph-name="minus" unicode="&#x2212;" horiz-adv-x="690" 
d="M70 327v36h550v-36h-550z" />
    <glyph glyph-name="F.alt1" horiz-adv-x="629" 
d="M20 0v17h85v655h-85v18h710v-240h-10l-191 222h-181v-317h40q45 0 73.5 9.5t43.5 32.5t21 45.5t11 64.5h14v-327h-14q-5 41 -11 64t-21 47.5t-43.5 35.5t-73.5 11h-40v-321h92v-17h-420z" />
    <glyph glyph-name="R.alt1" horiz-adv-x="807" 
d="M20 0v17h85v655h-85v18h463q123 0 179.5 -41.5t56.5 -126.5q0 -49 -18 -84.5t-49 -53.5t-64 -26t-71 -8v-4q67 -2 105.5 -11.5t58.5 -37t26 -58t9 -93.5q4 -66 11.5 -84t36.5 -18q26 0 39 24l16 -5q-14 -42 -49 -59.5t-101 -17.5q-36 0 -64 6t-47 15t-32.5 25.5t-21 31.5
t-12.5 39.5t-6.5 43.5t-2.5 49q-2 49 -5.5 72t-17 42t-39.5 24.5t-73 5.5v-323h79v-17h-407zM348 357h46q55 0 73 30t18 128q0 97 -18.5 127t-72.5 30h-46v-315z" />
    <glyph glyph-name="T.alt1" horiz-adv-x="660" 
d="M186 0v17h92v658h-14l-220 -228l-10 4l10 239h715l10 -239l-10 -4l-221 228h-14v-658h92v-17h-430z" />
    <glyph glyph-name="a.alt1" horiz-adv-x="542" 
d="M20 112q0 130 279 139v96q0 41 -18 58t-60 17q-73 0 -99 -45v-1q31 -1 49 -17t18 -42q0 -27 -17 -45t-47 -18q-28 0 -48 18t-20 51q0 50 51 83.5t160 33.5q114 0 162.5 -37.5t48.5 -116.5v-235q0 -26 21 -26q20 0 29 21l15 -7q-20 -46 -102 -46q-99 0 -129 64
q-7 -38 -34 -53.5t-78 -15.5q-80 0 -130.5 32.5t-50.5 91.5zM200 118q0 -60 11.5 -79.5t37.5 -19.5q50 0 50 62v155q-59 -1 -79 -25t-20 -93z" />
    <glyph glyph-name="j.alt1" horiz-adv-x="325" 
d="M70 -155v568h-52v17h243q0 -7 0.5 -79.5t0.5 -173.5v-177q0 -62 -14 -109.5t-37 -77t-56.5 -48t-69.5 -25.5t-80 -7q-73 0 -115 27l29 32q28 -42 78 -42q39 0 56 21.5t17 73.5zM164 498q-42 0 -71.5 27t-29.5 71q0 43 29.5 70.5t71.5 27.5t72 -27.5t30 -70.5
q0 -44 -29.5 -71t-72.5 -27z" />
    <glyph glyph-name="exclamdown.alt1" horiz-adv-x="394" 
d="M86 -165q0 36 16 78t34.5 76t34.5 89.5t16 115.5h19q0 -60 16 -115.5t34.5 -89.5t34.5 -76t16 -78q0 -53 -29 -84t-81 -31t-81.5 31.5t-29.5 83.5zM197 250q-40 0 -68.5 27t-28.5 69t28.5 69t68.5 27t68 -27t28 -69t-28 -69t-68 -27z" />
    <glyph glyph-name="questiondown.alt1" horiz-adv-x="491" 
d="M61 -134q0 58 26 111t57.5 84.5t57.5 62t26 49.5q0 24 -26 24q-41 0 -88 -71l-14 10q33 49 64 67t71 18q115 0 115 -110q0 -42 -17 -84.5t-37.5 -72t-37.5 -67t-17 -69.5q0 -54 45 -54q49 0 89 59.5t48 153.5h17q-9 -119 -67 -187t-159 -68q-153 0 -153 144zM262 250
q-40 0 -68.5 27t-28.5 69t28.5 69t68.5 27t68 -27t28 -69t-28 -69t-68 -27z" />
    <glyph glyph-name="hyphen.case" horiz-adv-x="379" 
d="M60 267v155h259v-155h-259z" />
    <glyph glyph-name="endash.case" 
d="M60 281v128h380v-128h-380z" />
    <glyph glyph-name="emdash.case" horiz-adv-x="750" 
d="M55 281v128h640v-128h-640z" />
    <glyph glyph-name="guillemotleft.case" horiz-adv-x="529" 
d="M34 344v16q136 61 217 173l15 -9q-57 -92 -79 -172q22 -80 79 -172l-15 -9q-81 112 -217 173zM258 344v16q136 61 217 173l15 -9q-57 -92 -79 -172q22 -80 79 -172l-15 -9q-81 112 -217 173z" />
    <glyph glyph-name="guillemotright.case" horiz-adv-x="529" 
d="M271 360v-16q-136 -61 -217 -173l-15 9q57 92 79 172q-22 80 -79 172l15 9q81 -112 217 -173zM495 360v-16q-136 -61 -217 -173l-15 9q57 92 79 172q-22 80 -79 172l15 9q81 -112 217 -173z" />
    <glyph glyph-name="guilsinglleft.case" horiz-adv-x="305" 
d="M34 344v16q136 61 217 173l15 -9q-57 -92 -79 -172q22 -80 79 -172l-15 -9q-81 112 -217 173z" />
    <glyph glyph-name="guilsinglright.case" horiz-adv-x="305" 
d="M271 360v-16q-136 -61 -217 -173l-15 9q57 92 79 172q-22 80 -79 172l15 9q81 -112 217 -173z" />
    <glyph glyph-name="ampersand.alt1" horiz-adv-x="946" 
d="M11 182q0 137 198 208q-46 76 -46 149q0 74 46.5 123.5t149.5 49.5q145 0 145 -114q0 -73 -76 -120l174 -207q115 141 235 141q44 0 69 -24t25 -63q0 -41 -22.5 -63t-57.5 -22q-37 0 -60.5 22.5t-23.5 57.5q0 29 14 46q-91 -19 -168 -109q76 -90 106.5 -114.5t60.5 -24.5
q36 0 51 21t15 69h17q0 -50 -9 -88.5t-29.5 -71t-60 -50t-95.5 -17.5q-68 0 -118 25t-98 80q-93 -107 -221 -107q-93 0 -157 54.5t-64 148.5zM288 284q-47 56 -70 92q-39 -22 -39 -67q0 -67 67 -145t144 -78q28 0 51 15zM351 622q0 -52 67 -132q68 39 68 108
q0 41 -20.5 63.5t-53.5 22.5q-30 0 -45.5 -17.5t-15.5 -44.5z" />
    <glyph glyph-name="at.case" horiz-adv-x="793" 
d="M566 107q-99 0 -137 52q-39 -37 -87 -37q-136 0 -136 153q0 108 58.5 184.5t153.5 76.5q54 0 65 -35l6 24h111l-75 -302q-7 -28 -7 -47q0 -29 13.5 -40.5t42.5 -11.5q54 0 95.5 48.5t60 114t18.5 131.5q0 121 -80 201t-226 80q-167 0 -282.5 -105.5t-115.5 -283.5
q0 -87 30 -154.5t80 -107t110.5 -59.5t127.5 -20q135 0 237 58l7 -14q-43 -27 -111 -43.5t-135 -16.5q-98 0 -179 38.5t-132.5 121t-51.5 195.5q0 178 116.5 292.5t298.5 114.5q150 0 236.5 -81t86.5 -216q0 -50 -11.5 -102t-34 -100t-62.5 -78.5t-91 -30.5zM319 168
q0 -29 34 -29q41 0 54 54q3 12 17.5 68.5t20.5 79.5q28 111 28 135q0 17 -8.5 29t-25.5 12q-18 0 -29 -12t-20 -46l-34 -124q-37 -137 -37 -167z" />
    <glyph glyph-name="parenleft.case" horiz-adv-x="417" 
d="M78 345q0 84 22 148t55.5 100.5t80 59t88 30t88.5 7.5v-17q-72 -4 -99 -36t-31 -120q-3 -69 -3 -172t3 -172q4 -89 30.5 -120t99.5 -36v-17q-47 0 -88.5 7.5t-88 30t-80 59t-55.5 100.5t-22 148z" />
    <glyph glyph-name="parenright.case" horiz-adv-x="417" 
d="M339 345q0 -84 -22 -148t-55.5 -100.5t-80 -59t-88 -30t-88.5 -7.5v17q73 5 99.5 36t30.5 120q3 69 3 172t-3 172q-4 88 -31 120t-99 36v17q47 0 88.5 -7.5t88 -30t80 -59t55.5 -100.5t22 -148z" />
    <glyph glyph-name="bracketleft.case" horiz-adv-x="365" 
d="M107 0v690h246v-18h-93v-655h93v-17h-246z" />
    <glyph glyph-name="bracketright.case" horiz-adv-x="365" 
d="M258 690v-690h-246v17h93v655h-93v18h246z" />
    <glyph glyph-name="braceleft.case" horiz-adv-x="371" 
d="M20 339v14q28 2 46 9.5t28.5 16t15.5 28t6.5 34.5t2.5 47q2 45 4.5 69t11 51t23.5 39.5t42 24t66.5 15t96.5 3.5v-17q-60 0 -74 -27t-18 -125q-4 -100 -18.5 -129.5t-79.5 -44.5v-2q65 -15 79.5 -44.5t18.5 -129.5q4 -99 18 -126.5t74 -27.5v-17q-49 0 -85 4t-62 9.5
t-43 19t-27 26.5t-15.5 38.5t-7.5 46.5t-4 60q-1 40 -3.5 58t-12 38t-29 28t-54.5 11z" />
    <glyph glyph-name="braceright.case" horiz-adv-x="371" 
d="M351 353v-14q-35 -3 -54.5 -11t-29 -28t-12 -38t-3.5 -58q-2 -39 -4 -60t-7.5 -46.5t-15.5 -38.5t-27 -26.5t-43 -19t-62 -9.5t-85 -4v17q60 0 74 27.5t18 126.5q4 100 18.5 129.5t79.5 44.5v2q-65 15 -79.5 44.5t-18.5 129.5q-4 98 -18 125t-74 27v17q57 0 96.5 -3.5
t66.5 -15t42 -24t23.5 -39.5t11 -51t4.5 -69q1 -32 2.5 -47t6.5 -34.5t15.5 -28t28.5 -16t46 -9.5z" />
    <glyph glyph-name="grave.case" 
d="M348 764q-177 59 -224 92q-33 23 -33 50q0 23 17.5 42.5t40.5 19.5q21 0 45 -17q55 -38 161 -177z" />
    <glyph glyph-name="acute.case" 
d="M152 764l-7 10q106 139 161 177q24 17 45 17q23 0 40.5 -19.5t17.5 -42.5q0 -27 -33 -50q-46 -33 -224 -92z" />
    <glyph glyph-name="circumflex.case" 
d="M89 766l-11 13l149 169h46l149 -169l-11 -13l-161 89z" />
    <glyph glyph-name="dieresis.case" 
d="M127 770q-32 0 -54 21t-22 54t22 54.5t54 21.5t54 -21.5t22 -54.5t-22 -54t-54 -21zM371 770q-31 0 -53 21.5t-22 53.5q0 33 22 54.5t53 21.5q32 0 54 -21.5t22 -54.5t-22 -54t-54 -21z" />
    <glyph glyph-name="tilde.case" 
d="M71 758l-14 8q34 77 65.5 104.5t70.5 27.5q29 0 78 -17t79 -17q45 0 79 44l14 -8q-34 -77 -65.5 -105t-70.5 -28q-29 0 -77.5 17t-79.5 17q-23 0 -40 -8.5t-39 -34.5z" />
    <glyph glyph-name="caron.case" 
d="M227 768l-149 169l11 13l161 -89l161 89l11 -13l-149 -169h-46z" />
    <glyph glyph-name="ring.case" 
d="M250 766q-41 0 -68.5 26.5t-27.5 69.5q0 42 27.5 69t68.5 27t68.5 -27t27.5 -69q0 -43 -27.5 -69.5t-68.5 -26.5zM250 789q31 0 51 20.5t20 52.5q0 31 -20 51.5t-51 20.5t-51 -20.5t-20 -51.5q0 -32 20 -52.5t51 -20.5z" />
    <glyph glyph-name="breve.case" 
d="M250 769q-57 0 -93 42t-40 126l15 3q29 -81 118 -81t118 81l15 -3q-4 -84 -40 -126t-93 -42z" />
    <glyph glyph-name="macron.case" 
d="M74 773v52h352v-52h-352z" />
    <glyph glyph-name="dotaccent.case" 
d="M250 769q-34 0 -57.5 22.5t-23.5 57.5t23.5 57t57.5 22t57.5 -22t23.5 -57t-23.5 -57.5t-57.5 -22.5z" />
    <glyph glyph-name="hungarumlaut.case" 
d="M135 767l-10 10q31 60 58 104q34 58 53 75q26 23 48 23q19 0 36.5 -16.5t17.5 -36.5q0 -23 -24 -48q-19 -19 -75 -53q-42 -26 -104 -58zM328 767l-10 10q31 60 58 104q34 58 53 75q26 23 48 23q19 0 36.5 -16.5t17.5 -36.5q0 -23 -24 -48q-19 -20 -75 -53
q-54 -33 -104 -58z" />
    <glyph glyph-name="cedilla.case" 
d="M148 -188q0 17 9.5 27.5t26.5 10.5q33 0 33 -34q0 -31 -33 -33q18 -32 61 -32q29 0 45.5 18t16.5 52q0 63 -66 63v116h18v-72q70 -1 104.5 -23.5t34.5 -72.5q0 -97 -131 -97q-49 0 -84 20t-35 57z" />
    <glyph glyph-name="ogonek.case" 
d="M124 -175q0 56 46 98.5t139 76.5h30q-116 -45 -116 -148q0 -68 56 -68q33 0 50 35l13 -5q-11 -42 -35 -68t-72 -26q-52 0 -81.5 29t-29.5 76z" />
    <glyph glyph-name="commaaccent.case" 
d="M181 -109q0 29 20 46t49 17q30 0 51.5 -21t21.5 -71q0 -108 -121 -146l-6 15q50 18 73 46.5t25 82.5h-1q-12 -32 -49 -32q-28 0 -45.5 18t-17.5 45z" />
    <glyph glyph-name="uni030C.alt" 
d="M177 453v16q132 2 132 144h-2q-20 -37 -63 -37q-31 0 -53.5 21t-22.5 56q0 34 21.5 55.5t60.5 21.5q85 0 85 -116q0 -161 -158 -161z" />
    <glyph glyph-name="Racute.alt1" horiz-adv-x="807" 
d="M20 0v17h85v655h-85v18h463q123 0 179.5 -41.5t56.5 -126.5q0 -49 -18 -84.5t-49 -53.5t-64 -26t-71 -8v-4q67 -2 105.5 -11.5t58.5 -37t26 -58t9 -93.5q4 -66 11.5 -84t36.5 -18q26 0 39 24l16 -5q-14 -42 -49 -59.5t-101 -17.5q-36 0 -64 6t-47 15t-32.5 25.5t-21 31.5
t-12.5 39.5t-6.5 43.5t-2.5 49q-2 49 -5.5 72t-17 42t-39.5 24.5t-73 5.5v-323h79v-17h-407zM348 357h46q55 0 73 30t18 128q0 97 -18.5 127t-72.5 30h-46v-315zM308 764l-7 10q106 139 161 177q24 17 45 17q23 0 40.5 -19.5t17.5 -42.5q0 -27 -33 -50q-46 -33 -224 -92z
" />
    <glyph glyph-name="Rcaron.alt1" horiz-adv-x="807" 
d="M20 0v17h85v655h-85v18h463q123 0 179.5 -41.5t56.5 -126.5q0 -49 -18 -84.5t-49 -53.5t-64 -26t-71 -8v-4q67 -2 105.5 -11.5t58.5 -37t26 -58t9 -93.5q4 -66 11.5 -84t36.5 -18q26 0 39 24l16 -5q-14 -42 -49 -59.5t-101 -17.5q-36 0 -64 6t-47 15t-32.5 25.5t-21 31.5
t-12.5 39.5t-6.5 43.5t-2.5 49q-2 49 -5.5 72t-17 42t-39.5 24.5t-73 5.5v-323h79v-17h-407zM348 357h46q55 0 73 30t18 128q0 97 -18.5 127t-72.5 30h-46v-315zM383 768l-149 169l11 13l161 -89l161 89l11 -13l-149 -169h-46z" />
    <glyph glyph-name="Rcommaaccent.alt1" horiz-adv-x="807" 
d="M354 -109q0 29 20 46t49 17q30 0 51.5 -21t21.5 -71q0 -108 -121 -146l-6 15q50 18 73 46.5t25 82.5h-1q-12 -32 -49 -32q-28 0 -45.5 18t-17.5 45zM20 0v17h85v655h-85v18h463q123 0 179.5 -41.5t56.5 -126.5q0 -49 -18 -84.5t-49 -53.5t-64 -26t-71 -8v-4
q67 -2 105.5 -11.5t58.5 -37t26 -58t9 -93.5q4 -66 11.5 -84t36.5 -18q26 0 39 24l16 -5q-14 -42 -49 -59.5t-101 -17.5q-36 0 -64 6t-47 15t-32.5 25.5t-21 31.5t-12.5 39.5t-6.5 43.5t-2.5 49q-2 49 -5.5 72t-17 42t-39.5 24.5t-73 5.5v-323h79v-17h-407zM348 357h46
q55 0 73 30t18 128q0 97 -18.5 127t-72.5 30h-46v-315z" />
    <glyph glyph-name="Tbar.alt1" horiz-adv-x="660" 
d="M189 400v20h89v255h-14l-220 -228l-10 4l10 239h715l10 -239l-10 -4l-221 228h-14v-255h92v-20h-92v-383h92v-17h-430v17h92v383h-89z" />
    <glyph glyph-name="commaaccent" 
d="M185 -103q0 28 18 44.5t47 16.5q30 0 51 -21t21 -71q0 -108 -119 -144l-6 16q49 19 70.5 46t23.5 82h-1q-8 -27 -47 -27q-26 0 -42 15.5t-16 42.5z" />
    <glyph glyph-name="agrave.alt1" horiz-adv-x="542" 
d="M20 112q0 130 279 139v96q0 41 -18 58t-60 17q-73 0 -99 -45v-1q31 -1 49 -17t18 -42q0 -27 -17 -45t-47 -18q-28 0 -48 18t-20 51q0 50 51 83.5t160 33.5q114 0 162.5 -37.5t48.5 -116.5v-235q0 -26 21 -26q20 0 29 21l15 -7q-20 -46 -102 -46q-99 0 -129 64
q-7 -38 -34 -53.5t-78 -15.5q-80 0 -130.5 32.5t-50.5 91.5zM200 118q0 -60 11.5 -79.5t37.5 -19.5q50 0 50 62v155q-59 -1 -79 -25t-20 -93zM395 493q-172 56 -210 83q-34 24 -34 53q0 22 16.5 41t38.5 19t46 -18q43 -30 150 -168z" />
    <glyph glyph-name="aacute.alt1" horiz-adv-x="542" 
d="M150 493l-7 10q108 138 150 168q24 18 46 18t38.5 -19t16.5 -41q0 -29 -34 -53q-38 -27 -210 -83zM20 112q0 130 279 139v96q0 41 -18 58t-60 17q-73 0 -99 -45v-1q31 -1 49 -17t18 -42q0 -27 -17 -45t-47 -18q-28 0 -48 18t-20 51q0 50 51 83.5t160 33.5
q114 0 162.5 -37.5t48.5 -116.5v-235q0 -26 21 -26q20 0 29 21l15 -7q-20 -46 -102 -46q-99 0 -129 64q-7 -38 -34 -53.5t-78 -15.5q-80 0 -130.5 32.5t-50.5 91.5zM200 118q0 -60 11.5 -79.5t37.5 -19.5q50 0 50 62v155q-59 -1 -79 -25t-20 -93z" />
    <glyph glyph-name="abreve.alt1" horiz-adv-x="542" 
d="M20 112q0 130 279 139v96q0 41 -18 58t-60 17q-73 0 -99 -45v-1q31 -1 49 -17t18 -42q0 -27 -17 -45t-47 -18q-28 0 -48 18t-20 51q0 50 51 83.5t160 33.5q114 0 162.5 -37.5t48.5 -116.5v-235q0 -26 21 -26q20 0 29 21l15 -7q-20 -46 -102 -46q-99 0 -129 64
q-7 -38 -34 -53.5t-78 -15.5q-80 0 -130.5 32.5t-50.5 91.5zM200 118q0 -60 11.5 -79.5t37.5 -19.5q50 0 50 62v155q-59 -1 -79 -25t-20 -93zM272 495q-58 0 -93.5 42t-39.5 125l15 3q29 -83 118 -83t118 83l15 -3q-4 -83 -39.5 -125t-93.5 -42z" />
    <glyph glyph-name="acircumflex.alt1" horiz-adv-x="542" 
d="M128 493l-13 11l138 186h38l138 -186l-13 -11l-144 96zM20 112q0 130 279 139v96q0 41 -18 58t-60 17q-73 0 -99 -45v-1q31 -1 49 -17t18 -42q0 -27 -17 -45t-47 -18q-28 0 -48 18t-20 51q0 50 51 83.5t160 33.5q114 0 162.5 -37.5t48.5 -116.5v-235q0 -26 21 -26
q20 0 29 21l15 -7q-20 -46 -102 -46q-99 0 -129 64q-7 -38 -34 -53.5t-78 -15.5q-80 0 -130.5 32.5t-50.5 91.5zM200 118q0 -60 11.5 -79.5t37.5 -19.5q50 0 50 62v155q-59 -1 -79 -25t-20 -93z" />
    <glyph glyph-name="atilde.alt1" horiz-adv-x="542" 
d="M20 112q0 130 279 139v96q0 41 -18 58t-60 17q-73 0 -99 -45v-1q31 -1 49 -17t18 -42q0 -27 -17 -45t-47 -18q-28 0 -48 18t-20 51q0 50 51 83.5t160 33.5q114 0 162.5 -37.5t48.5 -116.5v-235q0 -26 21 -26q20 0 29 21l15 -7q-20 -46 -102 -46q-99 0 -129 64
q-7 -38 -34 -53.5t-78 -15.5q-80 0 -130.5 32.5t-50.5 91.5zM200 118q0 -60 11.5 -79.5t37.5 -19.5q50 0 50 62v155q-59 -1 -79 -25t-20 -93zM113 489l-14 8q30 69 58.5 93.5t63.5 24.5q26 0 69.5 -15.5t70.5 -15.5q21 0 36 8t34 32l14 -8q-30 -69 -58.5 -94t-64.5 -25
q-26 0 -68.5 15.5t-70.5 15.5q-20 0 -35.5 -8t-34.5 -31z" />
    <glyph glyph-name="adieresis.alt1" horiz-adv-x="542" 
d="M163 496q-31 0 -51.5 19t-20.5 51t21 52.5t51 20.5q32 0 53 -20t21 -52q0 -31 -21.5 -51t-52.5 -20zM380 496q-31 0 -52 20t-21 51q0 32 21 52t52 20t52 -20t21 -52q0 -31 -21 -51t-52 -20zM20 112q0 130 279 139v96q0 41 -18 58t-60 17q-73 0 -99 -45v-1q31 -1 49 -17
t18 -42q0 -27 -17 -45t-47 -18q-28 0 -48 18t-20 51q0 50 51 83.5t160 33.5q114 0 162.5 -37.5t48.5 -116.5v-235q0 -26 21 -26q20 0 29 21l15 -7q-20 -46 -102 -46q-99 0 -129 64q-7 -38 -34 -53.5t-78 -15.5q-80 0 -130.5 32.5t-50.5 91.5zM200 118q0 -60 11.5 -79.5
t37.5 -19.5q50 0 50 62v155q-59 -1 -79 -25t-20 -93z" />
    <glyph glyph-name="aring.alt1" horiz-adv-x="542" 
d="M272 496q-39 0 -65.5 26t-26.5 67t26.5 66.5t65.5 25.5t65.5 -25.5t26.5 -66.5t-26.5 -67t-65.5 -26zM272 520q29 0 48 19.5t19 49.5q0 29 -19 49t-48 20t-48 -20t-19 -49q0 -30 19 -49.5t48 -19.5zM20 112q0 130 279 139v96q0 41 -18 58t-60 17q-73 0 -99 -45v-1
q31 -1 49 -17t18 -42q0 -27 -17 -45t-47 -18q-28 0 -48 18t-20 51q0 50 51 83.5t160 33.5q114 0 162.5 -37.5t48.5 -116.5v-235q0 -26 21 -26q20 0 29 21l15 -7q-20 -46 -102 -46q-99 0 -129 64q-7 -38 -34 -53.5t-78 -15.5q-80 0 -130.5 32.5t-50.5 91.5zM200 118
q0 -60 11.5 -79.5t37.5 -19.5q50 0 50 62v155q-59 -1 -79 -25t-20 -93z" />
    <glyph glyph-name="amacron.alt1" horiz-adv-x="542" 
d="M115 499v50h314v-50h-314zM20 112q0 130 279 139v96q0 41 -18 58t-60 17q-73 0 -99 -45v-1q31 -1 49 -17t18 -42q0 -27 -17 -45t-47 -18q-28 0 -48 18t-20 51q0 50 51 83.5t160 33.5q114 0 162.5 -37.5t48.5 -116.5v-235q0 -26 21 -26q20 0 29 21l15 -7q-20 -46 -102 -46
q-99 0 -129 64q-7 -38 -34 -53.5t-78 -15.5q-80 0 -130.5 32.5t-50.5 91.5zM200 118q0 -60 11.5 -79.5t37.5 -19.5q50 0 50 62v155q-59 -1 -79 -25t-20 -93z" />
    <glyph glyph-name="aogonek.alt1" horiz-adv-x="542" 
d="M273 -170q0 55 43.5 96.5t110.5 66.5q-86 4 -114 64q-7 -38 -34 -53.5t-78 -15.5q-80 0 -130.5 32.5t-50.5 91.5q0 130 279 139v96q0 41 -18 58t-60 17q-73 0 -99 -45v-1q31 -1 49 -17t18 -42q0 -27 -17 -45t-47 -18q-28 0 -48 18t-20 51q0 50 51 83.5t160 33.5
q114 0 162.5 -37.5t48.5 -116.5v-235q0 -26 21 -26q20 0 29 21l15 -7q-17 -39 -78 -45q-45 -20 -72.5 -55t-27.5 -81q0 -67 60 -67q32 0 47 23l13 -6q-21 -78 -106 -78q-49 0 -78 27.5t-29 72.5zM200 118q0 -60 11.5 -79.5t37.5 -19.5q50 0 50 62v155q-59 -1 -79 -25
t-20 -93z" />
    <glyph glyph-name="i.trk" horiz-adv-x="329" 
d="M164 498q-42 0 -71.5 27t-29.5 71q0 43 29.5 70.5t71.5 27.5t72 -27.5t30 -70.5q0 -44 -29.5 -71t-72.5 -27zM18 0v17h51v396h-51v17h242v-413h50v-17h-292z" />
    <glyph glyph-name="Tcaron.alt1" horiz-adv-x="660" 
d="M186 0v17h92v658h-14l-220 -228l-10 4l10 239h715l10 -239l-10 -4l-221 228h-14v-658h92v-17h-430zM378 768l-149 169l11 13l161 -89l161 89l11 -13l-149 -169h-46z" />
    <glyph glyph-name="uni0162.alt1" horiz-adv-x="660" 
d="M186 0v17h92v658h-14l-220 -228l-10 4l10 239h715l10 -239l-10 -4l-221 228h-14v-658h92v-17h-206v-72q70 -1 104.5 -23.5t34.5 -72.5q0 -97 -131 -97q-49 0 -84 20t-35 57q0 17 9.5 27.5t26.5 10.5q33 0 33 -34q0 -31 -33 -33q18 -32 61 -32q29 0 45.5 18t16.5 52
q0 63 -66 63v116h-206z" />
    <glyph glyph-name="uni021A.alt1" horiz-adv-x="660" 
d="M186 0v17h92v658h-14l-220 -228l-10 4l10 239h715l10 -239l-10 -4l-221 228h-14v-658h92v-17h-430zM332 -109q0 29 20 46t49 17q30 0 51.5 -21t21.5 -71q0 -108 -121 -146l-6 15q50 18 73 46.5t25 82.5h-1q-12 -32 -49 -32q-28 0 -45.5 18t-17.5 45z" />
    </font>
</defs>
</svg>
